solid 3d parts
facet normal -0.0 -0.0 1.0
  outer loop
    vertex 570.9923707528649 868.7898994067809 802.8553765984897
    vertex 571.1459870224737 870.7953138023579 802.8553765984897
    vertex 570.9371699807316 869.8027185873516 802.8553765984897
  endloop
endfacet
facet normal -0.0 -0.0 1.0
  outer loop
    vertex 571.1459870224737 870.7953138023579 802.8553765984897
    vertex 570.9923707528649 868.7898994067809 802.8553765984897
    vertex 571.3078274974763 867.8258782140396 802.8553765984897
  endloop
endfacet
facet normal -0.0 -0.0 1.0
  outer loop
    vertex 571.1459870224737 870.7953138023579 802.8553765984897
    vertex 571.3078274974763 867.8258782140396 802.8553765984897
    vertex 571.604591341783 871.7000413282387 802.8553765984897
  endloop
endfacet
facet normal -0.0 -0.0 1.0
  outer loop
    vertex 571.604591341783 871.7000413282387 802.8553765984897
    vertex 571.3078274974763 867.8258782140396 802.8553765984897
    vertex 571.8620423587375 866.976351460292 802.8553765984897
  endloop
endfacet
facet normal -0.0 -0.0 1.0
  outer loop
    vertex 571.604591341783 871.7000413282387 802.8553765984897
    vertex 571.8620423587375 866.976351460292 802.8553765984897
    vertex 571.9017641084096 872.0314744349554 802.8553765984897
  endloop
endfacet
facet normal -0.0 -0.0 1.0
  outer loop
    vertex 571.9017641084096 872.0314744349554 802.8553765984897
    vertex 571.8620423587375 866.976351460292 802.8553765984897
    vertex 572.0493019272739 866.8461924102054 802.8553765984897
  endloop
endfacet
facet normal -0.0 -0.0 1.0
  outer loop
    vertex 572.9288409152133 866.8407617728311 802.8553765984897
    vertex 572.8181274134528 869.6706699861865 802.8553765984897
    vertex 572.7149749236254 866.7615856276235 802.8553765984897
  endloop
endfacet
facet normal -0.0 -0.0 1.0
  outer loop
    vertex 572.8181274134528 869.6706699861865 802.8553765984897
    vertex 572.9288409152133 866.8407617728311 802.8553765984897
    vertex 572.8434128081414 869.1491778592057 802.8553765984897
  endloop
endfacet
facet normal -0.0 -0.0 1.0
  outer loop
    vertex 572.8434128081414 869.1491778592057 802.8553765984897
    vertex 572.9288409152133 866.8407617728311 802.8553765984897
    vertex 572.8730694292603 869.000869317995 802.8553765984897
  endloop
endfacet
facet normal -0.0 -0.0 1.0
  outer loop
    vertex 572.8730694292603 869.000869317995 802.8553765984897
    vertex 572.9288409152133 866.8407617728311 802.8553765984897
    vertex 573.0028087182326 868.6519994872568 802.8553765984897
  endloop
endfacet
facet normal -0.0 -0.0 1.0
  outer loop
    vertex 573.0028087182326 868.6519994872568 802.8553765984897
    vertex 572.9288409152133 866.8407617728311 802.8553765984897
    vertex 573.1176934566681 866.9685985512399 802.8553765984897
  endloop
endfacet
facet normal -0.0 -0.0 1.0
  outer loop
    vertex 573.0028087182326 868.6519994872568 802.8553765984897
    vertex 573.1176934566681 866.9685985512399 802.8553765984897
    vertex 573.285452575868 868.2130167547622 802.8553765984897
  endloop
endfacet
facet normal -0.0 -0.0 1.0
  outer loop
    vertex 573.285452575868 868.2130167547622 802.8553765984897
    vertex 573.1176934566681 866.9685985512399 802.8553765984897
    vertex 573.2706622799096 867.1377377348841 802.8553765984897
  endloop
endfacet
facet normal -0.0 -0.0 1.0
  outer loop
    vertex 573.285452575868 868.2130167547622 802.8553765984897
    vertex 573.2706622799096 867.1377377348841 802.8553765984897
    vertex 573.3789425676782 867.33844374777 802.8553765984897
  endloop
endfacet
facet normal -0.0 -0.0 1.0
  outer loop
    vertex 573.285452575868 868.2130167547622 802.8553765984897
    vertex 573.3789425676782 867.33844374777 802.8553765984897
    vertex 573.3881715833794 868.0094084793318 802.8553765984897
  endloop
endfacet
facet normal -0.0 -0.0 1.0
  outer loop
    vertex 573.3881715833794 868.0094084793318 802.8553765984897
    vertex 573.3789425676782 867.33844374777 802.8553765984897
    vertex 573.4363017548902 867.5591640412869 802.8553765984897
  endloop
endfacet
facet normal -0.0 -0.0 1.0
  outer loop
    vertex 573.3881715833794 868.0094084793318 802.8553765984897
    vertex 573.4363017548902 867.5591640412869 802.8553765984897
    vertex 573.4394382723053 867.7871940537551 802.8553765984897
  endloop
endfacet
facet normal -0.0 -0.0 1.0
  outer loop
    vertex 576.4501982907179 867.9669908659703 802.8553765984897
    vertex 576.4551422284877 868.3667043173547 802.8553765984897
    vertex 576.4328300894928 868.167092988874 802.8553765984897
  endloop
endfacet
facet normal -0.0 -0.0 1.0
  outer loop
    vertex 576.4551422284877 868.3667043173547 802.8553765984897
    vertex 576.4501982907179 867.9669908659703 802.8553765984897
    vertex 576.5065688643227 867.7742089362262 802.8553765984897
  endloop
endfacet
facet normal -0.0 -0.0 1.0
  outer loop
    vertex 576.4551422284877 868.3667043173547 802.8553765984897
    vertex 576.5065688643227 867.7742089362262 802.8553765984897
    vertex 576.6401486492056 868.6890739974011 802.8553765984897
  endloop
endfacet
facet normal -0.0 -0.0 1.0
  outer loop
    vertex 576.6401486492056 868.6890739974011 802.8553765984897
    vertex 576.5065688643227 867.7742089362262 802.8553765984897
    vertex 576.599741384624 867.5962724434401 802.8553765984897
  endloop
endfacet
facet normal -0.0 -0.0 1.0
  outer loop
    vertex 576.6401486492056 868.6890739974011 802.8553765984897
    vertex 576.599741384624 867.5962724434401 802.8553765984897
    vertex 576.7260788617266 867.4401271396881 802.8553765984897
  endloop
endfacet
facet normal -0.0 -0.0 1.0
  outer loop
    vertex 576.6401486492056 868.6890739974011 802.8553765984897
    vertex 576.7260788617266 867.4401271396881 802.8553765984897
    vertex 576.6939904978329 868.8309724445377 802.8553765984897
  endloop
endfacet
facet normal -0.0 -0.0 1.0
  outer loop
    vertex 576.6939904978329 868.8309724445377 802.8553765984897
    vertex 576.7260788617266 867.4401271396881 802.8553765984897
    vertex 576.8045387764091 869.341239499903 802.8553765984897
  endloop
endfacet
facet normal -0.0 -0.0 1.0
  outer loop
    vertex 576.8045387764091 869.341239499903 802.8553765984897
    vertex 576.7260788617266 867.4401271396881 802.8553765984897
    vertex 576.8806497114441 867.3118681578508 802.8553765984897
  endloop
endfacet
facet normal -0.0 -0.0 1.0
  outer loop
    vertex 577.8413042998036 867.2165020880626 802.8553765984897
    vertex 577.7606238311242 872.0355580257976 802.8553765984897
    vertex 577.6492342923959 867.1577515454371 802.8553765984897
  endloop
endfacet
facet normal -0.0 -0.0 1.0
  outer loop
    vertex 577.7606238311242 872.0355580257976 802.8553765984897
    vertex 577.8413042998036 867.2165020880626 802.8553765984897
    vertex 578.3148386923855 871.1860312720501 802.8553765984897
  endloop
endfacet
facet normal -0.0 -0.0 1.0
  outer loop
    vertex 578.3148386923855 871.1860312720501 802.8553765984897
    vertex 577.8413042998036 867.2165020880626 802.8553765984897
    vertex 578.0180748480788 867.3118681578508 802.8553765984897
  endloop
endfacet
facet normal -0.0 -0.0 1.0
  outer loop
    vertex 578.3148386923855 871.1860312720501 802.8553765984897
    vertex 578.0180748480788 867.3118681578508 802.8553765984897
    vertex 578.476679167388 868.2165956837317 802.8553765984897
  endloop
endfacet
facet normal -0.0 -0.0 1.0
  outer loop
    vertex 578.3148386923855 871.1860312720501 802.8553765984897
    vertex 578.476679167388 868.2165956837317 802.8553765984897
    vertex 578.6302954369969 870.2220100793085 802.8553765984897
  endloop
endfacet
facet normal -0.0 -0.0 1.0
  outer loop
    vertex 578.6302954369969 870.2220100793085 802.8553765984897
    vertex 578.476679167388 868.2165956837317 802.8553765984897
    vertex 578.6854962091302 869.209190898738 802.8553765984897
  endloop
endfacet
facet normal -0.0 -0.0 1.0
  outer loop
    vertex 566.9581900559247 872.0314744349554 802.8553765984897
    vertex 568.4581900559247 873.5314744349554 802.8553765984897
    vertex 566.9581900559247 888.0314744349553 802.8553765984897
  endloop
endfacet
facet normal -0.0 -0.0 1.0
  outer loop
    vertex 568.4581900559247 873.5314744349554 802.8553765984897
    vertex 566.9581900559247 872.0314744349554 802.8553765984897
    vertex 571.9017641084096 872.0314744349554 802.8553765984897
  endloop
endfacet
facet normal -0.0 -0.0 1.0
  outer loop
    vertex 568.4581900559247 873.5314744349554 802.8553765984897
    vertex 571.9017641084096 872.0314744349554 802.8553765984897
    vertex 581.4581900559247 873.5314744349554 802.8553765984897
  endloop
endfacet
facet normal -0.0 -0.0 1.0
  outer loop
    vertex 581.4581900559247 873.5314744349554 802.8553765984897
    vertex 571.9017641084096 872.0314744349554 802.8553765984897
    vertex 574.4545562110918 871.4738750298344 802.8553765984897
  endloop
endfacet
facet normal -0.0 -0.0 1.0
  outer loop
    vertex 574.4545562110918 871.4738750298344 802.8553765984897
    vertex 571.9017641084096 872.0314744349554 802.8553765984897
    vertex 573.957377839143 871.3144791197432 802.8553765984897
  endloop
endfacet
facet normal -0.0 -0.0 1.0
  outer loop
    vertex 573.957377839143 871.3144791197432 802.8553765984897
    vertex 571.9017641084096 872.0314744349554 802.8553765984897
    vertex 573.5183951066483 871.0318352621078 802.8553765984897
  endloop
endfacet
facet normal -0.0 -0.0 1.0
  outer loop
    vertex 573.5183951066483 871.0318352621078 802.8553765984897
    vertex 571.9017641084096 872.0314744349554 802.8553765984897
    vertex 573.1675239613743 870.6452051687352 802.8553765984897
  endloop
endfacet
facet normal -0.0 -0.0 1.0
  outer loop
    vertex 573.1675239613743 870.6452051687352 802.8553765984897
    vertex 571.9017641084096 872.0314744349554 802.8553765984897
    vertex 572.9286756920287 870.1809370415519 802.8553765984897
  endloop
endfacet
facet normal -0.0 -0.0 1.0
  outer loop
    vertex 572.9286756920287 870.1809370415519 802.8553765984897
    vertex 571.9017641084096 872.0314744349554 802.8553765984897
    vertex 572.0493019272739 866.8461924102054 802.8553765984897
  endloop
endfacet
facet normal -0.0 -0.0 1.0
  outer loop
    vertex 572.9286756920287 870.1809370415519 802.8553765984897
    vertex 572.0493019272739 866.8461924102054 802.8553765984897
    vertex 572.8181274134528 869.6706699861865 802.8553765984897
  endloop
endfacet
facet normal -0.0 -0.0 1.0
  outer loop
    vertex 572.8181274134528 869.6706699861865 802.8553765984897
    vertex 572.0493019272739 866.8461924102054 802.8553765984897
    vertex 572.2621739176518 866.7643814082539 802.8553765984897
  endloop
endfacet
facet normal -0.0 -0.0 1.0
  outer loop
    vertex 572.8181274134528 869.6706699861865 802.8553765984897
    vertex 572.2621739176518 866.7643814082539 802.8553765984897
    vertex 572.4884055130212 866.7356274592316 802.8553765984897
  endloop
endfacet
facet normal -0.0 -0.0 1.0
  outer loop
    vertex 572.8181274134528 869.6706699861865 802.8553765984897
    vertex 572.4884055130212 866.7356274592316 802.8553765984897
    vertex 572.7149749236254 866.7615856276235 802.8553765984897
  endloop
endfacet
facet normal -0.0 -0.0 1.0
  outer loop
    vertex 581.4581900559247 873.5314744349554 802.8553765984897
    vertex 574.4545562110918 871.4738750298344 802.8553765984897
    vertex 574.9760483380725 871.499160424523 802.8553765984897
  endloop
endfacet
facet normal -0.0 -0.0 1.0
  outer loop
    vertex 581.4581900559247 873.5314744349554 802.8553765984897
    vertex 574.9760483380725 871.499160424523 802.8553765984897
    vertex 575.4863153934378 871.3886121459468 802.8553765984897
  endloop
endfacet
facet normal -0.0 -0.0 1.0
  outer loop
    vertex 581.4581900559247 873.5314744349554 802.8553765984897
    vertex 575.4863153934378 871.3886121459468 802.8553765984897
    vertex 577.7606238311242 872.0355580257976 802.8553765984897
  endloop
endfacet
facet normal -0.0 -0.0 1.0
  outer loop
    vertex 577.7606238311242 872.0355580257976 802.8553765984897
    vertex 575.4863153934378 871.3886121459468 802.8553765984897
    vertex 575.9505835206211 871.1497638766015 802.8553765984897
  endloop
endfacet
facet normal -0.0 -0.0 1.0
  outer loop
    vertex 577.7606238311242 872.0355580257976 802.8553765984897
    vertex 575.9505835206211 871.1497638766015 802.8553765984897
    vertex 576.3372136139939 870.7988927313272 802.8553765984897
  endloop
endfacet
facet normal -0.0 -0.0 1.0
  outer loop
    vertex 577.7606238311242 872.0355580257976 802.8553765984897
    vertex 576.3372136139939 870.7988927313272 802.8553765984897
    vertex 576.6198574716291 870.3599099988326 802.8553765984897
  endloop
endfacet
facet normal -0.0 -0.0 1.0
  outer loop
    vertex 577.7606238311242 872.0355580257976 802.8553765984897
    vertex 576.6198574716291 870.3599099988326 802.8553765984897
    vertex 576.7792533817205 869.8627316268839 802.8553765984897
  endloop
endfacet
facet normal -0.0 -0.0 1.0
  outer loop
    vertex 577.7606238311242 872.0355580257976 802.8553765984897
    vertex 576.7792533817205 869.8627316268839 802.8553765984897
    vertex 576.8045387764091 869.341239499903 802.8553765984897
  endloop
endfacet
facet normal -0.0 -0.0 1.0
  outer loop
    vertex 577.7606238311242 872.0355580257976 802.8553765984897
    vertex 576.8045387764091 869.341239499903 802.8553765984897
    vertex 576.8806497114441 867.3118681578508 802.8553765984897
  endloop
endfacet
facet normal -0.0 -0.0 1.0
  outer loop
    vertex 577.7606238311242 872.0355580257976 802.8553765984897
    vertex 576.8806497114441 867.3118681578508 802.8553765984897
    vertex 577.0574202597193 867.2165020880627 802.8553765984897
  endloop
endfacet
facet normal -0.0 -0.0 1.0
  outer loop
    vertex 577.7606238311242 872.0355580257976 802.8553765984897
    vertex 577.0574202597193 867.2165020880627 802.8553765984897
    vertex 577.2494902671269 867.1577515454371 802.8553765984897
  endloop
endfacet
facet normal -0.0 -0.0 1.0
  outer loop
    vertex 577.7606238311242 872.0355580257976 802.8553765984897
    vertex 577.2494902671269 867.1577515454371 802.8553765984897
    vertex 577.4493622797614 867.1379098577623 802.8553765984897
  endloop
endfacet
facet normal -0.0 -0.0 1.0
  outer loop
    vertex 577.7606238311242 872.0355580257976 802.8553765984897
    vertex 577.4493622797614 867.1379098577623 802.8553765984897
    vertex 577.6492342923959 867.1577515454371 802.8553765984897
  endloop
endfacet
facet normal -0.0 -0.0 1.0
  outer loop
    vertex 581.4581900559247 873.5314744349554 802.8553765984897
    vertex 577.7606238311242 872.0355580257976 802.8553765984897
    vertex 582.9581900559247 872.0314744349554 802.8553765984897
  endloop
endfacet
facet normal -0.0 -0.0 1.0
  outer loop
    vertex 581.4581900559247 873.5314744349554 802.8553765984897
    vertex 582.9581900559247 872.0314744349554 802.8553765984897
    vertex 581.4581900559247 886.5314744349553 802.8553765984897
  endloop
endfacet
facet normal -0.0 -0.0 1.0
  outer loop
    vertex 566.9581900559247 888.0314744349553 802.8553765984897
    vertex 568.4581900559247 886.5314744349553 802.8553765984897
    vertex 582.9581900559247 888.0314744349553 802.8553765984897
  endloop
endfacet
facet normal -0.0 -0.0 1.0
  outer loop
    vertex 568.4581900559247 886.5314744349553 802.8553765984897
    vertex 566.9581900559247 888.0314744349553 802.8553765984897
    vertex 568.4581900559247 873.5314744349554 802.8553765984897
  endloop
endfacet
facet normal -0.0 -0.0 1.0
  outer loop
    vertex 582.9581900559247 888.0314744349553 802.8553765984897
    vertex 568.4581900559247 886.5314744349553 802.8553765984897
    vertex 581.4581900559247 886.5314744349553 802.8553765984897
  endloop
endfacet
facet normal -0.0 -0.0 1.0
  outer loop
    vertex 582.9581900559247 888.0314744349553 802.8553765984897
    vertex 581.4581900559247 886.5314744349553 802.8553765984897
    vertex 582.9581900559247 872.0314744349554 802.8553765984897
  endloop
endfacet
facet normal 0.42697762789385324 -0.9042621883492299 2.172557854410426e-28
  outer loop
    vertex 573.957377839143 871.3144791197432 802.8553765984897
    vertex 573.5183951066483 871.0318352621078 796.8553765984897
    vertex 573.957377839143 871.3144791197432 796.8553765984897
  endloop
endfacet
facet normal 0.6464689941413 -0.7629402595314629 0.0
  outer loop
    vertex 573.5183951066483 871.0318352621078 796.8553765984897
    vertex 573.957377839143 871.3144791197432 802.8553765984897
    vertex 573.5183951066483 871.0318352621078 802.8553765984897
  endloop
endfacet
facet normal -1.0 0.0 0.0
  outer loop
    vertex 581.4581900559247 886.5314744349553 802.8553765984897
    vertex 581.4581900559247 873.5314744349554 796.8553765984898
    vertex 581.4581900559247 873.5314744349554 802.8553765984897
  endloop
endfacet
facet normal -1.0 0.0 0.0
  outer loop
    vertex 581.4581900559247 873.5314744349554 796.8553765984898
    vertex 581.4581900559247 886.5314744349553 802.8553765984897
    vertex 581.4581900559247 886.5314744349553 796.8553765984897
  endloop
endfacet
facet normal 0.4748018535584759 -0.8800927223068237 0.0
  outer loop
    vertex 578.0180748480788 867.3118681578508 802.8553765984897
    vertex 577.8413042998036 867.2165020880626 796.8553765984898
    vertex 578.0180748480788 867.3118681578508 796.8553765984898
  endloop
endfacet
facet normal 0.3855382511595347 -0.922691853704609 0.0
  outer loop
    vertex 577.8413042998036 867.2165020880626 796.8553765984898
    vertex 578.0180748480788 867.3118681578508 802.8553765984897
    vertex 577.8413042998036 867.2165020880626 802.8553765984897
  endloop
endfacet
facet normal 0.9828721917300117 0.1842885094731715 0.0
  outer loop
    vertex 578.6302954369969 870.2220100793085 796.8553765984898
    vertex 578.6854962091302 869.209190898738 802.8553765984897
    vertex 578.6854962091302 869.209190898738 796.8553765984898
  endloop
endfacet
facet normal 0.9970790099785709 -0.0763770113329462 0.0
  outer loop
    vertex 578.6854962091302 869.209190898738 802.8553765984897
    vertex 578.6302954369969 870.2220100793085 796.8553765984898
    vertex 578.6302954369969 870.2220100793085 802.8553765984897
  endloop
endfacet
facet normal -0.9039705528710339 0.4275947141184483 -5.323348187350112e-19
  outer loop
    vertex 576.6401486492056 868.6890739974011 802.8553765984897
    vertex 576.4551422284877 868.3667043173547 796.8553765984898
    vertex 576.4551422284877 868.3667043173547 802.8553765984897
  endloop
endfacet
facet normal -0.8673200652350983 0.49775084574572526 -1.061334484905921e-18
  outer loop
    vertex 576.4551422284877 868.3667043173547 796.8553765984898
    vertex 576.6401486492056 868.6890739974011 802.8553765984897
    vertex 576.6401486492056 868.6890739974011 796.8553765984897
  endloop
endfacet
facet normal 0.8928167614806514 0.4504200599653636 -0.0
  outer loop
    vertex 573.285452575868 868.2130167547622 796.8553765984898
    vertex 573.3881715833794 868.0094084793318 802.8553765984897
    vertex 573.3881715833794 868.0094084793318 796.8553765984898
  endloop
endfacet
facet normal 0.8928167614806514 0.4504200599653636 -0.0
  outer loop
    vertex 573.3881715833794 868.0094084793318 802.8553765984897
    vertex 573.285452575868 868.2130167547622 796.8553765984898
    vertex 573.285452575868 868.2130167547622 802.8553765984897
  endloop
endfacet
facet normal -0.0007856734104603691 -0.9999996913585985 1.4796531408579957e-21
  outer loop
    vertex 582.9581900559247 872.0314744349554 802.8553765984897
    vertex 577.7606238311242 872.0355580257976 796.8553765984898
    vertex 582.9581900559247 872.0314744349554 796.8553765984897
  endloop
endfacet
facet normal -0.0007856734104603691 -0.9999996913585985 1.4796531408579957e-21
  outer loop
    vertex 577.7606238311242 872.0355580257976 796.8553765984898
    vertex 582.9581900559247 872.0314744349554 802.8553765984897
    vertex 577.7606238311242 872.0355580257976 802.8553765984897
  endloop
endfacet
facet normal -0.9828721917300075 -0.18428850947319392 0.0
  outer loop
    vertex 570.9923707528649 868.7898994067809 802.8553765984897
    vertex 571.3078274974763 867.8258782140396 796.8553765984898
    vertex 571.3078274974763 867.8258782140396 802.8553765984897
  endloop
endfacet
facet normal -0.9016842578881296 -0.43239507290987134 0.0
  outer loop
    vertex 571.3078274974763 867.8258782140396 796.8553765984898
    vertex 570.9923707528649 868.7898994067809 802.8553765984897
    vertex 570.9923707528649 868.7898994067809 796.8553765984898
  endloop
endfacet
facet normal -0.9016842578881296 -0.43239507290987134 0.0
  outer loop
    vertex 571.3078274974763 867.8258782140396 802.8553765984897
    vertex 571.8620423587375 866.976351460292 796.8553765984898
    vertex 571.8620423587375 866.976351460292 802.8553765984897
  endloop
endfacet
facet normal -0.8375313416632187 -0.5463892858867283 -0.0
  outer loop
    vertex 571.8620423587375 866.976351460292 796.8553765984898
    vertex 571.3078274974763 867.8258782140396 802.8553765984897
    vertex 571.3078274974763 867.8258782140396 796.8553765984898
  endloop
endfacet
facet normal -0.7629402595315457 -0.6464689941412023 -7.256290118074473e-19
  outer loop
    vertex 576.3372136139939 870.7988927313272 802.8553765984897
    vertex 575.9505835206211 871.1497638766015 796.8553765984897
    vertex 576.3372136139939 870.7988927313272 796.8553765984897
  endloop
endfacet
facet normal -0.5696252128451046 -0.8219045667783877 -7.256290120103162e-19
  outer loop
    vertex 575.9505835206211 871.1497638766015 796.8553765984897
    vertex 576.3372136139939 870.7988927313272 802.8553765984897
    vertex 575.9505835206211 871.1497638766015 802.8553765984897
  endloop
endfacet
facet normal 1.0 -0.0 -0.0
  outer loop
    vertex 582.9581900559247 888.0314744349553 796.8553765984897
    vertex 582.9581900559247 872.0314744349554 802.8553765984897
    vertex 582.9581900559247 872.0314744349554 796.8553765984897
  endloop
endfacet
facet normal 1.0 -0.0 -0.0
  outer loop
    vertex 582.9581900559247 872.0314744349554 802.8553765984897
    vertex 582.9581900559247 888.0314744349553 796.8553765984897
    vertex 582.9581900559247 888.0314744349553 802.8553765984897
  endloop
endfacet
facet normal 0.6464689941413 -0.7629402595314629 0.0
  outer loop
    vertex 573.5183951066483 871.0318352621078 796.8553765984897
    vertex 573.1675239613743 870.6452051687352 802.8553765984897
    vertex 573.1675239613743 870.6452051687352 796.8553765984897
  endloop
endfacet
facet normal 0.8219045667783731 -0.5696252128451256 0.0
  outer loop
    vertex 573.1675239613743 870.6452051687352 802.8553765984897
    vertex 573.5183951066483 871.0318352621078 796.8553765984897
    vertex 573.5183951066483 871.0318352621078 802.8553765984897
  endloop
endfacet
facet normal 0.8942507543305338 0.44756629495446965 1.5938445464755576e-19
  outer loop
    vertex 573.0028087182326 868.6519994872568 796.8553765984898
    vertex 573.285452575868 868.2130167547622 802.8553765984897
    vertex 573.285452575868 868.2130167547622 796.8553765984898
  endloop
endfacet
facet normal 0.8407943360412967 0.5413546753108125 -0.0
  outer loop
    vertex 573.285452575868 868.2130167547622 802.8553765984897
    vertex 573.0028087182326 868.6519994872568 796.8553765984898
    vertex 573.0028087182326 868.6519994872568 802.8553765984897
  endloop
endfacet
facet normal -0.7445405845382809 0.6675772000116503 0.0
  outer loop
    vertex 571.9017641084096 872.0314744349554 802.8553765984897
    vertex 571.604591341783 871.7000413282387 796.8553765984898
    vertex 571.604591341783 871.7000413282387 802.8553765984897
  endloop
endfacet
facet normal -0.825307246555214 0.5646839370687389 0.0
  outer loop
    vertex 571.604591341783 871.7000413282387 796.8553765984898
    vertex 571.9017641084096 872.0314744349554 802.8553765984897
    vertex 571.9017641084096 872.0314744349554 796.8553765984898
  endloop
endfacet
facet normal -0.1966063914214072 -0.980482496963741 0.0
  outer loop
    vertex 577.2494902671269 867.1577515454371 802.8553765984897
    vertex 577.0574202597193 867.2165020880627 796.8553765984898
    vertex 577.2494902671269 867.1577515454371 796.8553765984898
  endloop
endfacet
facet normal -0.3855382511595663 -0.9226918537045958 0.0
  outer loop
    vertex 577.0574202597193 867.2165020880627 796.8553765984898
    vertex 577.2494902671269 867.1577515454371 802.8553765984897
    vertex 577.0574202597193 867.2165020880627 802.8553765984897
  endloop
endfacet
facet normal 0.9619623039280241 0.2731822209103073 1.5895573286959905e-19
  outer loop
    vertex 572.8730694292603 869.000869317995 796.8553765984897
    vertex 573.0028087182326 868.6519994872568 802.8553765984897
    vertex 573.0028087182326 868.6519994872568 796.8553765984898
  endloop
endfacet
facet normal 0.89425075433053 0.44756629495447714 1.5938445464754346e-19
  outer loop
    vertex 573.0028087182326 868.6519994872568 802.8553765984897
    vertex 572.8730694292603 869.000869317995 796.8553765984897
    vertex 572.8730694292603 869.000869317995 802.8553765984897
  endloop
endfacet
facet normal 0.9924566058131544 0.12259643378921249 0.0
  outer loop
    vertex 572.8434128081414 869.1491778592057 796.8553765984897
    vertex 572.8730694292603 869.000869317995 802.8553765984897
    vertex 572.8730694292603 869.000869317995 796.8553765984897
  endloop
endfacet
facet normal 0.9619623039280224 0.2731822209103133 1.589557328696113e-19
  outer loop
    vertex 572.8730694292603 869.000869317995 802.8553765984897
    vertex 572.8434128081414 869.1491778592057 796.8553765984897
    vertex 572.8434128081414 869.1491778592057 802.8553765984897
  endloop
endfacet
facet normal -0.08235762157089097 -0.996602840739071 -9.491147342267524e-20
  outer loop
    vertex 574.9760483380725 871.499160424523 802.8553765984897
    vertex 574.4545562110918 871.4738750298344 796.8553765984897
    vertex 574.9760483380725 871.499160424523 796.8553765984897
  endloop
endfacet
facet normal 0.1783884419195291 -0.9839601433948039 -9.491147342839352e-20
  outer loop
    vertex 574.4545562110918 871.4738750298344 796.8553765984897
    vertex 574.9760483380725 871.499160424523 802.8553765984897
    vertex 574.4545562110918 871.4738750298344 802.8553765984897
  endloop
endfacet
facet normal 0.23218214675342064 -0.9726723244386946 0.0
  outer loop
    vertex 572.7149749236254 866.7615856276235 802.8553765984897
    vertex 572.4884055130212 866.7356274592316 796.8553765984898
    vertex 572.7149749236254 866.7615856276235 796.8553765984898
  endloop
endfacet
facet normal -0.006174295778391629 -0.999980938854157 0.0
  outer loop
    vertex 572.4884055130212 866.7356274592316 796.8553765984898
    vertex 572.7149749236254 866.7615856276235 802.8553765984897
    vertex 572.4884055130212 866.7356274592316 802.8553765984897
  endloop
endfacet
facet normal -0.0 1.0 -0.0
  outer loop
    vertex 568.4581900559247 873.5314744349554 802.8553765984897
    vertex 581.4581900559247 873.5314744349554 796.8553765984898
    vertex 568.4581900559247 873.5314744349554 796.8553765984898
  endloop
endfacet
facet normal -0.0 1.0 -0.0
  outer loop
    vertex 581.4581900559247 873.5314744349554 796.8553765984898
    vertex 568.4581900559247 873.5314744349554 802.8553765984897
    vertex 581.4581900559247 873.5314744349554 802.8553765984897
  endloop
endfacet
facet normal -1.0 0.0 0.0
  outer loop
    vertex 566.9581900559247 888.0314744349553 802.8553765984897
    vertex 566.9581900559247 872.0314744349554 796.8553765984897
    vertex 566.9581900559247 872.0314744349554 802.8553765984897
  endloop
endfacet
facet normal -1.0 0.0 0.0
  outer loop
    vertex 566.9581900559247 872.0314744349554 796.8553765984897
    vertex 566.9581900559247 888.0314744349553 802.8553765984897
    vertex 566.9581900559247 888.0314744349553 796.8553765984897
  endloop
endfacet
facet normal 0.9943349284348789 0.10629228614722933 0.0
  outer loop
    vertex 573.4394382723053 867.7871940537551 796.8553765984898
    vertex 573.4363017548902 867.5591640412869 802.8553765984897
    vertex 573.4363017548902 867.5591640412869 796.8553765984898
  endloop
endfacet
facet normal 0.9910352370467453 -0.13360074450279522 0.0
  outer loop
    vertex 573.4363017548902 867.5591640412869 802.8553765984897
    vertex 573.4394382723053 867.7871940537551 796.8553765984898
    vertex 573.4394382723053 867.7871940537551 802.8553765984897
  endloop
endfacet
facet normal 0.9306919992994117 -0.3658037758690636 0.0
  outer loop
    vertex 573.3789425676782 867.33844374777 796.8553765984898
    vertex 573.2706622799096 867.1377377348841 802.8553765984897
    vertex 573.2706622799096 867.1377377348841 796.8553765984898
  endloop
endfacet
facet normal 0.8167785450514485 -0.5769513050021108 0.0
  outer loop
    vertex 573.2706622799096 867.1377377348841 802.8553765984897
    vertex 573.3789425676782 867.33844374777 796.8553765984898
    vertex 573.3789425676782 867.33844374777 802.8553765984897
  endloop
endfacet
facet normal -0.825307246555214 0.5646839370687389 0.0
  outer loop
    vertex 571.604591341783 871.7000413282387 802.8553765984897
    vertex 571.1459870224737 870.7953138023579 796.8553765984898
    vertex 571.1459870224737 870.7953138023579 802.8553765984897
  endloop
endfacet
facet normal -0.9433365414480708 0.3318375650356547 0.0
  outer loop
    vertex 571.1459870224737 870.7953138023579 796.8553765984898
    vertex 571.604591341783 871.7000413282387 802.8553765984897
    vertex 571.604591341783 871.7000413282387 796.8553765984898
  endloop
endfacet
facet normal -2.0037576030228254e-16 -9.229076843391301e-15 -1.0
  outer loop
    vertex 571.1459870224737 870.7953138023579 796.8553765984898
    vertex 570.9923707528649 868.7898994067809 796.8553765984898
    vertex 570.9371699807316 869.8027185873516 796.8553765984898
  endloop
endfacet
facet normal -2.0037576030228254e-16 -9.229076843391301e-15 -1.0
  outer loop
    vertex 570.9923707528649 868.7898994067809 796.8553765984898
    vertex 571.1459870224737 870.7953138023579 796.8553765984898
    vertex 571.3078274974763 867.8258782140396 796.8553765984898
  endloop
endfacet
facet normal -2.0037576030228254e-16 -9.229076843391301e-15 -1.0
  outer loop
    vertex 571.3078274974763 867.8258782140396 796.8553765984898
    vertex 571.1459870224737 870.7953138023579 796.8553765984898
    vertex 571.604591341783 871.7000413282387 796.8553765984898
  endloop
endfacet
facet normal -2.0037576030228254e-16 -9.229076843391301e-15 -1.0
  outer loop
    vertex 571.3078274974763 867.8258782140396 796.8553765984898
    vertex 571.604591341783 871.7000413282387 796.8553765984898
    vertex 571.8620423587375 866.976351460292 796.8553765984898
  endloop
endfacet
facet normal -2.0037576030228254e-16 -9.229076843391301e-15 -1.0
  outer loop
    vertex 571.8620423587375 866.976351460292 796.8553765984898
    vertex 571.604591341783 871.7000413282387 796.8553765984898
    vertex 571.9017641084096 872.0314744349554 796.8553765984898
  endloop
endfacet
facet normal -2.0037576030228254e-16 -9.229076843391301e-15 -1.0
  outer loop
    vertex 571.8620423587375 866.976351460292 796.8553765984898
    vertex 571.9017641084096 872.0314744349554 796.8553765984898
    vertex 572.0493019272739 866.8461924102054 796.8553765984898
  endloop
endfacet
facet normal -2.0037576030228254e-16 -9.229076843391301e-15 -1.0
  outer loop
    vertex 576.4551422284877 868.3667043173547 796.8553765984898
    vertex 576.4501982907179 867.9669908659703 796.8553765984898
    vertex 576.4328300894928 868.167092988874 796.8553765984898
  endloop
endfacet
facet normal -2.0037576030228254e-16 -9.229076843391301e-15 -1.0
  outer loop
    vertex 576.4501982907179 867.9669908659703 796.8553765984898
    vertex 576.4551422284877 868.3667043173547 796.8553765984898
    vertex 576.5065688643227 867.7742089362262 796.8553765984898
  endloop
endfacet
facet normal -2.0037576030228254e-16 -9.229076843391301e-15 -1.0
  outer loop
    vertex 576.5065688643227 867.7742089362262 796.8553765984898
    vertex 576.4551422284877 868.3667043173547 796.8553765984898
    vertex 576.6401486492056 868.6890739974011 796.8553765984897
  endloop
endfacet
facet normal -2.0037576030228254e-16 -9.229076843391301e-15 -1.0
  outer loop
    vertex 576.5065688643227 867.7742089362262 796.8553765984898
    vertex 576.6401486492056 868.6890739974011 796.8553765984897
    vertex 576.599741384624 867.5962724434401 796.8553765984898
  endloop
endfacet
facet normal -2.0037576030228254e-16 -9.229076843391301e-15 -1.0
  outer loop
    vertex 576.599741384624 867.5962724434401 796.8553765984898
    vertex 576.6401486492056 868.6890739974011 796.8553765984897
    vertex 576.7260788617266 867.4401271396881 796.8553765984898
  endloop
endfacet
facet normal -2.0037576030228254e-16 -9.229076843391301e-15 -1.0
  outer loop
    vertex 576.7260788617266 867.4401271396881 796.8553765984898
    vertex 576.6401486492056 868.6890739974011 796.8553765984897
    vertex 576.6939904978329 868.8309724445377 796.8553765984897
  endloop
endfacet
facet normal -2.0037576030228254e-16 -9.229076843391301e-15 -1.0
  outer loop
    vertex 576.7260788617266 867.4401271396881 796.8553765984898
    vertex 576.6939904978329 868.8309724445377 796.8553765984897
    vertex 576.8045387764091 869.341239499903 796.8553765984897
  endloop
endfacet
facet normal -2.0037576030228254e-16 -9.229076843391301e-15 -1.0
  outer loop
    vertex 576.7260788617266 867.4401271396881 796.8553765984898
    vertex 576.8045387764091 869.341239499903 796.8553765984897
    vertex 576.8806497114441 867.3118681578508 796.8553765984898
  endloop
endfacet
facet normal -2.0037576030228254e-16 -9.229076843391301e-15 -1.0
  outer loop
    vertex 566.9581900559247 888.0314744349553 796.8553765984897
    vertex 568.4581900559247 886.5314744349553 796.8553765984897
    vertex 566.9581900559247 872.0314744349554 796.8553765984897
  endloop
endfacet
facet normal -2.0037576030228254e-16 -9.229076843391301e-15 -1.0
  outer loop
    vertex 568.4581900559247 886.5314744349553 796.8553765984897
    vertex 566.9581900559247 888.0314744349553 796.8553765984897
    vertex 582.9581900559247 888.0314744349553 796.8553765984897
  endloop
endfacet
facet normal -2.0037576030228254e-16 -9.229076843391301e-15 -1.0
  outer loop
    vertex 568.4581900559247 886.5314744349553 796.8553765984897
    vertex 582.9581900559247 888.0314744349553 796.8553765984897
    vertex 581.4581900559247 886.5314744349553 796.8553765984897
  endloop
endfacet
facet normal -2.0037576030228254e-16 -9.229076843391301e-15 -1.0
  outer loop
    vertex 581.4581900559247 886.5314744349553 796.8553765984897
    vertex 582.9581900559247 888.0314744349553 796.8553765984897
    vertex 581.4581900559247 873.5314744349554 796.8553765984898
  endloop
endfacet
facet normal -2.0037576030228254e-16 -9.229076843391301e-15 -1.0
  outer loop
    vertex 566.9581900559247 872.0314744349554 796.8553765984897
    vertex 568.4581900559247 873.5314744349554 796.8553765984898
    vertex 571.9017641084096 872.0314744349554 796.8553765984898
  endloop
endfacet
facet normal -2.0037576030228254e-16 -9.229076843391301e-15 -1.0
  outer loop
    vertex 568.4581900559247 873.5314744349554 796.8553765984898
    vertex 566.9581900559247 872.0314744349554 796.8553765984897
    vertex 568.4581900559247 886.5314744349553 796.8553765984897
  endloop
endfacet
facet normal -2.0037576030228254e-16 -9.229076843391301e-15 -1.0
  outer loop
    vertex 571.9017641084096 872.0314744349554 796.8553765984898
    vertex 568.4581900559247 873.5314744349554 796.8553765984898
    vertex 581.4581900559247 873.5314744349554 796.8553765984898
  endloop
endfacet
facet normal -2.0037576030228254e-16 -9.229076843391301e-15 -1.0
  outer loop
    vertex 571.9017641084096 872.0314744349554 796.8553765984898
    vertex 581.4581900559247 873.5314744349554 796.8553765984898
    vertex 574.4545562110918 871.4738750298344 796.8553765984897
  endloop
endfacet
facet normal -2.0037576030228254e-16 -9.229076843391301e-15 -1.0
  outer loop
    vertex 571.9017641084096 872.0314744349554 796.8553765984898
    vertex 574.4545562110918 871.4738750298344 796.8553765984897
    vertex 573.957377839143 871.3144791197432 796.8553765984897
  endloop
endfacet
facet normal -2.0037576030228254e-16 -9.229076843391301e-15 -1.0
  outer loop
    vertex 571.9017641084096 872.0314744349554 796.8553765984898
    vertex 573.957377839143 871.3144791197432 796.8553765984897
    vertex 573.5183951066483 871.0318352621078 796.8553765984897
  endloop
endfacet
facet normal -2.0037576030228254e-16 -9.229076843391301e-15 -1.0
  outer loop
    vertex 571.9017641084096 872.0314744349554 796.8553765984898
    vertex 573.5183951066483 871.0318352621078 796.8553765984897
    vertex 573.1675239613743 870.6452051687352 796.8553765984897
  endloop
endfacet
facet normal -2.0037576030228254e-16 -9.229076843391301e-15 -1.0
  outer loop
    vertex 571.9017641084096 872.0314744349554 796.8553765984898
    vertex 573.1675239613743 870.6452051687352 796.8553765984897
    vertex 572.9286756920287 870.1809370415519 796.8553765984897
  endloop
endfacet
facet normal -2.0037576030228254e-16 -9.229076843391301e-15 -1.0
  outer loop
    vertex 571.9017641084096 872.0314744349554 796.8553765984898
    vertex 572.9286756920287 870.1809370415519 796.8553765984897
    vertex 572.0493019272739 866.8461924102054 796.8553765984898
  endloop
endfacet
facet normal -2.0037576030228254e-16 -9.229076843391301e-15 -1.0
  outer loop
    vertex 572.0493019272739 866.8461924102054 796.8553765984898
    vertex 572.9286756920287 870.1809370415519 796.8553765984897
    vertex 572.8181274134528 869.6706699861865 796.8553765984897
  endloop
endfacet
facet normal -2.0037576030228254e-16 -9.229076843391301e-15 -1.0
  outer loop
    vertex 572.0493019272739 866.8461924102054 796.8553765984898
    vertex 572.8181274134528 869.6706699861865 796.8553765984897
    vertex 572.2621739176518 866.7643814082539 796.8553765984898
  endloop
endfacet
facet normal -2.0037576030228254e-16 -9.229076843391301e-15 -1.0
  outer loop
    vertex 572.2621739176518 866.7643814082539 796.8553765984898
    vertex 572.8181274134528 869.6706699861865 796.8553765984897
    vertex 572.4884055130212 866.7356274592316 796.8553765984898
  endloop
endfacet
facet normal -2.0037576030228254e-16 -9.229076843391301e-15 -1.0
  outer loop
    vertex 572.4884055130212 866.7356274592316 796.8553765984898
    vertex 572.8181274134528 869.6706699861865 796.8553765984897
    vertex 572.7149749236254 866.7615856276235 796.8553765984898
  endloop
endfacet
facet normal -2.0037576030228254e-16 -9.229076843391301e-15 -1.0
  outer loop
    vertex 574.4545562110918 871.4738750298344 796.8553765984897
    vertex 581.4581900559247 873.5314744349554 796.8553765984898
    vertex 574.9760483380725 871.499160424523 796.8553765984897
  endloop
endfacet
facet normal -2.0037576030228254e-16 -9.229076843391301e-15 -1.0
  outer loop
    vertex 574.9760483380725 871.499160424523 796.8553765984897
    vertex 581.4581900559247 873.5314744349554 796.8553765984898
    vertex 575.4863153934378 871.3886121459468 796.8553765984897
  endloop
endfacet
facet normal -2.0037576030228254e-16 -9.229076843391301e-15 -1.0
  outer loop
    vertex 575.4863153934378 871.3886121459468 796.8553765984897
    vertex 581.4581900559247 873.5314744349554 796.8553765984898
    vertex 577.7606238311242 872.0355580257976 796.8553765984898
  endloop
endfacet
facet normal -2.0037576030228254e-16 -9.229076843391301e-15 -1.0
  outer loop
    vertex 575.4863153934378 871.3886121459468 796.8553765984897
    vertex 577.7606238311242 872.0355580257976 796.8553765984898
    vertex 575.9505835206211 871.1497638766015 796.8553765984897
  endloop
endfacet
facet normal -2.0037576030228254e-16 -9.229076843391301e-15 -1.0
  outer loop
    vertex 575.9505835206211 871.1497638766015 796.8553765984897
    vertex 577.7606238311242 872.0355580257976 796.8553765984898
    vertex 576.3372136139939 870.7988927313272 796.8553765984897
  endloop
endfacet
facet normal -2.0037576030228254e-16 -9.229076843391301e-15 -1.0
  outer loop
    vertex 576.3372136139939 870.7988927313272 796.8553765984897
    vertex 577.7606238311242 872.0355580257976 796.8553765984898
    vertex 576.6198574716291 870.3599099988326 796.8553765984897
  endloop
endfacet
facet normal -2.0037576030228254e-16 -9.229076843391301e-15 -1.0
  outer loop
    vertex 576.6198574716291 870.3599099988326 796.8553765984897
    vertex 577.7606238311242 872.0355580257976 796.8553765984898
    vertex 576.7792533817205 869.8627316268839 796.8553765984897
  endloop
endfacet
facet normal -2.0037576030228254e-16 -9.229076843391301e-15 -1.0
  outer loop
    vertex 576.7792533817205 869.8627316268839 796.8553765984897
    vertex 577.7606238311242 872.0355580257976 796.8553765984898
    vertex 576.8045387764091 869.341239499903 796.8553765984897
  endloop
endfacet
facet normal -2.0037576030228254e-16 -9.229076843391301e-15 -1.0
  outer loop
    vertex 576.8045387764091 869.341239499903 796.8553765984897
    vertex 577.7606238311242 872.0355580257976 796.8553765984898
    vertex 576.8806497114441 867.3118681578508 796.8553765984898
  endloop
endfacet
facet normal -2.0037576030228254e-16 -9.229076843391301e-15 -1.0
  outer loop
    vertex 576.8806497114441 867.3118681578508 796.8553765984898
    vertex 577.7606238311242 872.0355580257976 796.8553765984898
    vertex 577.0574202597193 867.2165020880627 796.8553765984898
  endloop
endfacet
facet normal -2.0037576030228254e-16 -9.229076843391301e-15 -1.0
  outer loop
    vertex 577.0574202597193 867.2165020880627 796.8553765984898
    vertex 577.7606238311242 872.0355580257976 796.8553765984898
    vertex 577.2494902671269 867.1577515454371 796.8553765984898
  endloop
endfacet
facet normal -2.0037576030228254e-16 -9.229076843391301e-15 -1.0
  outer loop
    vertex 577.2494902671269 867.1577515454371 796.8553765984898
    vertex 577.7606238311242 872.0355580257976 796.8553765984898
    vertex 577.4493622797614 867.1379098577623 796.8553765984898
  endloop
endfacet
facet normal -2.0037576030228254e-16 -9.229076843391301e-15 -1.0
  outer loop
    vertex 577.4493622797614 867.1379098577623 796.8553765984898
    vertex 577.7606238311242 872.0355580257976 796.8553765984898
    vertex 577.6492342923959 867.1577515454371 796.8553765984898
  endloop
endfacet
facet normal -2.0037576030228254e-16 -9.229076843391301e-15 -1.0
  outer loop
    vertex 577.7606238311242 872.0355580257976 796.8553765984898
    vertex 581.4581900559247 873.5314744349554 796.8553765984898
    vertex 582.9581900559247 872.0314744349554 796.8553765984897
  endloop
endfacet
facet normal -2.0037576030228254e-16 -9.229076843391301e-15 -1.0
  outer loop
    vertex 582.9581900559247 872.0314744349554 796.8553765984897
    vertex 581.4581900559247 873.5314744349554 796.8553765984898
    vertex 582.9581900559247 888.0314744349553 796.8553765984897
  endloop
endfacet
facet normal -2.0037576030228254e-16 -9.229076843391301e-15 -1.0
  outer loop
    vertex 577.7606238311242 872.0355580257976 796.8553765984898
    vertex 577.8413042998036 867.2165020880626 796.8553765984898
    vertex 577.6492342923959 867.1577515454371 796.8553765984898
  endloop
endfacet
facet normal -2.0037576030228254e-16 -9.229076843391301e-15 -1.0
  outer loop
    vertex 577.8413042998036 867.2165020880626 796.8553765984898
    vertex 577.7606238311242 872.0355580257976 796.8553765984898
    vertex 578.3148386923855 871.1860312720501 796.8553765984898
  endloop
endfacet
facet normal -2.0037576030228254e-16 -9.229076843391301e-15 -1.0
  outer loop
    vertex 577.8413042998036 867.2165020880626 796.8553765984898
    vertex 578.3148386923855 871.1860312720501 796.8553765984898
    vertex 578.0180748480788 867.3118681578508 796.8553765984898
  endloop
endfacet
facet normal -2.0037576030228254e-16 -9.229076843391301e-15 -1.0
  outer loop
    vertex 578.0180748480788 867.3118681578508 796.8553765984898
    vertex 578.3148386923855 871.1860312720501 796.8553765984898
    vertex 578.476679167388 868.2165956837317 796.8553765984898
  endloop
endfacet
facet normal -2.0037576030228254e-16 -9.229076843391301e-15 -1.0
  outer loop
    vertex 578.476679167388 868.2165956837317 796.8553765984898
    vertex 578.3148386923855 871.1860312720501 796.8553765984898
    vertex 578.6302954369969 870.2220100793085 796.8553765984898
  endloop
endfacet
facet normal -2.0037576030228254e-16 -9.229076843391301e-15 -1.0
  outer loop
    vertex 578.476679167388 868.2165956837317 796.8553765984898
    vertex 578.6302954369969 870.2220100793085 796.8553765984898
    vertex 578.6854962091302 869.209190898738 796.8553765984898
  endloop
endfacet
facet normal -2.0037576030228254e-16 -9.229076843391301e-15 -1.0
  outer loop
    vertex 572.8181274134528 869.6706699861865 796.8553765984897
    vertex 572.9288409152133 866.8407617728311 796.8553765984898
    vertex 572.7149749236254 866.7615856276235 796.8553765984898
  endloop
endfacet
facet normal -2.0037576030228254e-16 -9.229076843391301e-15 -1.0
  outer loop
    vertex 572.9288409152133 866.8407617728311 796.8553765984898
    vertex 572.8181274134528 869.6706699861865 796.8553765984897
    vertex 572.8434128081414 869.1491778592057 796.8553765984897
  endloop
endfacet
facet normal -2.0037576030228254e-16 -9.229076843391301e-15 -1.0
  outer loop
    vertex 572.9288409152133 866.8407617728311 796.8553765984898
    vertex 572.8434128081414 869.1491778592057 796.8553765984897
    vertex 572.8730694292603 869.000869317995 796.8553765984897
  endloop
endfacet
facet normal -2.0037576030228254e-16 -9.229076843391301e-15 -1.0
  outer loop
    vertex 572.9288409152133 866.8407617728311 796.8553765984898
    vertex 572.8730694292603 869.000869317995 796.8553765984897
    vertex 573.0028087182326 868.6519994872568 796.8553765984898
  endloop
endfacet
facet normal -2.0037576030228254e-16 -9.229076843391301e-15 -1.0
  outer loop
    vertex 572.9288409152133 866.8407617728311 796.8553765984898
    vertex 573.0028087182326 868.6519994872568 796.8553765984898
    vertex 573.1176934566681 866.9685985512399 796.8553765984898
  endloop
endfacet
facet normal -2.0037576030228254e-16 -9.229076843391301e-15 -1.0
  outer loop
    vertex 573.1176934566681 866.9685985512399 796.8553765984898
    vertex 573.0028087182326 868.6519994872568 796.8553765984898
    vertex 573.285452575868 868.2130167547622 796.8553765984898
  endloop
endfacet
facet normal -2.0037576030228254e-16 -9.229076843391301e-15 -1.0
  outer loop
    vertex 573.1176934566681 866.9685985512399 796.8553765984898
    vertex 573.285452575868 868.2130167547622 796.8553765984898
    vertex 573.2706622799096 867.1377377348841 796.8553765984898
  endloop
endfacet
facet normal -2.0037576030228254e-16 -9.229076843391301e-15 -1.0
  outer loop
    vertex 573.2706622799096 867.1377377348841 796.8553765984898
    vertex 573.285452575868 868.2130167547622 796.8553765984898
    vertex 573.3789425676782 867.33844374777 796.8553765984898
  endloop
endfacet
facet normal -2.0037576030228254e-16 -9.229076843391301e-15 -1.0
  outer loop
    vertex 573.3789425676782 867.33844374777 796.8553765984898
    vertex 573.285452575868 868.2130167547622 796.8553765984898
    vertex 573.3881715833794 868.0094084793318 796.8553765984898
  endloop
endfacet
facet normal -2.0037576030228254e-16 -9.229076843391301e-15 -1.0
  outer loop
    vertex 573.3789425676782 867.33844374777 796.8553765984898
    vertex 573.3881715833794 868.0094084793318 796.8553765984898
    vertex 573.4363017548902 867.5591640412869 796.8553765984898
  endloop
endfacet
facet normal -2.0037576030228254e-16 -9.229076843391301e-15 -1.0
  outer loop
    vertex 573.4363017548902 867.5591640412869 796.8553765984898
    vertex 573.3881715833794 868.0094084793318 796.8553765984898
    vertex 573.4394382723053 867.7871940537551 796.8553765984898
  endloop
endfacet
facet normal 0.9744042248694396 0.2248030394736394 0.0
  outer loop
    vertex 573.3881715833794 868.0094084793318 796.8553765984898
    vertex 573.4394382723053 867.7871940537551 802.8553765984897
    vertex 573.4394382723053 867.7871940537551 796.8553765984898
  endloop
endfacet
facet normal 0.9943349284348789 0.10629228614722933 0.0
  outer loop
    vertex 573.4394382723053 867.7871940537551 802.8553765984897
    vertex 573.3881715833794 868.0094084793318 796.8553765984898
    vertex 573.3881715833794 868.0094084793318 802.8553765984897
  endloop
endfacet
facet normal -0.5696252128451046 -0.8219045667783877 -7.256290120103162e-19
  outer loop
    vertex 575.9505835206211 871.1497638766015 802.8553765984897
    vertex 575.4863153934378 871.3886121459468 796.8553765984897
    vertex 575.9505835206211 871.1497638766015 796.8553765984897
  endloop
endfacet
facet normal -0.3374911492535845 -0.9413287014510365 2.0100498805905013e-29
  outer loop
    vertex 575.4863153934378 871.3886121459468 796.8553765984897
    vertex 575.9505835206211 871.1497638766015 802.8553765984897
    vertex 575.4863153934378 871.3886121459468 802.8553765984897
  endloop
endfacet
facet normal -0.9839601433947666 -0.17838844191973469 0.0
  outer loop
    vertex 576.7792533817205 869.8627316268839 802.8553765984897
    vertex 576.8045387764091 869.341239499903 796.8553765984897
    vertex 576.8045387764091 869.341239499903 802.8553765984897
  endloop
endfacet
facet normal -0.9966028407390704 0.0823576215708993 0.0
  outer loop
    vertex 576.8045387764091 869.341239499903 796.8553765984897
    vertex 576.7792533817205 869.8627316268839 802.8553765984897
    vertex 576.7792533817205 869.8627316268839 796.8553765984897
  endloop
endfacet
facet normal 0.9016842578881415 0.43239507290984647 0.0
  outer loop
    vertex 578.3148386923855 871.1860312720501 796.8553765984898
    vertex 578.6302954369969 870.2220100793085 802.8553765984897
    vertex 578.6302954369969 870.2220100793085 796.8553765984898
  endloop
endfacet
facet normal 0.9828721917300117 0.1842885094731715 0.0
  outer loop
    vertex 578.6302954369969 870.2220100793085 802.8553765984897
    vertex 578.3148386923855 871.1860312720501 796.8553765984898
    vertex 578.3148386923855 871.1860312720501 802.8553765984897
  endloop
endfacet
facet normal -0.9588127726826963 0.28403884759046644 8.046941847700576e-29
  outer loop
    vertex 576.6939904978329 868.8309724445377 802.8553765984897
    vertex 576.6401486492056 868.6890739974011 796.8553765984897
    vertex 576.6401486492056 868.6890739974011 802.8553765984897
  endloop
endfacet
facet normal -0.9039705528710364 0.42759471411844274 -5.323348187349701e-19
  outer loop
    vertex 576.6401486492056 868.6890739974011 796.8553765984897
    vertex 576.6939904978329 868.8309724445377 802.8553765984897
    vertex 576.6939904978329 868.8309724445377 796.8553765984897
  endloop
endfacet
facet normal -0.9433365414480708 0.3318375650356547 0.0
  outer loop
    vertex 571.1459870224737 870.7953138023579 802.8553765984897
    vertex 570.9371699807316 869.8027185873516 796.8553765984898
    vertex 570.9371699807316 869.8027185873516 802.8553765984897
  endloop
endfacet
facet normal -0.9970790099785705 0.07637701133295102 0.0
  outer loop
    vertex 570.9371699807316 869.8027185873516 796.8553765984898
    vertex 571.1459870224737 870.7953138023579 802.8553765984897
    vertex 571.1459870224737 870.7953138023579 796.8553765984898
  endloop
endfacet
facet normal -0.4681217772256064 -0.8836639642347873 0.0
  outer loop
    vertex 572.0493019272739 866.8461924102054 802.8553765984897
    vertex 571.8620423587375 866.976351460292 796.8553765984898
    vertex 572.0493019272739 866.8461924102054 796.8553765984898
  endloop
endfacet
facet normal -0.570743901887477 -0.8211281254824109 -0.0
  outer loop
    vertex 571.8620423587375 866.976351460292 796.8553765984898
    vertex 572.0493019272739 866.8461924102054 802.8553765984897
    vertex 571.8620423587375 866.976351460292 802.8553765984897
  endloop
endfacet
facet normal -0.24417534859803106 -0.9697310963030061 0.0
  outer loop
    vertex 572.2621739176518 866.7643814082539 802.8553765984897
    vertex 572.0493019272739 866.8461924102054 796.8553765984898
    vertex 572.2621739176518 866.7643814082539 796.8553765984898
  endloop
endfacet
facet normal -0.4681217772256064 -0.8836639642347873 0.0
  outer loop
    vertex 572.0493019272739 866.8461924102054 796.8553765984898
    vertex 572.2621739176518 866.7643814082539 802.8553765984897
    vertex 572.0493019272739 866.8461924102054 802.8553765984897
  endloop
endfacet
facet normal -0.9042621883491371 -0.42697762789404975 0.0
  outer loop
    vertex 576.6198574716291 870.3599099988326 802.8553765984897
    vertex 576.7792533817205 869.8627316268839 796.8553765984897
    vertex 576.7792533817205 869.8627316268839 802.8553765984897
  endloop
endfacet
facet normal -0.9839601433947666 -0.17838844191973469 0.0
  outer loop
    vertex 576.7792533817205 869.8627316268839 796.8553765984897
    vertex 576.6198574716291 870.3599099988326 802.8553765984897
    vertex 576.6198574716291 870.3599099988326 796.8553765984897
  endloop
endfacet
facet normal -0.9999235163436755 0.01236775900878289 0.0
  outer loop
    vertex 576.4328300894928 868.167092988874 802.8553765984897
    vertex 576.4501982907179 867.9669908659703 796.8553765984898
    vertex 576.4501982907179 867.9669908659703 802.8553765984897
  endloop
endfacet
facet normal -0.9828390865461462 -0.18446498301069852 0.0
  outer loop
    vertex 576.4501982907179 867.9669908659703 796.8553765984898
    vertex 576.4328300894928 868.167092988874 802.8553765984897
    vertex 576.4328300894928 868.167092988874 796.8553765984898
  endloop
endfacet
facet normal 0.8928167614806514 0.4504200599653636 -0.0
  outer loop
    vertex 573.285452575868 868.2130167547622 796.8553765984898
    vertex 573.3881715833794 868.0094084793318 802.8553765984897
    vertex 573.3881715833794 868.0094084793318 796.8553765984898
  endloop
endfacet
facet normal 0.8928167614806514 0.4504200599653636 -0.0
  outer loop
    vertex 573.3881715833794 868.0094084793318 802.8553765984897
    vertex 573.285452575868 868.2130167547622 796.8553765984898
    vertex 573.285452575868 868.2130167547622 802.8553765984897
  endloop
endfacet
facet normal 0.9970790099785709 -0.0763770113329462 0.0
  outer loop
    vertex 578.6854962091302 869.209190898738 796.8553765984898
    vertex 578.476679167388 868.2165956837317 802.8553765984897
    vertex 578.476679167388 868.2165956837317 796.8553765984898
  endloop
endfacet
facet normal 0.9433365414480708 -0.3318375650356547 0.0
  outer loop
    vertex 578.476679167388 868.2165956837317 802.8553765984897
    vertex 578.6854962091302 869.209190898738 796.8553765984898
    vertex 578.6854962091302 869.209190898738 802.8553765984897
  endloop
endfacet
facet normal 0.8375313416632187 0.5463892858867283 0.0
  outer loop
    vertex 577.7606238311242 872.0355580257976 796.8553765984898
    vertex 578.3148386923855 871.1860312720501 802.8553765984897
    vertex 578.3148386923855 871.1860312720501 796.8553765984898
  endloop
endfacet
facet normal 0.9016842578881415 0.43239507290984647 0.0
  outer loop
    vertex 578.3148386923855 871.1860312720501 802.8553765984897
    vertex 577.7606238311242 872.0355580257976 796.8553765984898
    vertex 577.7606238311242 872.0355580257976 802.8553765984897
  endloop
endfacet
facet normal 0.9910352370467453 -0.13360074450279522 0.0
  outer loop
    vertex 573.4363017548902 867.5591640412869 796.8553765984898
    vertex 573.3789425676782 867.33844374777 802.8553765984897
    vertex 573.3789425676782 867.33844374777 796.8553765984898
  endloop
endfacet
facet normal 0.9306919992994117 -0.3658037758690636 0.0
  outer loop
    vertex 573.3789425676782 867.33844374777 802.8553765984897
    vertex 573.4363017548902 867.5591640412869 796.8553765984898
    vertex 573.4363017548902 867.5591640412869 802.8553765984897
  endloop
endfacet
facet normal 0.45717428844406044 -0.8893771247258763 0.0
  outer loop
    vertex 572.9288409152133 866.8407617728311 802.8553765984897
    vertex 572.7149749236254 866.7615856276235 796.8553765984898
    vertex 572.9288409152133 866.8407617728311 796.8553765984898
  endloop
endfacet
facet normal 0.23218214675342064 -0.9726723244386946 0.0
  outer loop
    vertex 572.7149749236254 866.7615856276235 796.8553765984898
    vertex 572.9288409152133 866.8407617728311 802.8553765984897
    vertex 572.7149749236254 866.7615856276235 802.8553765984897
  endloop
endfacet
facet normal -0.9966028407390704 0.0823576215708993 0.0
  outer loop
    vertex 576.8045387764091 869.341239499903 802.8553765984897
    vertex 576.6939904978329 868.8309724445377 796.8553765984897
    vertex 576.6939904978329 868.8309724445377 802.8553765984897
  endloop
endfacet
facet normal -0.9588127726826963 0.28403884759046644 8.046941847700576e-29
  outer loop
    vertex 576.6939904978329 868.8309724445377 796.8553765984897
    vertex 576.8045387764091 869.341239499903 802.8553765984897
    vertex 576.8045387764091 869.341239499903 796.8553765984897
  endloop
endfacet
facet normal 0.1783884419195291 -0.9839601433948039 -9.491147342839352e-20
  outer loop
    vertex 574.4545562110918 871.4738750298344 802.8553765984897
    vertex 573.957377839143 871.3144791197432 796.8553765984897
    vertex 574.4545562110918 871.4738750298344 796.8553765984897
  endloop
endfacet
facet normal 0.42697762789385324 -0.9042621883492299 2.172557854410426e-28
  outer loop
    vertex 573.957377839143 871.3144791197432 796.8553765984897
    vertex 574.4545562110918 871.4738750298344 802.8553765984897
    vertex 573.957377839143 871.3144791197432 802.8553765984897
  endloop
endfacet
facet normal -0.7629402595315457 -0.6464689941412023 -7.256290118074473e-19
  outer loop
    vertex 576.3372136139939 870.7988927313272 802.8553765984897
    vertex 576.6198574716291 870.3599099988326 796.8553765984897
    vertex 576.6198574716291 870.3599099988326 802.8553765984897
  endloop
endfacet
facet normal -0.9042621883491371 -0.42697762789404975 0.0
  outer loop
    vertex 576.6198574716291 870.3599099988326 796.8553765984897
    vertex 576.3372136139939 870.7988927313272 802.8553765984897
    vertex 576.3372136139939 870.7988927313272 796.8553765984897
  endloop
endfacet
facet normal 0.8167785450514485 -0.5769513050021108 0.0
  outer loop
    vertex 573.2706622799096 867.1377377348841 796.8553765984898
    vertex 573.1176934566681 866.9685985512399 802.8553765984897
    vertex 573.1176934566681 866.9685985512399 796.8553765984898
  endloop
endfacet
facet normal 0.6558516819375179 -0.754889774271535 0.0
  outer loop
    vertex 573.1176934566681 866.9685985512399 802.8553765984897
    vertex 573.2706622799096 867.1377377348841 796.8553765984898
    vertex 573.2706622799096 867.1377377348841 802.8553765984897
  endloop
endfacet
facet normal -0.9970790099785705 0.07637701133295102 0.0
  outer loop
    vertex 570.9371699807316 869.8027185873516 802.8553765984897
    vertex 570.9923707528649 868.7898994067809 796.8553765984898
    vertex 570.9923707528649 868.7898994067809 802.8553765984897
  endloop
endfacet
facet normal -0.9828721917300075 -0.18428850947319392 0.0
  outer loop
    vertex 570.9923707528649 868.7898994067809 796.8553765984898
    vertex 570.9371699807316 869.8027185873516 802.8553765984897
    vertex 570.9371699807316 869.8027185873516 796.8553765984898
  endloop
endfacet
facet normal 0.0 -1.0 0.0
  outer loop
    vertex 571.9017641084096 872.0314744349554 796.8553765984898
    vertex 566.9581900559247 872.0314744349554 802.8553765984897
    vertex 566.9581900559247 872.0314744349554 796.8553765984897
  endloop
endfacet
facet normal 0.0 -1.0 0.0
  outer loop
    vertex 566.9581900559247 872.0314744349554 802.8553765984897
    vertex 571.9017641084096 872.0314744349554 796.8553765984898
    vertex 571.9017641084096 872.0314744349554 802.8553765984897
  endloop
endfacet
facet normal -0.5594206229222111 -0.8288839283333496 0.0
  outer loop
    vertex 576.8806497114441 867.3118681578508 802.8553765984897
    vertex 576.7260788617266 867.4401271396881 796.8553765984898
    vertex 576.8806497114441 867.3118681578508 796.8553765984898
  endloop
endfacet
facet normal -0.7114660072725806 -0.7027205137859661 0.0
  outer loop
    vertex 576.7260788617266 867.4401271396881 796.8553765984898
    vertex 576.8806497114441 867.3118681578508 802.8553765984897
    vertex 576.7260788617266 867.4401271396881 802.8553765984897
  endloop
endfacet
facet normal -0.9938107857898546 0.11108610195587777 0.0
  outer loop
    vertex 576.4551422284877 868.3667043173547 802.8553765984897
    vertex 576.4328300894928 868.167092988874 796.8553765984898
    vertex 576.4328300894928 868.167092988874 802.8553765984897
  endloop
endfacet
facet normal -0.9999235163436755 0.01236775900878289 0.0
  outer loop
    vertex 576.4328300894928 868.167092988874 796.8553765984898
    vertex 576.4551422284877 868.3667043173547 802.8553765984897
    vertex 576.4551422284877 868.3667043173547 796.8553765984898
  endloop
endfacet
facet normal -2.2186873921202716e-14 -1.0 0.0
  outer loop
    vertex 577.4493622797614 867.1379098577623 802.8553765984897
    vertex 577.2494902671269 867.1577515454371 796.8553765984898
    vertex 577.4493622797614 867.1379098577623 796.8553765984898
  endloop
endfacet
facet normal -0.1966063914214072 -0.980482496963741 0.0
  outer loop
    vertex 577.2494902671269 867.1577515454371 796.8553765984898
    vertex 577.4493622797614 867.1379098577623 802.8553765984897
    vertex 577.2494902671269 867.1577515454371 802.8553765984897
  endloop
endfacet
facet normal 0.8219045667783731 -0.5696252128451256 0.0
  outer loop
    vertex 573.1675239613743 870.6452051687352 796.8553765984897
    vertex 572.9286756920287 870.1809370415519 802.8553765984897
    vertex 572.9286756920287 870.1809370415519 796.8553765984897
  endloop
endfacet
facet normal 0.9413287014510417 -0.33749114925357016 0.0
  outer loop
    vertex 572.9286756920287 870.1809370415519 802.8553765984897
    vertex 573.1675239613743 870.6452051687352 796.8553765984897
    vertex 573.1675239613743 870.6452051687352 802.8553765984897
  endloop
endfacet
facet normal 0.9433365414480708 -0.3318375650356547 0.0
  outer loop
    vertex 578.476679167388 868.2165956837317 796.8553765984898
    vertex 578.0180748480788 867.3118681578508 802.8553765984897
    vertex 578.0180748480788 867.3118681578508 796.8553765984898
  endloop
endfacet
facet normal 0.8919526727651752 -0.45212877540260626 0.0
  outer loop
    vertex 578.0180748480788 867.3118681578508 802.8553765984897
    vertex 578.476679167388 868.2165956837317 796.8553765984898
    vertex 578.476679167388 868.2165956837317 802.8553765984897
  endloop
endfacet
facet normal 0.0 -1.0 0.0
  outer loop
    vertex 581.4581900559247 886.5314744349553 802.8553765984897
    vertex 568.4581900559247 886.5314744349553 796.8553765984897
    vertex 581.4581900559247 886.5314744349553 796.8553765984897
  endloop
endfacet
facet normal -0.006174295778391629 -0.999980938854157 0.0
  outer loop
    vertex 572.4884055130212 866.7356274592316 802.8553765984897
    vertex 572.2621739176518 866.7643814082539 796.8553765984898
    vertex 572.4884055130212 866.7356274592316 796.8553765984898
  endloop
endfacet
facet normal -0.24417534859803106 -0.9697310963030061 0.0
  outer loop
    vertex 572.2621739176518 866.7643814082539 796.8553765984898
    vertex 572.4884055130212 866.7356274592316 802.8553765984897
    vertex 572.2621739176518 866.7643814082539 802.8553765984897
  endloop
endfacet
facet normal 0.6558516819375179 -0.754889774271535 0.0
  outer loop
    vertex 573.1176934566681 866.9685985512399 802.8553765984897
    vertex 572.9288409152133 866.8407617728311 796.8553765984898
    vertex 573.1176934566681 866.9685985512399 796.8553765984898
  endloop
endfacet
facet normal 0.45717428844406044 -0.8893771247258763 0.0
  outer loop
    vertex 572.9288409152133 866.8407617728311 796.8553765984898
    vertex 573.1176934566681 866.9685985512399 802.8553765984897
    vertex 572.9288409152133 866.8407617728311 802.8553765984897
  endloop
endfacet
facet normal -0.9828390865461462 -0.18446498301069852 0.0
  outer loop
    vertex 576.4501982907179 867.9669908659703 802.8553765984897
    vertex 576.5065688643227 867.7742089362262 796.8553765984898
    vertex 576.5065688643227 867.7742089362262 802.8553765984897
  endloop
endfacet
facet normal -0.9273895270371715 -0.3740971332979864 0.0
  outer loop
    vertex 576.5065688643227 867.7742089362262 796.8553765984898
    vertex 576.4501982907179 867.9669908659703 802.8553765984897
    vertex 576.4501982907179 867.9669908659703 796.8553765984898
  endloop
endfacet
facet normal -0.3855382511595663 -0.9226918537045958 0.0
  outer loop
    vertex 577.0574202597193 867.2165020880627 802.8553765984897
    vertex 576.8806497114441 867.3118681578508 796.8553765984898
    vertex 577.0574202597193 867.2165020880627 796.8553765984898
  endloop
endfacet
facet normal -0.5594206229222111 -0.8288839283333496 0.0
  outer loop
    vertex 576.8806497114441 867.3118681578508 796.8553765984898
    vertex 577.0574202597193 867.2165020880627 802.8553765984897
    vertex 576.8806497114441 867.3118681578508 802.8553765984897
  endloop
endfacet
facet normal 0.19660639142096423 -0.9804824969638299 0.0
  outer loop
    vertex 577.6492342923959 867.1577515454371 802.8553765984897
    vertex 577.4493622797614 867.1379098577623 796.8553765984898
    vertex 577.6492342923959 867.1577515454371 796.8553765984898
  endloop
endfacet
facet normal -2.2186873921202716e-14 -1.0 0.0
  outer loop
    vertex 577.4493622797614 867.1379098577623 796.8553765984898
    vertex 577.6492342923959 867.1577515454371 802.8553765984897
    vertex 577.4493622797614 867.1379098577623 802.8553765984897
  endloop
endfacet
facet normal 0.3855382511595347 -0.922691853704609 0.0
  outer loop
    vertex 577.8413042998036 867.2165020880626 802.8553765984897
    vertex 577.6492342923959 867.1577515454371 796.8553765984898
    vertex 577.8413042998036 867.2165020880626 796.8553765984898
  endloop
endfacet
facet normal 0.19660639142096423 -0.9804824969638299 0.0
  outer loop
    vertex 577.6492342923959 867.1577515454371 796.8553765984898
    vertex 577.8413042998036 867.2165020880626 802.8553765984897
    vertex 577.6492342923959 867.1577515454371 802.8553765984897
  endloop
endfacet
facet normal -0.3374911492535845 -0.9413287014510365 2.0100498805905013e-29
  outer loop
    vertex 575.4863153934378 871.3886121459468 802.8553765984897
    vertex 574.9760483380725 871.499160424523 796.8553765984897
    vertex 575.4863153934378 871.3886121459468 796.8553765984897
  endloop
endfacet
facet normal -0.08235762157089097 -0.996602840739071 -9.491147342267524e-20
  outer loop
    vertex 574.9760483380725 871.499160424523 796.8553765984897
    vertex 575.4863153934378 871.3886121459468 802.8553765984897
    vertex 574.9760483380725 871.499160424523 802.8553765984897
  endloop
endfacet
facet normal 0.9966028407390842 -0.08235762157073094 0.0
  outer loop
    vertex 572.8181274134528 869.6706699861865 796.8553765984897
    vertex 572.8434128081414 869.1491778592057 802.8553765984897
    vertex 572.8434128081414 869.1491778592057 796.8553765984897
  endloop
endfacet
facet normal 0.9924566058131544 0.12259643378921249 0.0
  outer loop
    vertex 572.8434128081414 869.1491778592057 802.8553765984897
    vertex 572.8181274134528 869.6706699861865 796.8553765984897
    vertex 572.8181274134528 869.6706699861865 802.8553765984897
  endloop
endfacet
facet normal 1.0 -0.0 -0.0
  outer loop
    vertex 568.4581900559247 886.5314744349553 796.8553765984897
    vertex 568.4581900559247 873.5314744349554 802.8553765984897
    vertex 568.4581900559247 873.5314744349554 796.8553765984898
  endloop
endfacet
facet normal 1.0 -0.0 -0.0
  outer loop
    vertex 568.4581900559247 873.5314744349554 802.8553765984897
    vertex 568.4581900559247 886.5314744349553 796.8553765984897
    vertex 568.4581900559247 886.5314744349553 802.8553765984897
  endloop
endfacet
facet normal 0.9413287014510417 -0.33749114925357016 0.0
  outer loop
    vertex 572.9286756920287 870.1809370415519 796.8553765984897
    vertex 572.8181274134528 869.6706699861865 802.8553765984897
    vertex 572.8181274134528 869.6706699861865 796.8553765984897
  endloop
endfacet
facet normal 0.9966028407390842 -0.08235762157073094 0.0
  outer loop
    vertex 572.8181274134528 869.6706699861865 802.8553765984897
    vertex 572.9286756920287 870.1809370415519 796.8553765984897
    vertex 572.9286756920287 870.1809370415519 802.8553765984897
  endloop
endfacet
facet normal -0.8357393117087236 -0.549126399715611 0.0
  outer loop
    vertex 576.599741384624 867.5962724434401 802.8553765984897
    vertex 576.7260788617266 867.4401271396881 796.8553765984898
    vertex 576.7260788617266 867.4401271396881 802.8553765984897
  endloop
endfacet
facet normal -0.7114660072725806 -0.7027205137859661 0.0
  outer loop
    vertex 576.7260788617266 867.4401271396881 796.8553765984898
    vertex 576.599741384624 867.5962724434401 802.8553765984897
    vertex 576.599741384624 867.5962724434401 796.8553765984898
  endloop
endfacet
facet normal -0.9273895270371715 -0.3740971332979864 0.0
  outer loop
    vertex 576.5065688643227 867.7742089362262 802.8553765984897
    vertex 576.599741384624 867.5962724434401 796.8553765984898
    vertex 576.599741384624 867.5962724434401 802.8553765984897
  endloop
endfacet
facet normal -0.8357393117087236 -0.549126399715611 0.0
  outer loop
    vertex 576.599741384624 867.5962724434401 796.8553765984898
    vertex 576.5065688643227 867.7742089362262 802.8553765984897
    vertex 576.5065688643227 867.7742089362262 796.8553765984898
  endloop
endfacet
facet normal -0.0 1.0 -0.0
  outer loop
    vertex 566.9581900559247 888.0314744349553 802.8553765984897
    vertex 582.9581900559247 888.0314744349553 796.8553765984897
    vertex 566.9581900559247 888.0314744349553 796.8553765984897
  endloop
endfacet
facet normal -0.0 1.0 -0.0
  outer loop
    vertex 582.9581900559247 888.0314744349553 796.8553765984897
    vertex 566.9581900559247 888.0314744349553 802.8553765984897
    vertex 582.9581900559247 888.0314744349553 802.8553765984897
  endloop
endfacet
facet normal 0.0 -1.0 0.0
  outer loop
    vertex 568.4581900559247 886.5314744349553 802.8553765984897
    vertex 568.4581900559247 886.5314744349553 796.8553765984897
    vertex 581.4581900559247 886.5314744349553 802.8553765984897
  endloop
endfacet
endsolid 3d parts
