solid piezas SET COMPLETO 13mm
facet normal -2.951487639773439e-31 -2.2204460492503136e-16 -1.0
  outer loop
    vertex 1441.597369756624 3078.4915145736823 -1928.6721578185102
    vertex 1440.99430579178 3065.4915328842294 -1928.6721578185102
    vertex 1440.99430579178 3078.4915145736823 -1928.6721578185102
  endloop
endfacet
facet normal -2.951487639773439e-31 -2.2204460492503136e-16 -1.0
  outer loop
    vertex 1440.99430579178 3065.4915328842294 -1928.6721578185102
    vertex 1441.597369756624 3078.4915145736823 -1928.6721578185102
    vertex 1441.597369756624 3065.4915328842294 -1928.6721578185102
  endloop
endfacet
facet normal 3.469446951953614e-16 1.0 -2.2204460492503136e-16
  outer loop
    vertex 1431.3650485896317 3056.4048782211435 -1928.6721578185102
    vertex 1416.50316504471 3056.4048782211435 -1908.6721189085981
    vertex 1431.3650485896317 3056.4048782211435 -1908.6721189085981
  endloop
endfacet
facet normal 3.469446951953614e-16 1.0 -2.2204460492503136e-16
  outer loop
    vertex 1416.50316504471 3056.4048782211435 -1908.6721189085981
    vertex 1431.3650485896317 3056.4048782211435 -1928.6721578185102
    vertex 1416.50316504471 3056.4048782211435 -1928.6721578185102
  endloop
endfacet
facet normal -3.469446951953614e-16 -1.0 2.2204460492503136e-16
  outer loop
    vertex 1416.50316504471 3062.4450134140143 -1928.6721578185102
    vertex 1470.356467046663 3062.4450134140143 -1908.6721189085981
    vertex 1416.50316504471 3062.4450134140143 -1908.6721189085981
  endloop
endfacet
facet normal -3.469446951953614e-16 -1.0 2.2204460492503136e-16
  outer loop
    vertex 1470.356467046663 3062.4450134140143 -1908.6721189085981
    vertex 1416.50316504471 3062.4450134140143 -1928.6721578185102
    vertex 1470.356467046663 3062.4450134140143 -1928.6721578185102
  endloop
endfacet
facet normal -1.0 3.469446951953614e-16 2.1811156620185446e-31
  outer loop
    vertex 1470.356467046663 3056.4048782211435 -1928.6721578185102
    vertex 1470.356467046663 3062.4450134140143 -1908.6721189085981
    vertex 1470.356467046663 3062.4450134140143 -1928.6721578185102
  endloop
endfacet
facet normal -1.0 3.469446951953614e-16 2.1811156620185446e-31
  outer loop
    vertex 1470.356467046663 3062.4450134140143 -1908.6721189085981
    vertex 1470.356467046663 3056.4048782211435 -1928.6721578185102
    vertex 1470.356467046663 3056.4048782211435 -1908.6721189085981
  endloop
endfacet
facet normal 3.469446951953614e-16 1.0 -2.2204460492503136e-16
  outer loop
    vertex 1470.356467046663 3056.4048782211435 -1928.6721578185102
    vertex 1455.494195928499 3056.4048782211435 -1908.6721189085981
    vertex 1470.356467046663 3056.4048782211435 -1908.6721189085981
  endloop
endfacet
facet normal 3.469446951953614e-16 1.0 -2.2204460492503136e-16
  outer loop
    vertex 1455.494195928499 3056.4048782211435 -1908.6721189085981
    vertex 1470.356467046663 3056.4048782211435 -1928.6721578185102
    vertex 1455.494195928499 3056.4048782211435 -1928.6721578185102
  endloop
endfacet
facet normal -1.0 3.469446951953614e-16 2.1811156620185446e-31
  outer loop
    vertex 1453.4943179988115 3053.454670701612 -1928.6721578185102
    vertex 1453.4943179988115 3054.4048065048346 -1908.6721189085981
    vertex 1453.4943179988115 3054.4048065048346 -1928.6721578185102
  endloop
endfacet
facet normal -1.0 3.469446951953614e-16 2.1811156620185446e-31
  outer loop
    vertex 1453.4943179988115 3054.4048065048346 -1908.6721189085981
    vertex 1453.4943179988115 3053.454670701612 -1928.6721578185102
    vertex 1453.4943179988115 3053.454670701612 -1908.6721189085981
  endloop
endfacet
facet normal -3.469446951953614e-16 -1.0 2.2204460492503136e-16
  outer loop
    vertex 1453.4943179988115 3053.454670701612 -1928.6721578185102
    vertex 1474.4294742488114 3053.454670701612 -1908.6721189085981
    vertex 1453.4943179988115 3053.454670701612 -1908.6721189085981
  endloop
endfacet
facet normal -3.469446951953614e-16 -1.0 2.2204460492503136e-16
  outer loop
    vertex 1474.4294742488114 3053.454670701612 -1908.6721189085981
    vertex 1453.4943179988115 3053.454670701612 -1928.6721578185102
    vertex 1474.4294742488114 3053.454670701612 -1928.6721578185102
  endloop
endfacet
facet normal 1.0 -3.469446951953614e-16 -2.1811156620185446e-31
  outer loop
    vertex 1474.4294742488114 3053.454670701612 -1908.6721189085981
    vertex 1474.4294742488114 3065.4915328842294 -1928.6721578185102
    vertex 1474.4294742488114 3065.4915328842294 -1908.6721189085981
  endloop
endfacet
facet normal 1.0 -3.469446951953614e-16 -2.1811156620185446e-31
  outer loop
    vertex 1474.4294742488114 3065.4915328842294 -1928.6721578185102
    vertex 1474.4294742488114 3053.454670701612 -1908.6721189085981
    vertex 1474.4294742488114 3053.454670701612 -1928.6721578185102
  endloop
endfacet
facet normal 3.469446951953614e-16 1.0 -2.2204460492503136e-16
  outer loop
    vertex 1448.6515903376787 3065.4915328842294 -1917.3201375548383
    vertex 1425.91654395096 3065.4915328842294 -1928.6721578185102
    vertex 1438.288269414827 3065.4915328842294 -1910.3302541319867
  endloop
endfacet
facet normal 3.469446951953614e-16 1.0 -2.2204460492503136e-16
  outer loop
    vertex 1425.91654395096 3065.4915328842294 -1928.6721578185102
    vertex 1448.6515903376787 3065.4915328842294 -1917.3201375548383
    vertex 1440.99430579178 3065.4915328842294 -1928.6721578185102
  endloop
endfacet
facet normal 0.8290385110356776 -4.117959719011553e-16 -0.5591915121134678
  outer loop
    vertex 1438.288269414827 3065.4915328842294 -1910.3302541319867
    vertex 1425.91654395096 3078.4915145736823 -1928.6721578185102
    vertex 1438.288269414827 3078.4915145736823 -1910.3302541319867
  endloop
endfacet
facet normal 0.8290385110356776 -4.117959719011553e-16 -0.5591915121134678
  outer loop
    vertex 1425.91654395096 3078.4915145736823 -1928.6721578185102
    vertex 1438.288269414827 3065.4915328842294 -1910.3302541319867
    vertex 1425.91654395096 3065.4915328842294 -1928.6721578185102
  endloop
endfacet
facet normal -3.469446951953614e-16 -1.0 2.2204460492503136e-16
  outer loop
    vertex 1425.91654395096 3078.4915145736823 -1928.6721578185102
    vertex 1448.6515903376787 3078.4915145736823 -1917.3201375548383
    vertex 1438.288269414827 3078.4915145736823 -1910.3302541319867
  endloop
endfacet
facet normal -3.469446951953614e-16 -1.0 2.2204460492503136e-16
  outer loop
    vertex 1448.6515903376787 3078.4915145736823 -1917.3201375548383
    vertex 1425.91654395096 3078.4915145736823 -1928.6721578185102
    vertex 1440.99430579178 3078.4915145736823 -1928.6721578185102
  endloop
endfacet
facet normal -0.8290291019303956 4.117958048442512e-16 0.55920546148306
  outer loop
    vertex 1440.99430579178 3065.4915328842294 -1928.6721578185102
    vertex 1448.6515903376787 3078.4915145736823 -1917.3201375548383
    vertex 1440.99430579178 3078.4915145736823 -1928.6721578185102
  endloop
endfacet
facet normal -0.8290291019303956 4.117958048442512e-16 0.55920546148306
  outer loop
    vertex 1448.6515903376787 3078.4915145736823 -1917.3201375548383
    vertex 1440.99430579178 3065.4915328842294 -1928.6721578185102
    vertex 1448.6515903376787 3065.4915328842294 -1917.3201375548383
  endloop
endfacet
facet normal -0.5591783437414848 9.9184591796704e-18 -0.8290473930304166
  outer loop
    vertex 1448.6515903376787 3078.4915145736823 -1917.3201375548383
    vertex 1438.288269414827 3065.4915328842294 -1910.3302541319867
    vertex 1438.288269414827 3078.4915145736823 -1910.3302541319867
  endloop
endfacet
facet normal -0.5591783437414848 9.9184591796704e-18 -0.8290473930304166
  outer loop
    vertex 1438.288269414827 3065.4915328842294 -1910.3302541319867
    vertex 1448.6515903376787 3078.4915145736823 -1917.3201375548383
    vertex 1448.6515903376787 3065.4915328842294 -1917.3201375548383
  endloop
endfacet
facet normal 0.8290384250624138 -4.1179597037522503e-16 -0.5591916395745137
  outer loop
    vertex 1452.9160587214676 3065.4915328842294 -1918.2655255858442
    vertex 1445.89671973221 3082.4914642196786 -1928.6721578185102
    vertex 1452.9160587214676 3082.4914642196786 -1918.2655255858442
  endloop
endfacet
facet normal 0.8290384250624138 -4.1179597037522503e-16 -0.5591916395745137
  outer loop
    vertex 1445.89671973221 3082.4914642196786 -1928.6721578185102
    vertex 1452.9160587214676 3065.4915328842294 -1918.2655255858442
    vertex 1445.89671973221 3065.4915328842294 -1928.6721578185102
  endloop
endfacet
facet normal -0.5591938499655861 9.926161323071147e-18 -0.8290369341354253
  outer loop
    vertex 1452.9160587214676 3082.4914642196786 -1918.2655255858442
    vertex 1438.693283452913 3065.4915328842294 -1908.6721189085981
    vertex 1438.693283452913 3082.4914642196786 -1908.6721189085981
  endloop
endfacet
facet normal -0.5591938499655861 9.926161323071147e-18 -0.8290369341354253
  outer loop
    vertex 1438.693283452913 3065.4915328842294 -1908.6721189085981
    vertex 1452.9160587214676 3082.4914642196786 -1918.2655255858442
    vertex 1452.9160587214676 3065.4915328842294 -1918.2655255858442
  endloop
endfacet
facet normal 2.951487639773439e-31 2.2204460492503136e-16 1.0
  outer loop
    vertex 1412.429382696077 3053.454670701612 -1908.6721189085981
    vertex 1416.50316504471 3056.4048782211435 -1908.6721189085981
    vertex 1412.429382696077 3065.4915328842294 -1908.6721189085981
  endloop
endfacet
facet normal 2.951487639773439e-31 2.2204460492503136e-16 1.0
  outer loop
    vertex 1416.50316504471 3056.4048782211435 -1908.6721189085981
    vertex 1412.429382696077 3053.454670701612 -1908.6721189085981
    vertex 1433.3649265193192 3053.454670701612 -1908.6721189085981
  endloop
endfacet
facet normal 2.951487639773439e-31 2.2204460492503136e-16 1.0
  outer loop
    vertex 1416.50316504471 3056.4048782211435 -1908.6721189085981
    vertex 1433.3649265193192 3053.454670701612 -1908.6721189085981
    vertex 1431.3650485896317 3056.4048782211435 -1908.6721189085981
  endloop
endfacet
facet normal 2.951487639773439e-31 2.2204460492503136e-16 1.0
  outer loop
    vertex 1431.3650485896317 3056.4048782211435 -1908.6721189085981
    vertex 1433.3649265193192 3053.454670701612 -1908.6721189085981
    vertex 1431.8828464411943 3056.3366653305184 -1908.6721189085981
  endloop
endfacet
facet normal 2.951487639773439e-31 2.2204460492503136e-16 1.0
  outer loop
    vertex 1431.8828464411943 3056.3366653305184 -1908.6721189085981
    vertex 1433.3649265193192 3053.454670701612 -1908.6721189085981
    vertex 1432.3649875544754 3056.137065110792 -1908.6721189085981
  endloop
endfacet
facet normal 2.951487639773439e-31 2.2204460492503136e-16 1.0
  outer loop
    vertex 1432.3649875544754 3056.137065110792 -1908.6721189085981
    vertex 1433.3649265193192 3053.454670701612 -1908.6721189085981
    vertex 1432.779303350374 3055.8190612655767 -1908.6721189085981
  endloop
endfacet
facet normal 2.951487639773439e-31 2.2204460492503136e-16 1.0
  outer loop
    vertex 1432.779303350374 3055.8190612655767 -1908.6721189085981
    vertex 1433.3649265193192 3053.454670701612 -1908.6721189085981
    vertex 1433.0971134089677 3055.4049392562997 -1908.6721189085981
  endloop
endfacet
facet normal 2.951487639773439e-31 2.2204460492503136e-16 1.0
  outer loop
    vertex 1433.0971134089677 3055.4049392562997 -1908.6721189085981
    vertex 1433.3649265193192 3053.454670701612 -1908.6721189085981
    vertex 1433.2971012019364 3054.9224105697763 -1908.6721189085981
  endloop
endfacet
facet normal 2.951487639773439e-31 2.2204460492503136e-16 1.0
  outer loop
    vertex 1433.2971012019364 3054.9224105697763 -1908.6721189085981
    vertex 1433.3649265193192 3053.454670701612 -1908.6721189085981
    vertex 1433.3649265193192 3054.4048065048346 -1908.6721189085981
  endloop
endfacet
facet normal 2.951487639773439e-31 2.2204460492503136e-16 1.0
  outer loop
    vertex 1474.4294742488114 3053.454670701612 -1908.6721189085981
    vertex 1453.4943179988115 3054.4048065048346 -1908.6721189085981
    vertex 1453.4943179988115 3053.454670701612 -1908.6721189085981
  endloop
endfacet
facet normal 2.951487639773439e-31 2.2204460492503136e-16 1.0
  outer loop
    vertex 1453.4943179988115 3054.4048065048346 -1908.6721189085981
    vertex 1474.4294742488114 3053.454670701612 -1908.6721189085981
    vertex 1453.5625308894364 3054.9224105697763 -1908.6721189085981
  endloop
endfacet
facet normal 2.951487639773439e-31 2.2204460492503136e-16 1.0
  outer loop
    vertex 1453.5625308894364 3054.9224105697763 -1908.6721189085981
    vertex 1474.4294742488114 3053.454670701612 -1908.6721189085981
    vertex 1453.762131109163 3055.4049392562997 -1908.6721189085981
  endloop
endfacet
facet normal 2.951487639773439e-31 2.2204460492503136e-16 1.0
  outer loop
    vertex 1453.762131109163 3055.4049392562997 -1908.6721189085981
    vertex 1474.4294742488114 3053.454670701612 -1908.6721189085981
    vertex 1454.0799411677567 3055.8190612655767 -1908.6721189085981
  endloop
endfacet
facet normal 2.951487639773439e-31 2.2204460492503136e-16 1.0
  outer loop
    vertex 1454.0799411677567 3055.8190612655767 -1908.6721189085981
    vertex 1474.4294742488114 3053.454670701612 -1908.6721189085981
    vertex 1454.4942569636553 3056.137065110792 -1908.6721189085981
  endloop
endfacet
facet normal 2.951487639773439e-31 2.2204460492503136e-16 1.0
  outer loop
    vertex 1454.4942569636553 3056.137065110792 -1908.6721189085981
    vertex 1474.4294742488114 3053.454670701612 -1908.6721189085981
    vertex 1454.9767856501787 3056.3366653305184 -1908.6721189085981
  endloop
endfacet
facet normal 2.951487639773439e-31 2.2204460492503136e-16 1.0
  outer loop
    vertex 1454.9767856501787 3056.3366653305184 -1908.6721189085981
    vertex 1474.4294742488114 3053.454670701612 -1908.6721189085981
    vertex 1455.494195928499 3056.4048782211435 -1908.6721189085981
  endloop
endfacet
facet normal 2.951487639773439e-31 2.2204460492503136e-16 1.0
  outer loop
    vertex 1455.494195928499 3056.4048782211435 -1908.6721189085981
    vertex 1474.4294742488114 3053.454670701612 -1908.6721189085981
    vertex 1470.356467046663 3056.4048782211435 -1908.6721189085981
  endloop
endfacet
facet normal 2.951487639773439e-31 2.2204460492503136e-16 1.0
  outer loop
    vertex 1470.356467046663 3056.4048782211435 -1908.6721189085981
    vertex 1474.4294742488114 3053.454670701612 -1908.6721189085981
    vertex 1470.356467046663 3062.4450134140143 -1908.6721189085981
  endloop
endfacet
facet normal 2.951487639773439e-31 2.2204460492503136e-16 1.0
  outer loop
    vertex 1412.429382696077 3065.4915328842294 -1908.6721189085981
    vertex 1416.50316504471 3062.4450134140143 -1908.6721189085981
    vertex 1435.1167575740067 3065.4915328842294 -1908.6721189085981
  endloop
endfacet
facet normal 2.951487639773439e-31 2.2204460492503136e-16 1.0
  outer loop
    vertex 1416.50316504471 3062.4450134140143 -1908.6721189085981
    vertex 1412.429382696077 3065.4915328842294 -1908.6721189085981
    vertex 1416.50316504471 3056.4048782211435 -1908.6721189085981
  endloop
endfacet
facet normal 2.951487639773439e-31 2.2204460492503136e-16 1.0
  outer loop
    vertex 1435.1167575740067 3065.4915328842294 -1908.6721189085981
    vertex 1416.50316504471 3062.4450134140143 -1908.6721189085981
    vertex 1470.356467046663 3062.4450134140143 -1908.6721189085981
  endloop
endfacet
facet normal 2.951487639773439e-31 2.2204460492503136e-16 1.0
  outer loop
    vertex 1435.1167575740067 3065.4915328842294 -1908.6721189085981
    vertex 1470.356467046663 3062.4450134140143 -1908.6721189085981
    vertex 1438.693283452913 3065.4915328842294 -1908.6721189085981
  endloop
endfacet
facet normal 2.951487639773439e-31 2.2204460492503136e-16 1.0
  outer loop
    vertex 1435.1167575740067 3065.4915328842294 -1908.6721189085981
    vertex 1438.693283452913 3065.4915328842294 -1908.6721189085981
    vertex 1435.1167575740067 3082.4914642196786 -1908.6721189085981
  endloop
endfacet
facet normal 2.951487639773439e-31 2.2204460492503136e-16 1.0
  outer loop
    vertex 1438.693283452913 3065.4915328842294 -1908.6721189085981
    vertex 1470.356467046663 3062.4450134140143 -1908.6721189085981
    vertex 1474.4294742488114 3065.4915328842294 -1908.6721189085981
  endloop
endfacet
facet normal 2.951487639773439e-31 2.2204460492503136e-16 1.0
  outer loop
    vertex 1474.4294742488114 3065.4915328842294 -1908.6721189085981
    vertex 1470.356467046663 3062.4450134140143 -1908.6721189085981
    vertex 1474.4294742488114 3053.454670701612 -1908.6721189085981
  endloop
endfacet
facet normal 2.951487639773439e-31 2.2204460492503136e-16 1.0
  outer loop
    vertex 1438.693283452913 3082.4914642196786 -1908.6721189085981
    vertex 1435.1167575740067 3082.4914642196786 -1908.6721189085981
    vertex 1438.693283452913 3065.4915328842294 -1908.6721189085981
  endloop
endfacet
facet normal -3.469446951953614e-16 -1.0 2.2204460492503136e-16
  outer loop
    vertex 1421.6264957331864 3082.4914642196786 -1928.6721578185102
    vertex 1438.693283452913 3082.4914642196786 -1908.6721189085981
    vertex 1435.1167575740067 3082.4914642196786 -1908.6721189085981
  endloop
endfacet
facet normal -3.469446951953614e-16 -1.0 2.2204460492503136e-16
  outer loop
    vertex 1438.693283452913 3082.4914642196786 -1908.6721189085981
    vertex 1421.6264957331864 3082.4914642196786 -1928.6721578185102
    vertex 1452.9160587214676 3082.4914642196786 -1918.2655255858442
  endloop
endfacet
facet normal -3.469446951953614e-16 -1.0 2.2204460492503136e-16
  outer loop
    vertex 1452.9160587214676 3082.4914642196786 -1918.2655255858442
    vertex 1421.6264957331864 3082.4914642196786 -1928.6721578185102
    vertex 1445.89671973221 3082.4914642196786 -1928.6721578185102
  endloop
endfacet
facet normal 0.8290363184928262 -4.117959329830132e-16 -0.559194762689943
  outer loop
    vertex 1435.1167575740067 3065.4915328842294 -1908.6721189085981
    vertex 1421.6264957331864 3082.4914642196786 -1928.6721578185102
    vertex 1435.1167575740067 3082.4914642196786 -1908.6721189085981
  endloop
endfacet
facet normal 0.8290363184928262 -4.117959329830132e-16 -0.559194762689943
  outer loop
    vertex 1421.6264957331864 3082.4914642196786 -1928.6721578185102
    vertex 1435.1167575740067 3065.4915328842294 -1908.6721189085981
    vertex 1421.6264957331864 3065.4915328842294 -1928.6721578185102
  endloop
endfacet
facet normal -0.9914277439737907 0.1306561459673438 -2.901149231234579e-17
  outer loop
    vertex 1453.4943179988115 3054.4048065048346 -1928.6721578185102
    vertex 1453.5625308894364 3054.9224105697763 -1908.6721189085981
    vertex 1453.5625308894364 3054.9224105697763 -1928.6721578185102
  endloop
endfacet
facet normal -0.9914277439737907 0.1306561459673438 -2.901149231234579e-17
  outer loop
    vertex 1453.5625308894364 3054.9224105697763 -1908.6721189085981
    vertex 1453.4943179988115 3054.4048065048346 -1928.6721578185102
    vertex 1453.4943179988115 3054.4048065048346 -1908.6721189085981
  endloop
endfacet
facet normal -0.924062037241538 0.3822425294613595 -8.487489143979196e-17
  outer loop
    vertex 1453.5625308894364 3054.9224105697763 -1928.6721578185102
    vertex 1453.762131109163 3055.4049392562997 -1908.6721189085981
    vertex 1453.762131109163 3055.4049392562997 -1928.6721578185102
  endloop
endfacet
facet normal -0.924062037241538 0.3822425294613595 -8.487489143979196e-17
  outer loop
    vertex 1453.762131109163 3055.4049392562997 -1908.6721189085981
    vertex 1453.5625308894364 3054.9224105697763 -1928.6721578185102
    vertex 1453.5625308894364 3054.9224105697763 -1908.6721189085981
  endloop
endfacet
facet normal -0.7933134957491973 0.6088133519086029 -1.3518372019762958e-16
  outer loop
    vertex 1453.762131109163 3055.4049392562997 -1928.6721578185102
    vertex 1454.0799411677567 3055.8190612655767 -1908.6721189085981
    vertex 1454.0799411677567 3055.8190612655767 -1928.6721578185102
  endloop
endfacet
facet normal -0.7933134957491973 0.6088133519086029 -1.3518372019762958e-16
  outer loop
    vertex 1454.0799411677567 3055.8190612655767 -1908.6721189085981
    vertex 1453.762131109163 3055.4049392562997 -1928.6721578185102
    vertex 1453.762131109163 3055.4049392562997 -1908.6721189085981
  endloop
endfacet
facet normal -0.6088676574900271 0.7932718170101638 -1.7614172720618343e-16
  outer loop
    vertex 1454.4942569636553 3056.137065110792 -1928.6721578185102
    vertex 1454.0799411677567 3055.8190612655767 -1908.6721189085981
    vertex 1454.4942569636553 3056.137065110792 -1908.6721189085981
  endloop
endfacet
facet normal -0.6088676574900271 0.7932718170101638 -1.7614172720618343e-16
  outer loop
    vertex 1454.0799411677567 3055.8190612655767 -1908.6721189085981
    vertex 1454.4942569636553 3056.137065110792 -1928.6721578185102
    vertex 1454.0799411677567 3055.8190612655767 -1928.6721578185102
  endloop
endfacet
facet normal -0.38224252946135895 0.9240620372415385 -2.0518298998551693e-16
  outer loop
    vertex 1454.9767856501787 3056.3366653305184 -1928.6721578185102
    vertex 1454.4942569636553 3056.137065110792 -1908.6721189085981
    vertex 1454.9767856501787 3056.3366653305184 -1908.6721189085981
  endloop
endfacet
facet normal -0.38224252946135895 0.9240620372415385 -2.0518298998551693e-16
  outer loop
    vertex 1454.4942569636553 3056.137065110792 -1908.6721189085981
    vertex 1454.9767856501787 3056.3366653305184 -1928.6721578185102
    vertex 1454.4942569636553 3056.137065110792 -1928.6721578185102
  endloop
endfacet
facet normal -0.13070424502328903 0.9914214040118825 -2.2013977396803832e-16
  outer loop
    vertex 1455.494195928499 3056.4048782211435 -1928.6721578185102
    vertex 1454.9767856501787 3056.3366653305184 -1908.6721189085981
    vertex 1455.494195928499 3056.4048782211435 -1908.6721189085981
  endloop
endfacet
facet normal -0.13070424502328903 0.9914214040118825 -2.2013977396803832e-16
  outer loop
    vertex 1454.9767856501787 3056.3366653305184 -1908.6721189085981
    vertex 1455.494195928499 3056.4048782211435 -1928.6721578185102
    vertex 1454.9767856501787 3056.3366653305184 -1928.6721578185102
  endloop
endfacet
facet normal 3.469446951953614e-16 1.0 -2.2204460492503136e-16
  outer loop
    vertex 1474.4294742488114 3065.4915328842294 -1928.6721578185102
    vertex 1438.693283452913 3065.4915328842294 -1908.6721189085981
    vertex 1474.4294742488114 3065.4915328842294 -1908.6721189085981
  endloop
endfacet
facet normal 3.469446951953614e-16 1.0 -2.2204460492503136e-16
  outer loop
    vertex 1438.693283452913 3065.4915328842294 -1908.6721189085981
    vertex 1474.4294742488114 3065.4915328842294 -1928.6721578185102
    vertex 1452.9160587214676 3065.4915328842294 -1918.2655255858442
  endloop
endfacet
facet normal 3.469446951953614e-16 1.0 -2.2204460492503136e-16
  outer loop
    vertex 1452.9160587214676 3065.4915328842294 -1918.2655255858442
    vertex 1474.4294742488114 3065.4915328842294 -1928.6721578185102
    vertex 1445.89671973221 3065.4915328842294 -1928.6721578185102
  endloop
endfacet
facet normal 3.469446951953614e-16 1.0 -2.2204460492503136e-16
  outer loop
    vertex 1421.6264957331864 3065.4915328842294 -1928.6721578185102
    vertex 1412.429382696077 3065.4915328842294 -1908.6721189085981
    vertex 1435.1167575740067 3065.4915328842294 -1908.6721189085981
  endloop
endfacet
facet normal 3.469446951953614e-16 1.0 -2.2204460492503136e-16
  outer loop
    vertex 1412.429382696077 3065.4915328842294 -1908.6721189085981
    vertex 1421.6264957331864 3065.4915328842294 -1928.6721578185102
    vertex 1412.429382696077 3065.4915328842294 -1928.6721578185102
  endloop
endfacet
facet normal -1.0 3.469446951953614e-16 2.1811156620185446e-31
  outer loop
    vertex 1412.429382696077 3053.454670701612 -1928.6721578185102
    vertex 1412.429382696077 3065.4915328842294 -1908.6721189085981
    vertex 1412.429382696077 3065.4915328842294 -1928.6721578185102
  endloop
endfacet
facet normal -1.0 3.469446951953614e-16 2.1811156620185446e-31
  outer loop
    vertex 1412.429382696077 3065.4915328842294 -1908.6721189085981
    vertex 1412.429382696077 3053.454670701612 -1928.6721578185102
    vertex 1412.429382696077 3053.454670701612 -1908.6721189085981
  endloop
endfacet
facet normal -3.469446951953614e-16 -1.0 2.2204460492503136e-16
  outer loop
    vertex 1412.429382696077 3053.454670701612 -1928.6721578185102
    vertex 1433.3649265193192 3053.454670701612 -1908.6721189085981
    vertex 1412.429382696077 3053.454670701612 -1908.6721189085981
  endloop
endfacet
facet normal -3.469446951953614e-16 -1.0 2.2204460492503136e-16
  outer loop
    vertex 1433.3649265193192 3053.454670701612 -1908.6721189085981
    vertex 1412.429382696077 3053.454670701612 -1928.6721578185102
    vertex 1433.3649265193192 3053.454670701612 -1928.6721578185102
  endloop
endfacet
facet normal 1.0 -3.469446951953614e-16 -2.1811156620185446e-31
  outer loop
    vertex 1433.3649265193192 3053.454670701612 -1908.6721189085981
    vertex 1433.3649265193192 3054.4048065048346 -1928.6721578185102
    vertex 1433.3649265193192 3054.4048065048346 -1908.6721189085981
  endloop
endfacet
facet normal 1.0 -3.469446951953614e-16 -2.1811156620185446e-31
  outer loop
    vertex 1433.3649265193192 3054.4048065048346 -1928.6721578185102
    vertex 1433.3649265193192 3053.454670701612 -1908.6721189085981
    vertex 1433.3649265193192 3053.454670701612 -1928.6721578185102
  endloop
endfacet
facet normal -2.951487639773439e-31 -2.2204460492503136e-16 -1.0
  outer loop
    vertex 1421.6264957331864 3082.4914642196786 -1928.6721578185102
    vertex 1425.91654395096 3078.4915145736823 -1928.6721578185102
    vertex 1421.6264957331864 3065.4915328842294 -1928.6721578185102
  endloop
endfacet
facet normal -2.951487639773439e-31 -2.2204460492503136e-16 -1.0
  outer loop
    vertex 1425.91654395096 3078.4915145736823 -1928.6721578185102
    vertex 1421.6264957331864 3082.4914642196786 -1928.6721578185102
    vertex 1445.89671973221 3082.4914642196786 -1928.6721578185102
  endloop
endfacet
facet normal -2.951487639773439e-31 -2.2204460492503136e-16 -1.0
  outer loop
    vertex 1425.91654395096 3078.4915145736823 -1928.6721578185102
    vertex 1445.89671973221 3082.4914642196786 -1928.6721578185102
    vertex 1440.99430579178 3078.4915145736823 -1928.6721578185102
  endloop
endfacet
facet normal -2.951487639773439e-31 -2.2204460492503136e-16 -1.0
  outer loop
    vertex 1440.99430579178 3078.4915145736823 -1928.6721578185102
    vertex 1445.89671973221 3082.4914642196786 -1928.6721578185102
    vertex 1441.597369756624 3078.4915145736823 -1928.6721578185102
  endloop
endfacet
facet normal -2.951487639773439e-31 -2.2204460492503136e-16 -1.0
  outer loop
    vertex 1441.597369756624 3078.4915145736823 -1928.6721578185102
    vertex 1445.89671973221 3082.4914642196786 -1928.6721578185102
    vertex 1441.597369756624 3065.4915328842294 -1928.6721578185102
  endloop
endfacet
facet normal -2.951487639773439e-31 -2.2204460492503136e-16 -1.0
  outer loop
    vertex 1412.429382696077 3065.4915328842294 -1928.6721578185102
    vertex 1416.50316504471 3062.4450134140143 -1928.6721578185102
    vertex 1412.429382696077 3053.454670701612 -1928.6721578185102
  endloop
endfacet
facet normal -2.951487639773439e-31 -2.2204460492503136e-16 -1.0
  outer loop
    vertex 1416.50316504471 3062.4450134140143 -1928.6721578185102
    vertex 1412.429382696077 3065.4915328842294 -1928.6721578185102
    vertex 1421.6264957331864 3065.4915328842294 -1928.6721578185102
  endloop
endfacet
facet normal -2.951487639773439e-31 -2.2204460492503136e-16 -1.0
  outer loop
    vertex 1416.50316504471 3062.4450134140143 -1928.6721578185102
    vertex 1421.6264957331864 3065.4915328842294 -1928.6721578185102
    vertex 1470.356467046663 3062.4450134140143 -1928.6721578185102
  endloop
endfacet
facet normal -2.951487639773439e-31 -2.2204460492503136e-16 -1.0
  outer loop
    vertex 1470.356467046663 3062.4450134140143 -1928.6721578185102
    vertex 1421.6264957331864 3065.4915328842294 -1928.6721578185102
    vertex 1425.91654395096 3065.4915328842294 -1928.6721578185102
  endloop
endfacet
facet normal -2.951487639773439e-31 -2.2204460492503136e-16 -1.0
  outer loop
    vertex 1425.91654395096 3065.4915328842294 -1928.6721578185102
    vertex 1421.6264957331864 3065.4915328842294 -1928.6721578185102
    vertex 1425.91654395096 3078.4915145736823 -1928.6721578185102
  endloop
endfacet
facet normal -2.951487639773439e-31 -2.2204460492503136e-16 -1.0
  outer loop
    vertex 1470.356467046663 3062.4450134140143 -1928.6721578185102
    vertex 1425.91654395096 3065.4915328842294 -1928.6721578185102
    vertex 1440.99430579178 3065.4915328842294 -1928.6721578185102
  endloop
endfacet
facet normal -2.951487639773439e-31 -2.2204460492503136e-16 -1.0
  outer loop
    vertex 1470.356467046663 3062.4450134140143 -1928.6721578185102
    vertex 1440.99430579178 3065.4915328842294 -1928.6721578185102
    vertex 1441.597369756624 3065.4915328842294 -1928.6721578185102
  endloop
endfacet
facet normal -2.951487639773439e-31 -2.2204460492503136e-16 -1.0
  outer loop
    vertex 1470.356467046663 3062.4450134140143 -1928.6721578185102
    vertex 1441.597369756624 3065.4915328842294 -1928.6721578185102
    vertex 1445.89671973221 3065.4915328842294 -1928.6721578185102
  endloop
endfacet
facet normal -2.951487639773439e-31 -2.2204460492503136e-16 -1.0
  outer loop
    vertex 1445.89671973221 3065.4915328842294 -1928.6721578185102
    vertex 1441.597369756624 3065.4915328842294 -1928.6721578185102
    vertex 1445.89671973221 3082.4914642196786 -1928.6721578185102
  endloop
endfacet
facet normal -2.951487639773439e-31 -2.2204460492503136e-16 -1.0
  outer loop
    vertex 1470.356467046663 3062.4450134140143 -1928.6721578185102
    vertex 1445.89671973221 3065.4915328842294 -1928.6721578185102
    vertex 1474.4294742488114 3065.4915328842294 -1928.6721578185102
  endloop
endfacet
facet normal -2.951487639773439e-31 -2.2204460492503136e-16 -1.0
  outer loop
    vertex 1470.356467046663 3062.4450134140143 -1928.6721578185102
    vertex 1474.4294742488114 3065.4915328842294 -1928.6721578185102
    vertex 1470.356467046663 3056.4048782211435 -1928.6721578185102
  endloop
endfacet
facet normal -2.951487639773439e-31 -2.2204460492503136e-16 -1.0
  outer loop
    vertex 1453.5625308894364 3054.9224105697763 -1928.6721578185102
    vertex 1453.4943179988115 3053.454670701612 -1928.6721578185102
    vertex 1453.4943179988115 3054.4048065048346 -1928.6721578185102
  endloop
endfacet
facet normal -2.951487639773439e-31 -2.2204460492503136e-16 -1.0
  outer loop
    vertex 1453.4943179988115 3053.454670701612 -1928.6721578185102
    vertex 1453.5625308894364 3054.9224105697763 -1928.6721578185102
    vertex 1474.4294742488114 3053.454670701612 -1928.6721578185102
  endloop
endfacet
facet normal -2.951487639773439e-31 -2.2204460492503136e-16 -1.0
  outer loop
    vertex 1474.4294742488114 3053.454670701612 -1928.6721578185102
    vertex 1453.5625308894364 3054.9224105697763 -1928.6721578185102
    vertex 1453.762131109163 3055.4049392562997 -1928.6721578185102
  endloop
endfacet
facet normal -2.951487639773439e-31 -2.2204460492503136e-16 -1.0
  outer loop
    vertex 1474.4294742488114 3053.454670701612 -1928.6721578185102
    vertex 1453.762131109163 3055.4049392562997 -1928.6721578185102
    vertex 1454.0799411677567 3055.8190612655767 -1928.6721578185102
  endloop
endfacet
facet normal -2.951487639773439e-31 -2.2204460492503136e-16 -1.0
  outer loop
    vertex 1474.4294742488114 3053.454670701612 -1928.6721578185102
    vertex 1454.0799411677567 3055.8190612655767 -1928.6721578185102
    vertex 1454.4942569636553 3056.137065110792 -1928.6721578185102
  endloop
endfacet
facet normal -2.951487639773439e-31 -2.2204460492503136e-16 -1.0
  outer loop
    vertex 1474.4294742488114 3053.454670701612 -1928.6721578185102
    vertex 1454.4942569636553 3056.137065110792 -1928.6721578185102
    vertex 1454.9767856501787 3056.3366653305184 -1928.6721578185102
  endloop
endfacet
facet normal -2.951487639773439e-31 -2.2204460492503136e-16 -1.0
  outer loop
    vertex 1474.4294742488114 3053.454670701612 -1928.6721578185102
    vertex 1454.9767856501787 3056.3366653305184 -1928.6721578185102
    vertex 1455.494195928499 3056.4048782211435 -1928.6721578185102
  endloop
endfacet
facet normal -2.951487639773439e-31 -2.2204460492503136e-16 -1.0
  outer loop
    vertex 1474.4294742488114 3053.454670701612 -1928.6721578185102
    vertex 1455.494195928499 3056.4048782211435 -1928.6721578185102
    vertex 1470.356467046663 3056.4048782211435 -1928.6721578185102
  endloop
endfacet
facet normal -2.951487639773439e-31 -2.2204460492503136e-16 -1.0
  outer loop
    vertex 1474.4294742488114 3053.454670701612 -1928.6721578185102
    vertex 1470.356467046663 3056.4048782211435 -1928.6721578185102
    vertex 1474.4294742488114 3065.4915328842294 -1928.6721578185102
  endloop
endfacet
facet normal -2.951487639773439e-31 -2.2204460492503136e-16 -1.0
  outer loop
    vertex 1412.429382696077 3053.454670701612 -1928.6721578185102
    vertex 1416.50316504471 3056.4048782211435 -1928.6721578185102
    vertex 1433.3649265193192 3053.454670701612 -1928.6721578185102
  endloop
endfacet
facet normal -2.951487639773439e-31 -2.2204460492503136e-16 -1.0
  outer loop
    vertex 1416.50316504471 3056.4048782211435 -1928.6721578185102
    vertex 1412.429382696077 3053.454670701612 -1928.6721578185102
    vertex 1416.50316504471 3062.4450134140143 -1928.6721578185102
  endloop
endfacet
facet normal -2.951487639773439e-31 -2.2204460492503136e-16 -1.0
  outer loop
    vertex 1433.3649265193192 3053.454670701612 -1928.6721578185102
    vertex 1416.50316504471 3056.4048782211435 -1928.6721578185102
    vertex 1431.3650485896317 3056.4048782211435 -1928.6721578185102
  endloop
endfacet
facet normal -2.951487639773439e-31 -2.2204460492503136e-16 -1.0
  outer loop
    vertex 1433.3649265193192 3053.454670701612 -1928.6721578185102
    vertex 1431.3650485896317 3056.4048782211435 -1928.6721578185102
    vertex 1431.8828464411943 3056.3366653305184 -1928.6721578185102
  endloop
endfacet
facet normal -2.951487639773439e-31 -2.2204460492503136e-16 -1.0
  outer loop
    vertex 1433.3649265193192 3053.454670701612 -1928.6721578185102
    vertex 1431.8828464411943 3056.3366653305184 -1928.6721578185102
    vertex 1432.3649875544754 3056.137065110792 -1928.6721578185102
  endloop
endfacet
facet normal -2.951487639773439e-31 -2.2204460492503136e-16 -1.0
  outer loop
    vertex 1433.3649265193192 3053.454670701612 -1928.6721578185102
    vertex 1432.3649875544754 3056.137065110792 -1928.6721578185102
    vertex 1432.779303350374 3055.8190612655767 -1928.6721578185102
  endloop
endfacet
facet normal -2.951487639773439e-31 -2.2204460492503136e-16 -1.0
  outer loop
    vertex 1433.3649265193192 3053.454670701612 -1928.6721578185102
    vertex 1432.779303350374 3055.8190612655767 -1928.6721578185102
    vertex 1433.0971134089677 3055.4049392562997 -1928.6721578185102
  endloop
endfacet
facet normal -2.951487639773439e-31 -2.2204460492503136e-16 -1.0
  outer loop
    vertex 1433.3649265193192 3053.454670701612 -1928.6721578185102
    vertex 1433.0971134089677 3055.4049392562997 -1928.6721578185102
    vertex 1433.2971012019364 3054.9224105697763 -1928.6721578185102
  endloop
endfacet
facet normal -2.951487639773439e-31 -2.2204460492503136e-16 -1.0
  outer loop
    vertex 1433.3649265193192 3053.454670701612 -1928.6721578185102
    vertex 1433.2971012019364 3054.9224105697763 -1928.6721578185102
    vertex 1433.3649265193192 3054.4048065048346 -1928.6721578185102
  endloop
endfacet
facet normal 0.13060808199212726 0.991434076940236 -2.2014258792340787e-16
  outer loop
    vertex 1431.8828464411943 3056.3366653305184 -1928.6721578185102
    vertex 1431.3650485896317 3056.4048782211435 -1908.6721189085981
    vertex 1431.8828464411943 3056.3366653305184 -1908.6721189085981
  endloop
endfacet
facet normal 0.13060808199212726 0.991434076940236 -2.2014258792340787e-16
  outer loop
    vertex 1431.3650485896317 3056.4048782211435 -1908.6721189085981
    vertex 1431.8828464411943 3056.3366653305184 -1928.6721578185102
    vertex 1431.3650485896317 3056.4048782211435 -1928.6721578185102
  endloop
endfacet
facet normal 0.9915236477156611 0.1299263484464547 -2.8849444710145286e-17
  outer loop
    vertex 1433.3649265193192 3054.4048065048346 -1908.6721189085981
    vertex 1433.2971012019364 3054.9224105697763 -1928.6721578185102
    vertex 1433.2971012019364 3054.9224105697763 -1908.6721189085981
  endloop
endfacet
facet normal 0.9915236477156611 0.1299263484464547 -2.8849444710145286e-17
  outer loop
    vertex 1433.2971012019364 3054.9224105697763 -1928.6721578185102
    vertex 1433.3649265193192 3054.4048065048346 -1908.6721189085981
    vertex 1433.3649265193192 3054.4048065048346 -1928.6721578185102
  endloop
endfacet
facet normal 0.9237997311340614 0.3828760331447191 -8.501555751488264e-17
  outer loop
    vertex 1433.2971012019364 3054.9224105697763 -1908.6721189085981
    vertex 1433.0971134089677 3055.4049392562997 -1928.6721578185102
    vertex 1433.0971134089677 3055.4049392562997 -1908.6721189085981
  endloop
endfacet
facet normal 0.9237997311340614 0.3828760331447191 -8.501555751488264e-17
  outer loop
    vertex 1433.0971134089677 3055.4049392562997 -1928.6721578185102
    vertex 1433.2971012019364 3054.9224105697763 -1908.6721189085981
    vertex 1433.2971012019364 3054.9224105697763 -1928.6721578185102
  endloop
endfacet
facet normal 0.7933134957491977 0.6088133519086024 -1.3518372019762993e-16
  outer loop
    vertex 1433.0971134089677 3055.4049392562997 -1908.6721189085981
    vertex 1432.779303350374 3055.8190612655767 -1928.6721578185102
    vertex 1432.779303350374 3055.8190612655767 -1908.6721189085981
  endloop
endfacet
facet normal 0.7933134957491977 0.6088133519086024 -1.3518372019762993e-16
  outer loop
    vertex 1432.779303350374 3055.8190612655767 -1928.6721578185102
    vertex 1433.0971134089677 3055.4049392562997 -1908.6721189085981
    vertex 1433.0971134089677 3055.4049392562997 -1928.6721578185102
  endloop
endfacet
facet normal 0.6088676574900277 0.7932718170101636 -1.7614172720618373e-16
  outer loop
    vertex 1432.779303350374 3055.8190612655767 -1928.6721578185102
    vertex 1432.3649875544754 3056.137065110792 -1908.6721189085981
    vertex 1432.779303350374 3055.8190612655767 -1908.6721189085981
  endloop
endfacet
facet normal 0.6088676574900277 0.7932718170101636 -1.7614172720618373e-16
  outer loop
    vertex 1432.3649875544754 3056.137065110792 -1908.6721189085981
    vertex 1432.779303350374 3055.8190612655767 -1928.6721578185102
    vertex 1432.3649875544754 3056.137065110792 -1928.6721578185102
  endloop
endfacet
facet normal 0.3825048572863838 0.923953480513128 -2.0515888554964526e-16
  outer loop
    vertex 1432.3649875544754 3056.137065110792 -1928.6721578185102
    vertex 1431.8828464411943 3056.3366653305184 -1908.6721189085981
    vertex 1432.3649875544754 3056.137065110792 -1908.6721189085981
  endloop
endfacet
facet normal 0.3825048572863838 0.923953480513128 -2.0515888554964526e-16
  outer loop
    vertex 1431.8828464411943 3056.3366653305184 -1908.6721189085981
    vertex 1432.3649875544754 3056.137065110792 -1928.6721578185102
    vertex 1431.8828464411943 3056.3366653305184 -1928.6721578185102
  endloop
endfacet
facet normal 1.0 -3.469446951953614e-16 -2.1811156620185446e-31
  outer loop
    vertex 1416.50316504471 3056.4048782211435 -1908.6721189085981
    vertex 1416.50316504471 3062.4450134140143 -1928.6721578185102
    vertex 1416.50316504471 3062.4450134140143 -1908.6721189085981
  endloop
endfacet
facet normal 1.0 -3.469446951953614e-16 -2.1811156620185446e-31
  outer loop
    vertex 1416.50316504471 3062.4450134140143 -1928.6721578185102
    vertex 1416.50316504471 3056.4048782211435 -1908.6721189085981
    vertex 1416.50316504471 3056.4048782211435 -1928.6721578185102
  endloop
endfacet
endsolid piezas SET COMPLETO 13mm
