solid piezas SET COMPLETO 13mm
facet normal -1.9920040576882595e-17 -0.13053131488070158 0.9914441869492783
  outer loop
    vertex 1428.6322081680034 3117.0846941847694 -1911.1339356963135
    vertex 1428.004920875523 3116.178741731156 -1911.2532113615966
    vertex 1428.6322081680034 3116.178741731156 -1911.2532113615966
  endloop
endfacet
facet normal -7.065425393258644e-17 -0.1305313148807015 0.9914441869492783
  outer loop
    vertex 1428.6322081680034 3117.0846941847694 -1911.1339356963135
    vertex 1428.004920875523 3117.0846941847694 -1911.1339356963135
    vertex 1428.004920875523 3116.178741731156 -1911.2532113615966
  endloop
endfacet
facet normal 4.5296671277456944e-17 0.1305587660072179 0.9914405724089935
  outer loop
    vertex 1428.6322081680034 3117.990452851762 -1911.2532113615966
    vertex 1428.004920875523 3117.0846941847694 -1911.1339356963135
    vertex 1428.6322081680034 3117.0846941847694 -1911.1339356963135
  endloop
endfacet
facet normal 4.5296671277456944e-17 0.1305587660072179 0.9914405724089935
  outer loop
    vertex 1428.6322081680034 3117.990452851762 -1911.2532113615966
    vertex 1428.004920875523 3117.990452851762 -1911.2532113615966
    vertex 1428.004920875523 3117.0846941847694 -1911.1339356963135
  endloop
endfacet
facet normal 1.3275024673237365e-16 0.3826265354990454 0.9239030979123286
  outer loop
    vertex 1428.6322081680034 3118.834587373246 -1911.6028024260497
    vertex 1428.004920875523 3117.990452851762 -1911.2532113615966
    vertex 1428.6322081680034 3117.990452851762 -1911.2532113615966
  endloop
endfacet
facet normal 1.3275024673237365e-16 0.3826265354990454 0.9239030979123286
  outer loop
    vertex 1428.6322081680034 3118.834587373246 -1911.6028024260497
    vertex 1428.004920875523 3118.834587373246 -1911.6028024260497
    vertex 1428.004920875523 3117.990452851762 -1911.2532113615966
  endloop
endfacet
facet normal 2.112148717662572e-16 0.6087854193802383 0.7933349312554108
  outer loop
    vertex 1428.6322081680034 3119.5595431227575 -1912.1591153685547
    vertex 1428.004920875523 3118.834587373246 -1911.6028024260497
    vertex 1428.6322081680034 3118.834587373246 -1911.6028024260497
  endloop
endfacet
facet normal 2.112148717662572e-16 0.6087854193802383 0.7933349312554108
  outer loop
    vertex 1428.6322081680034 3119.5595431227575 -1912.1591153685547
    vertex 1428.004920875523 3119.5595431227575 -1912.1591153685547
    vertex 1428.004920875523 3118.834587373246 -1911.6028024260497
  endloop
endfacet
facet normal 2.7528508936771746e-16 0.7934552485741475 0.6086285965267637
  outer loop
    vertex 1428.6322081680034 3120.1155169386757 -1912.8839257781005
    vertex 1428.004920875523 3119.5595431227575 -1912.1591153685547
    vertex 1428.6322081680034 3119.5595431227575 -1912.1591153685547
  endloop
endfacet
facet normal 2.7528508936771746e-16 0.7934552485741475 0.6086285965267637
  outer loop
    vertex 1428.004920875523 3120.1155169386757 -1912.8839257781005
    vertex 1428.004920875523 3119.5595431227575 -1912.1591153685547
    vertex 1428.6322081680034 3120.1155169386757 -1912.8839257781005
  endloop
endfacet
facet normal 3.2051726106199604e-16 0.923828107190155 0.38280756048627834
  outer loop
    vertex 1428.004920875523 3120.46530178975 -1913.728060299585
    vertex 1428.004920875523 3120.1155169386757 -1912.8839257781005
    vertex 1428.6322081680034 3120.1155169386757 -1912.8839257781005
  endloop
endfacet
facet normal 3.2051726106199604e-16 0.923828107190155 0.38280756048627834
  outer loop
    vertex 1428.004920875523 3120.46530178975 -1913.728060299585
    vertex 1428.6322081680034 3120.1155169386757 -1912.8839257781005
    vertex 1428.6322081680034 3120.46530178975 -1913.728060299585
  endloop
endfacet
facet normal -1.0 3.469446951953614e-16 2.1811156620185446e-31
  outer loop
    vertex 1428.6322081680034 3120.1155169386757 -1912.8839257781005
    vertex 1428.6322081680034 3123.584685029496 -1910.3740014616942
    vertex 1428.6322081680034 3120.46530178975 -1913.728060299585
  endloop
endfacet
facet normal -1.0 3.469446951953614e-16 2.1811156620185446e-31
  outer loop
    vertex 1428.6322081680034 3119.5595431227575 -1912.1591153685547
    vertex 1428.6322081680034 3123.584685029496 -1910.3740014616942
    vertex 1428.6322081680034 3120.1155169386757 -1912.8839257781005
  endloop
endfacet
facet normal -1.0 3.469446951953614e-16 2.1811156620185446e-31
  outer loop
    vertex 1428.6322081680034 3118.834587373246 -1911.6028024260497
    vertex 1428.6322081680034 3123.584685029496 -1910.3740014616942
    vertex 1428.6322081680034 3119.5595431227575 -1912.1591153685547
  endloop
endfacet
facet normal -1.0 3.469446951953614e-16 2.1811156620185446e-31
  outer loop
    vertex 1428.6322081680034 3117.990452851762 -1911.2532113615966
    vertex 1428.6322081680034 3123.584685029496 -1910.3740014616942
    vertex 1428.6322081680034 3118.834587373246 -1911.6028024260497
  endloop
endfacet
facet normal -1.0 3.469446951953614e-16 2.1811156620185446e-31
  outer loop
    vertex 1428.6322081680034 3117.0846941847694 -1911.1339356963135
    vertex 1428.6322081680034 3123.584685029496 -1910.3740014616942
    vertex 1428.6322081680034 3117.990452851762 -1911.2532113615966
  endloop
endfacet
facet normal -1.0 3.469446951953614e-16 2.1811156620185446e-31
  outer loop
    vertex 1428.6322081680034 3110.584509553422 -1910.3740014616942
    vertex 1428.6322081680034 3123.584685029496 -1910.3740014616942
    vertex 1428.6322081680034 3117.0846941847694 -1911.1339356963135
  endloop
endfacet
facet normal -1.0 3.469446951953614e-16 2.1811156620185446e-31
  outer loop
    vertex 1428.6322081680034 3110.584509553422 -1910.3740014616942
    vertex 1428.6322081680034 3117.0846941847694 -1911.1339356963135
    vertex 1428.6322081680034 3116.178741731156 -1911.2532113615966
  endloop
endfacet
facet normal -1.0 3.469446951953614e-16 2.1811156620185446e-31
  outer loop
    vertex 1428.6322081680034 3110.584509553422 -1910.3740014616942
    vertex 1428.6322081680034 3116.178741731156 -1911.2532113615966
    vertex 1428.6322081680034 3115.334607209672 -1911.6028024260497
  endloop
endfacet
facet normal -1.0 3.469446951953614e-16 2.1811156620185446e-31
  outer loop
    vertex 1428.6322081680034 3110.584509553422 -1910.3740014616942
    vertex 1428.6322081680034 3115.334607209672 -1911.6028024260497
    vertex 1428.6322081680034 3114.6098452467813 -1912.1591153685547
  endloop
endfacet
facet normal -1.0 3.469446951953614e-16 2.1811156620185446e-31
  outer loop
    vertex 1428.6322081680034 3110.584509553422 -1910.3740014616942
    vertex 1428.6322081680034 3114.6098452467813 -1912.1591153685547
    vertex 1428.6322081680034 3114.053483857621 -1912.8839257781005
  endloop
endfacet
facet normal -1.0 3.469446951953614e-16 2.1811156620185446e-31
  outer loop
    vertex 1428.6322081680034 3110.584509553422 -1910.3740014616942
    vertex 1428.6322081680034 3114.053483857621 -1912.8839257781005
    vertex 1428.6322081680034 3113.703892793168 -1913.728060299585
  endloop
endfacet
facet normal -1.0 3.469446951953614e-16 2.1811156620185446e-31
  outer loop
    vertex 1428.6322081680034 3110.584509553422 -1910.3740014616942
    vertex 1428.6322081680034 3113.703892793168 -1913.728060299585
    vertex 1428.6322081680034 3110.584509553422 -1928.6721578185059
  endloop
endfacet
facet normal -1.0 3.469446951953614e-16 2.1811156620185446e-31
  outer loop
    vertex 1428.6322081680034 3110.584509553422 -1928.6721578185059
    vertex 1428.6322081680034 3113.703892793168 -1913.728060299585
    vertex 1428.6322081680034 3113.584520234574 -1914.633964306543
  endloop
endfacet
facet normal -3.439712244570311e-16 -0.9914295541061496 0.1306424098249937
  outer loop
    vertex 1428.6322081680034 3113.584520234574 -1914.633964306543
    vertex 1428.6322081680034 3113.703892793168 -1913.728060299585
    vertex 1428.004920875523 3113.703892793168 -1913.728060299585
  endloop
endfacet
facet normal -3.439712244570311e-16 -0.9914295541061496 0.1306424098249937
  outer loop
    vertex 1428.6322081680034 3113.584520234574 -1914.633964306543
    vertex 1428.004920875523 3113.703892793168 -1913.728060299585
    vertex 1428.004920875523 3113.584520234574 -1914.633964306543
  endloop
endfacet
facet normal -1.0 3.469446951953614e-16 2.1811156620185446e-31
  outer loop
    vertex 1428.004920875523 3113.584520234574 -1914.633964306543
    vertex 1428.004920875523 3113.703892793168 -1913.728060299585
    vertex 1428.004920875523 3115.698926057328 -1913.8339646880127
  endloop
endfacet
facet normal -1.0 3.469446951953614e-16 2.1811156620185446e-31
  outer loop
    vertex 1428.004920875523 3113.703892793168 -1913.728060299585
    vertex 1428.004920875523 3115.953174104203 -1913.5025411192871
    vertex 1428.004920875523 3115.698926057328 -1913.8339646880127
  endloop
endfacet
facet normal -1.0 3.469446951953614e-16 2.1811156620185446e-31
  outer loop
    vertex 1428.004920875523 3113.703892793168 -1913.728060299585
    vertex 1428.004920875523 3116.284549226273 -1913.2483415190673
    vertex 1428.004920875523 3115.953174104203 -1913.5025411192871
  endloop
endfacet
facet normal -1.0 3.469446951953614e-16 2.1811156620185446e-31
  outer loop
    vertex 1428.004920875523 3113.703892793168 -1913.728060299585
    vertex 1428.004920875523 3116.670378388871 -1913.088467556665
    vertex 1428.004920875523 3116.284549226273 -1913.2483415190673
  endloop
endfacet
facet normal -1.0 3.469446951953614e-16 2.1811156620185446e-31
  outer loop
    vertex 1428.004920875523 3113.703892793168 -1913.728060299585
    vertex 1428.004920875523 3114.053483857621 -1912.8839257781005
    vertex 1428.004920875523 3116.670378388871 -1913.088467556665
  endloop
endfacet
facet normal -1.0 3.469446951953614e-16 2.1811156620185446e-31
  outer loop
    vertex 1428.004920875523 3114.053483857621 -1912.8839257781005
    vertex 1428.004920875523 3117.0846941847694 -1913.033916622827
    vertex 1428.004920875523 3116.670378388871 -1913.088467556665
  endloop
endfacet
facet normal -1.0 3.469446951953614e-16 2.1811156620185446e-31
  outer loop
    vertex 1428.004920875523 3114.053483857621 -1912.8839257781005
    vertex 1428.004920875523 3120.1155169386757 -1912.8839257781005
    vertex 1428.004920875523 3117.0846941847694 -1913.033916622827
  endloop
endfacet
facet normal -1.0 3.469446951953614e-16 2.1811156620185446e-31
  outer loop
    vertex 1428.004920875523 3114.053483857621 -1912.8839257781005
    vertex 1428.004920875523 3114.6098452467813 -1912.1591153685547
    vertex 1428.004920875523 3120.1155169386757 -1912.8839257781005
  endloop
endfacet
facet normal -1.0 3.469446951953614e-16 2.1811156620185446e-31
  outer loop
    vertex 1428.004920875523 3114.6098452467813 -1912.1591153685547
    vertex 1428.004920875523 3119.5595431227575 -1912.1591153685547
    vertex 1428.004920875523 3120.1155169386757 -1912.8839257781005
  endloop
endfacet
facet normal -1.0 3.469446951953614e-16 2.1811156620185446e-31
  outer loop
    vertex 1428.004920875523 3114.6098452467813 -1912.1591153685547
    vertex 1428.004920875523 3115.334607209672 -1911.6028024260497
    vertex 1428.004920875523 3119.5595431227575 -1912.1591153685547
  endloop
endfacet
facet normal -1.0 3.469446951953614e-16 2.1811156620185446e-31
  outer loop
    vertex 1428.004920875523 3115.334607209672 -1911.6028024260497
    vertex 1428.004920875523 3118.834587373246 -1911.6028024260497
    vertex 1428.004920875523 3119.5595431227575 -1912.1591153685547
  endloop
endfacet
facet normal -1.0 3.469446951953614e-16 2.1811156620185446e-31
  outer loop
    vertex 1428.004920875523 3115.334607209672 -1911.6028024260497
    vertex 1428.004920875523 3116.178741731156 -1911.2532113615966
    vertex 1428.004920875523 3118.834587373246 -1911.6028024260497
  endloop
endfacet
facet normal -1.0 3.469446951953614e-16 2.1811156620185446e-31
  outer loop
    vertex 1428.004920875523 3116.178741731156 -1911.2532113615966
    vertex 1428.004920875523 3117.990452851762 -1911.2532113615966
    vertex 1428.004920875523 3118.834587373246 -1911.6028024260497
  endloop
endfacet
facet normal -1.0 3.469446951953614e-16 2.1811156620185446e-31
  outer loop
    vertex 1428.004920875523 3116.178741731156 -1911.2532113615966
    vertex 1428.004920875523 3117.0846941847694 -1911.1339356963135
    vertex 1428.004920875523 3117.990452851762 -1911.2532113615966
  endloop
endfacet
facet normal -1.327502467323731e-16 -0.38262653549904496 0.9239030979123288
  outer loop
    vertex 1428.6322081680034 3116.178741731156 -1911.2532113615966
    vertex 1428.004920875523 3116.178741731156 -1911.2532113615966
    vertex 1428.004920875523 3115.334607209672 -1911.6028024260497
  endloop
endfacet
facet normal -1.327502467323731e-16 -0.38262653549904496 0.9239030979123288
  outer loop
    vertex 1428.6322081680034 3116.178741731156 -1911.2532113615966
    vertex 1428.004920875523 3115.334607209672 -1911.6028024260497
    vertex 1428.6322081680034 3115.334607209672 -1911.6028024260497
  endloop
endfacet
facet normal -2.1125041046243037e-16 -0.6088878526978985 0.7932563159767104
  outer loop
    vertex 1428.6322081680034 3115.334607209672 -1911.6028024260497
    vertex 1428.004920875523 3115.334607209672 -1911.6028024260497
    vertex 1428.004920875523 3114.6098452467813 -1912.1591153685547
  endloop
endfacet
facet normal -2.7467625005816217e-16 -0.6088878526978984 0.7932563159767103
  outer loop
    vertex 1428.6322081680034 3115.334607209672 -1911.6028024260497
    vertex 1428.004920875523 3114.6098452467813 -1912.1591153685547
    vertex 1428.6322081680034 3114.6098452467813 -1912.1591153685547
  endloop
endfacet
facet normal -2.7521400567957533e-16 -0.7932503637924337 0.6088956070979422
  outer loop
    vertex 1428.6322081680034 3114.053483857621 -1912.8839257781005
    vertex 1428.6322081680034 3114.6098452467813 -1912.1591153685547
    vertex 1428.004920875523 3114.6098452467813 -1912.1591153685547
  endloop
endfacet
facet normal -2.7521400567957533e-16 -0.7932503637924337 0.6088956070979422
  outer loop
    vertex 1428.6322081680034 3114.053483857621 -1912.8839257781005
    vertex 1428.004920875523 3114.6098452467813 -1912.1591153685547
    vertex 1428.004920875523 3114.053483857621 -1912.8839257781005
  endloop
endfacet
facet normal -3.2054327869524293e-16 -0.9239030979123286 0.3826265354990454
  outer loop
    vertex 1428.6322081680034 3113.703892793168 -1913.728060299585
    vertex 1428.6322081680034 3114.053483857621 -1912.8839257781005
    vertex 1428.004920875523 3114.053483857621 -1912.8839257781005
  endloop
endfacet
facet normal -3.2054327869524293e-16 -0.9239030979123286 0.3826265354990454
  outer loop
    vertex 1428.6322081680034 3113.703892793168 -1913.728060299585
    vertex 1428.004920875523 3114.053483857621 -1912.8839257781005
    vertex 1428.004920875523 3113.703892793168 -1913.728060299585
  endloop
endfacet
facet normal -1.0 3.469446951953614e-16 2.1811156620185446e-31
  outer loop
    vertex 1428.004920875523 3117.0846941847694 -1913.033916622827
    vertex 1428.004920875523 3120.1155169386757 -1912.8839257781005
    vertex 1428.004920875523 3117.4986224074255 -1913.088467556665
  endloop
endfacet
facet normal -1.0 3.469446951953614e-16 2.1811156620185446e-31
  outer loop
    vertex 1428.004920875523 3117.4986224074255 -1913.088467556665
    vertex 1428.004920875523 3120.1155169386757 -1912.8839257781005
    vertex 1428.004920875523 3120.46530178975 -1913.728060299585
  endloop
endfacet
facet normal -1.0 3.469446951953614e-16 2.1811156620185446e-31
  outer loop
    vertex 1428.004920875523 3117.4986224074255 -1913.088467556665
    vertex 1428.004920875523 3120.46530178975 -1913.728060299585
    vertex 1428.004920875523 3117.8844515700234 -1913.2483415190673
  endloop
endfacet
facet normal -1.0 3.469446951953614e-16 2.1811156620185446e-31
  outer loop
    vertex 1428.004920875523 3117.8844515700234 -1913.2483415190673
    vertex 1428.004920875523 3120.46530178975 -1913.728060299585
    vertex 1428.004920875523 3118.2160204787147 -1913.5025411192871
  endloop
endfacet
facet normal -1.0 3.469446951953614e-16 2.1811156620185446e-31
  outer loop
    vertex 1428.004920875523 3118.2160204787147 -1913.5025411192871
    vertex 1428.004920875523 3120.46530178975 -1913.728060299585
    vertex 1428.004920875523 3118.4702685255897 -1913.8339646880127
  endloop
endfacet
facet normal -1.0 3.469446951953614e-16 2.1811156620185446e-31
  outer loop
    vertex 1428.004920875523 3118.4702685255897 -1913.8339646880127
    vertex 1428.004920875523 3120.46530178975 -1913.728060299585
    vertex 1428.004920875523 3120.5846743483435 -1914.633964306543
  endloop
endfacet
facet normal 3.439712244570312e-16 0.9914295541061496 0.13064240982499326
  outer loop
    vertex 1428.004920875523 3120.5846743483435 -1914.633964306543
    vertex 1428.004920875523 3120.46530178975 -1913.728060299585
    vertex 1428.6322081680034 3120.5846743483435 -1914.633964306543
  endloop
endfacet
facet normal 3.439712244570312e-16 0.9914295541061496 0.13064240982499326
  outer loop
    vertex 1428.6322081680034 3120.5846743483435 -1914.633964306543
    vertex 1428.004920875523 3120.46530178975 -1913.728060299585
    vertex 1428.6322081680034 3120.46530178975 -1913.728060299585
  endloop
endfacet
facet normal -1.0 3.469446951953614e-16 2.1811156620185446e-31
  outer loop
    vertex 1428.6322081680034 3120.46530178975 -1913.728060299585
    vertex 1428.6322081680034 3123.584685029496 -1928.6721578185059
    vertex 1428.6322081680034 3120.5846743483435 -1914.633964306543
  endloop
endfacet
facet normal -1.0 3.469446951953614e-16 2.1811156620185446e-31
  outer loop
    vertex 1428.6322081680034 3120.46530178975 -1913.728060299585
    vertex 1428.6322081680034 3123.584685029496 -1910.3740014616942
    vertex 1428.6322081680034 3123.584685029496 -1928.6721578185059
  endloop
endfacet
facet normal -3.469446951953614e-16 -1.0 2.2204460492503136e-16
  outer loop
    vertex 1428.6322081680034 3123.584685029496 -1928.6721578185059
    vertex 1428.6322081680034 3123.584685029496 -1910.3740014616942
    vertex 1391.1322684402203 3123.584685029496 -1914.264219433496
  endloop
endfacet
facet normal -3.469446951953614e-16 -1.0 2.2204460492503136e-16
  outer loop
    vertex 1428.6322081680034 3123.584685029496 -1928.6721578185059
    vertex 1391.1322684402203 3123.584685029496 -1914.264219433496
    vertex 1390.0970603103374 3123.584685029496 -1914.5086328093505
  endloop
endfacet
facet normal -3.469446951953614e-16 -1.0 2.2204460492503136e-16
  outer loop
    vertex 1428.6322081680034 3123.584685029496 -1928.6721578185059
    vertex 1390.0970603103374 3123.584685029496 -1914.5086328093505
    vertex 1389.1322936172223 3123.584685029496 -1915.0103948180176
  endloop
endfacet
facet normal -3.469446951953614e-16 -1.0 2.2204460492503136e-16
  outer loop
    vertex 1428.6322081680034 3123.584685029496 -1928.6721578185059
    vertex 1389.1322936172223 3123.584685029496 -1915.0103948180176
    vertex 1388.303952705357 3123.584685029496 -1915.7354474608399
  endloop
endfacet
facet normal -3.469446951953614e-16 -1.0 2.2204460492503136e-16
  outer loop
    vertex 1428.6322081680034 3123.584685029496 -1928.6721578185059
    vertex 1388.303952705357 3123.584685029496 -1915.7354474608399
    vertex 1387.668235694859 3123.584685029496 -1916.6343267027833
  endloop
endfacet
facet normal -3.469446951953614e-16 -1.0 2.2204460492503136e-16
  outer loop
    vertex 1428.6322081680034 3123.584685029496 -1928.6721578185059
    vertex 1387.668235694859 3123.584685029496 -1916.6343267027833
    vertex 1387.2686476821636 3123.584685029496 -1917.6456506316163
  endloop
endfacet
facet normal -3.469446951953614e-16 -1.0 2.2204460492503136e-16
  outer loop
    vertex 1428.6322081680034 3123.584685029496 -1928.6721578185059
    vertex 1387.2686476821636 3123.584685029496 -1917.6456506316163
    vertex 1387.1323187942241 3123.584685029496 -1918.7005765501954
  endloop
endfacet
facet normal -3.469446951953614e-16 -1.0 2.2204460492503136e-16
  outer loop
    vertex 1428.6322081680034 3123.584685029496 -1928.6721578185059
    vertex 1387.1323187942241 3123.584685029496 -1918.7005765501954
    vertex 1387.1323187942241 3123.584685029496 -1928.6721578185059
  endloop
endfacet
facet normal 1.0 -3.469446951953614e-16 -2.1811156620185446e-31
  outer loop
    vertex 1387.1323187942241 3110.584509553422 -1928.6721578185059
    vertex 1387.1323187942241 3123.584685029496 -1928.6721578185059
    vertex 1387.1323187942241 3123.584685029496 -1918.7005765501954
  endloop
endfacet
facet normal 1.0 -3.469446951953614e-16 -2.1811156620185446e-31
  outer loop
    vertex 1387.1323187942241 3110.584509553422 -1928.6721578185059
    vertex 1387.1323187942241 3123.584685029496 -1918.7005765501954
    vertex 1387.1323187942241 3122.084582795609 -1918.7005765501954
  endloop
endfacet
facet normal 1.0 -3.469446951953614e-16 -2.1811156620185446e-31
  outer loop
    vertex 1387.1323187942241 3110.584509553422 -1928.6721578185059
    vertex 1387.1323187942241 3122.084582795609 -1918.7005765501954
    vertex 1387.1323187942241 3112.0846117873084 -1918.7005765501954
  endloop
endfacet
facet normal 1.0 -3.469446951953614e-16 -2.1811156620185446e-31
  outer loop
    vertex 1387.1323187942241 3110.584509553422 -1928.6721578185059
    vertex 1387.1323187942241 3112.0846117873084 -1918.7005765501954
    vertex 1387.1323187942241 3110.584509553422 -1918.7005765501954
  endloop
endfacet
facet normal 0.9917368571068326 -3.746977207117339e-16 -0.12828876122194896
  outer loop
    vertex 1387.1323187942241 3110.584509553422 -1918.7005765501954
    vertex 1387.1323187942241 3112.0846117873084 -1918.7005765501954
    vertex 1387.1745642776227 3112.0846117873084 -1918.373997646997
  endloop
endfacet
facet normal 0.991760744183533 -4.09046991309969e-05 -0.12810396021720205
  outer loop
    vertex 1387.1323187942241 3110.584509553422 -1918.7005765501954
    vertex 1387.1745642776227 3112.0846117873084 -1918.373997646997
    vertex 1387.2686476821636 3112.184605683793 -1917.6456506316163
  endloop
endfacet
facet normal 0.9917528606474728 -3.840463986035674e-16 -0.12816498506828874
  outer loop
    vertex 1387.1323187942241 3110.584509553422 -1918.7005765501954
    vertex 1387.2686476821636 3112.184605683793 -1917.6456506316163
    vertex 1387.2686476821636 3110.584509553422 -1917.6456506316163
  endloop
endfacet
facet normal 0.9300354484583827 -4.277436701125875e-16 -0.36746981455735284
  outer loop
    vertex 1387.2686476821636 3110.584509553422 -1917.6456506316163
    vertex 1387.2686476821636 3112.184605683793 -1917.6456506316163
    vertex 1387.668235694859 3112.184605683793 -1916.6343267027833
  endloop
endfacet
facet normal 0.9300354484583827 -3.807874398504861e-16 -0.3674698145573529
  outer loop
    vertex 1387.2686476821636 3110.584509553422 -1917.6456506316163
    vertex 1387.668235694859 3112.184605683793 -1916.6343267027833
    vertex 1387.668235694859 3110.584509553422 -1916.6343267027833
  endloop
endfacet
facet normal 0.8164480217300617 -3.853853067874993e-16 -0.5774189361400168
  outer loop
    vertex 1387.668235694859 3110.584509553422 -1916.6343267027833
    vertex 1387.668235694859 3112.184605683793 -1916.6343267027833
    vertex 1388.303952705357 3112.184605683793 -1915.7354474608399
  endloop
endfacet
facet normal 0.8164480217300617 -4.11475069593434e-16 -0.5774189361400167
  outer loop
    vertex 1387.668235694859 3110.584509553422 -1916.6343267027833
    vertex 1388.303952705357 3112.184605683793 -1915.7354474608399
    vertex 1388.303952705357 3110.584509553422 -1915.7354474608399
  endloop
endfacet
facet normal 0.6586354558899491 -3.672756249476812e-16 -0.7524621826009856
  outer loop
    vertex 1389.1322936172223 3112.184605683793 -1915.0103948180176
    vertex 1388.303952705357 3110.584509553422 -1915.7354474608399
    vertex 1388.303952705357 3112.184605683793 -1915.7354474608399
  endloop
endfacet
facet normal 0.6586354558899491 -3.389610043501034e-16 -0.7524621826009856
  outer loop
    vertex 1389.1322936172223 3110.584509553422 -1915.0103948180176
    vertex 1388.303952705357 3110.584509553422 -1915.7354474608399
    vertex 1389.1322936172223 3112.184605683793 -1915.0103948180176
  endloop
endfacet
facet normal 0.46141305314928277 -3.57079550282034e-16 -0.8871854340460382
  outer loop
    vertex 1390.0970603103374 3110.584509553422 -1914.5086328093505
    vertex 1389.1322936172223 3110.584509553422 -1915.0103948180176
    vertex 1389.1322936172223 3112.184605683793 -1915.0103948180176
  endloop
endfacet
facet normal 0.46141305314928277 -2.832491290560081e-16 -0.8871854340460382
  outer loop
    vertex 1390.0970603103374 3110.584509553422 -1914.5086328093505
    vertex 1389.1322936172223 3112.184605683793 -1915.0103948180176
    vertex 1390.0970603103374 3112.184605683793 -1914.5086328093505
  endloop
endfacet
facet normal -3.469446951953614e-16 -1.0 2.2204460492503136e-16
  outer loop
    vertex 1427.1322997207378 3112.184605683793 -1918.373997646997
    vertex 1390.0970603103374 3112.184605683793 -1914.5086328093505
    vertex 1389.1322936172223 3112.184605683793 -1915.0103948180176
  endloop
endfacet
facet normal -3.469446951953614e-16 -1.0 2.2204460492503136e-16
  outer loop
    vertex 1427.1322997207378 3112.184605683793 -1918.373997646997
    vertex 1389.1322936172223 3112.184605683793 -1915.0103948180176
    vertex 1388.303952705357 3112.184605683793 -1915.7354474608399
  endloop
endfacet
facet normal -3.469446951953614e-16 -1.0 2.2204460492503136e-16
  outer loop
    vertex 1427.1322997207378 3112.184605683793 -1918.373997646997
    vertex 1388.303952705357 3112.184605683793 -1915.7354474608399
    vertex 1387.668235694859 3112.184605683793 -1916.6343267027833
  endloop
endfacet
facet normal -3.469446951953614e-16 -1.0 2.2204460492503136e-16
  outer loop
    vertex 1427.1322997207378 3112.184605683793 -1918.373997646997
    vertex 1387.668235694859 3112.184605683793 -1916.6343267027833
    vertex 1387.2686476821636 3112.184605683793 -1917.6456506316163
  endloop
endfacet
facet normal -3.469446951953614e-16 -1.0 2.2204460492503136e-16
  outer loop
    vertex 1427.1322997207378 3112.184605683793 -1918.373997646997
    vertex 1387.2686476821636 3112.184605683793 -1917.6456506316163
    vertex 1387.1745642776227 3112.184605683793 -1918.373997646997
  endloop
endfacet
facet normal 0.9917600315249124 -3.725319015880477e-16 -0.1281094839178781
  outer loop
    vertex 1387.1745642776227 3112.0846117873084 -1918.373997646997
    vertex 1387.1745642776227 3112.184605683793 -1918.373997646997
    vertex 1387.2686476821636 3112.184605683793 -1917.6456506316163
  endloop
endfacet
facet normal -2.951487639773439e-31 -2.2204460492503136e-16 -1.0
  outer loop
    vertex 1387.1745642776227 3112.0846117873084 -1918.373997646997
    vertex 1387.1323187942241 3112.0846117873084 -1918.373997646997
    vertex 1387.1323187942241 3122.084582795609 -1918.373997646997
  endloop
endfacet
facet normal 1.0 -3.469446951953614e-16 -2.1811156620185446e-31
  outer loop
    vertex 1387.1323187942241 3112.0846117873084 -1918.7005765501954
    vertex 1387.1323187942241 3122.084582795609 -1918.373997646997
    vertex 1387.1323187942241 3112.0846117873084 -1918.373997646997
  endloop
endfacet
facet normal 1.0 -3.469446951953614e-16 -2.1811156620185446e-31
  outer loop
    vertex 1387.1323187942241 3112.0846117873084 -1918.7005765501954
    vertex 1387.1323187942241 3122.084582795609 -1918.7005765501954
    vertex 1387.1323187942241 3122.084582795609 -1918.373997646997
  endloop
endfacet
facet normal -2.951487639773439e-31 -2.2204460492503136e-16 -1.0
  outer loop
    vertex 1389.1322936172223 3114.0846835036173 -1918.373997646997
    vertex 1387.1745642776227 3112.184605683793 -1918.373997646997
    vertex 1387.1323187942241 3122.084582795609 -1918.373997646997
  endloop
endfacet
facet normal -2.951487639773439e-31 -2.2204460492503136e-16 -1.0
  outer loop
    vertex 1389.1322936172223 3114.0846835036173 -1918.373997646997
    vertex 1387.1323187942241 3122.084582795609 -1918.373997646997
    vertex 1389.1322936172223 3117.0846941847694 -1918.373997646997
  endloop
endfacet
facet normal -2.951487639773439e-31 -2.2204460492503136e-16 -1.0
  outer loop
    vertex 1389.1322936172223 3117.0846941847694 -1918.373997646997
    vertex 1387.1323187942241 3122.084582795609 -1918.373997646997
    vertex 1387.1745642776227 3121.984588899125 -1918.373997646997
  endloop
endfacet
facet normal 0.9917600315249122 -3.725319015880476e-16 -0.1281094839178781
  outer loop
    vertex 1387.1745642776227 3121.984588899125 -1918.373997646997
    vertex 1387.1745642776227 3122.084582795609 -1918.373997646997
    vertex 1387.2686476821636 3123.584685029496 -1917.6456506316163
  endloop
endfacet
facet normal 0.9917600315249122 -3.84599315604925e-16 -0.1281094839178781
  outer loop
    vertex 1387.1745642776227 3121.984588899125 -1918.373997646997
    vertex 1387.2686476821636 3123.584685029496 -1917.6456506316163
    vertex 1387.2686476821636 3121.984588899125 -1917.6456506316163
  endloop
endfacet
facet normal 0.9300354484583827 -4.277436701125875e-16 -0.36746981455735284
  outer loop
    vertex 1387.2686476821636 3121.984588899125 -1917.6456506316163
    vertex 1387.2686476821636 3123.584685029496 -1917.6456506316163
    vertex 1387.668235694859 3123.584685029496 -1916.6343267027833
  endloop
endfacet
facet normal 0.9300354484583827 -3.807874398504861e-16 -0.3674698145573529
  outer loop
    vertex 1387.2686476821636 3121.984588899125 -1917.6456506316163
    vertex 1387.668235694859 3123.584685029496 -1916.6343267027833
    vertex 1387.668235694859 3121.984588899125 -1916.6343267027833
  endloop
endfacet
facet normal 0.8164480217300617 -3.853853067874993e-16 -0.5774189361400168
  outer loop
    vertex 1387.668235694859 3121.984588899125 -1916.6343267027833
    vertex 1387.668235694859 3123.584685029496 -1916.6343267027833
    vertex 1388.303952705357 3123.584685029496 -1915.7354474608399
  endloop
endfacet
facet normal 0.8164480217300617 -4.11475069593434e-16 -0.5774189361400167
  outer loop
    vertex 1387.668235694859 3121.984588899125 -1916.6343267027833
    vertex 1388.303952705357 3123.584685029496 -1915.7354474608399
    vertex 1388.303952705357 3121.984588899125 -1915.7354474608399
  endloop
endfacet
facet normal 0.6586354558899491 -3.672756249476812e-16 -0.7524621826009856
  outer loop
    vertex 1389.1322936172223 3123.584685029496 -1915.0103948180176
    vertex 1388.303952705357 3121.984588899125 -1915.7354474608399
    vertex 1388.303952705357 3123.584685029496 -1915.7354474608399
  endloop
endfacet
facet normal 0.6586354558899491 -3.389610043501034e-16 -0.7524621826009856
  outer loop
    vertex 1389.1322936172223 3121.984588899125 -1915.0103948180176
    vertex 1388.303952705357 3121.984588899125 -1915.7354474608399
    vertex 1389.1322936172223 3123.584685029496 -1915.0103948180176
  endloop
endfacet
facet normal 0.46141305314928277 -3.57079550282034e-16 -0.8871854340460382
  outer loop
    vertex 1390.0970603103374 3121.984588899125 -1914.5086328093505
    vertex 1389.1322936172223 3121.984588899125 -1915.0103948180176
    vertex 1389.1322936172223 3123.584685029496 -1915.0103948180176
  endloop
endfacet
facet normal 0.46141305314928277 -2.832491290560081e-16 -0.8871854340460382
  outer loop
    vertex 1390.0970603103374 3121.984588899125 -1914.5086328093505
    vertex 1389.1322936172223 3123.584685029496 -1915.0103948180176
    vertex 1390.0970603103374 3123.584685029496 -1914.5086328093505
  endloop
endfacet
facet normal 0.22978309671807565 -2.841010260844351e-16 -0.9732418653462517
  outer loop
    vertex 1391.1322684402203 3121.984588899125 -1914.264219433496
    vertex 1390.0970603103374 3121.984588899125 -1914.5086328093505
    vertex 1390.0970603103374 3123.584685029496 -1914.5086328093505
  endloop
endfacet
facet normal 0.2297830967180756 -2.95825131939208e-16 -0.9732418653462517
  outer loop
    vertex 1391.1322684402203 3121.984588899125 -1914.264219433496
    vertex 1390.0970603103374 3123.584685029496 -1914.5086328093505
    vertex 1391.1322684402203 3123.584685029496 -1914.264219433496
  endloop
endfacet
facet normal 0.10318393491267515 3.9266947692081016e-16 -0.9946622922258271
  outer loop
    vertex 1427.1322997207378 3121.984588899125 -1910.5296605650879
    vertex 1391.1322684402203 3121.984588899125 -1914.264219433496
    vertex 1391.1322684402203 3123.584685029496 -1914.264219433496
  endloop
endfacet
facet normal 0.10318556490183932 3.706885208825827e-05 -0.9946621224424848
  outer loop
    vertex 1428.6322081680034 3123.584685029496 -1910.3740014616942
    vertex 1427.1322997207378 3121.984588899125 -1910.5296605650879
    vertex 1391.1322684402203 3123.584685029496 -1914.264219433496
  endloop
endfacet
facet normal 0.10322468858657216 -2.542371572109558e-16 -0.9946580636913397
  outer loop
    vertex 1428.6322081680034 3123.584685029496 -1910.3740014616942
    vertex 1427.1322997207378 3112.184605683793 -1910.5296605650879
    vertex 1427.1322997207378 3121.984588899125 -1910.5296605650879
  endloop
endfacet
facet normal 0.10322468858657216 -2.5667171490614456e-16 -0.9946580636913397
  outer loop
    vertex 1428.6322081680034 3110.584509553422 -1910.3740014616942
    vertex 1427.1322997207378 3112.184605683793 -1910.5296605650879
    vertex 1428.6322081680034 3123.584685029496 -1910.3740014616942
  endloop
endfacet
facet normal 0.10318393483575221 -3.8613298540790645e-05 -0.9946622914843132
  outer loop
    vertex 1428.6322081680034 3110.584509553422 -1910.3740014616942
    vertex 1391.1322684402203 3112.184605683793 -1914.264219433496
    vertex 1427.1322997207378 3112.184605683793 -1910.5296605650879
  endloop
endfacet
facet normal 0.10318556497273289 -5.558708119478009e-16 -0.9946621231258673
  outer loop
    vertex 1428.6322081680034 3110.584509553422 -1910.3740014616942
    vertex 1391.1322684402203 3110.584509553422 -1914.264219433496
    vertex 1391.1322684402203 3112.184605683793 -1914.264219433496
  endloop
endfacet
facet normal 3.469446951953614e-16 1.0 -2.2204460492503136e-16
  outer loop
    vertex 1428.6322081680034 3110.584509553422 -1928.6721578185059
    vertex 1391.1322684402203 3110.584509553422 -1914.264219433496
    vertex 1428.6322081680034 3110.584509553422 -1910.3740014616942
  endloop
endfacet
facet normal 3.469446951953614e-16 1.0 -2.2204460492503136e-16
  outer loop
    vertex 1428.6322081680034 3110.584509553422 -1928.6721578185059
    vertex 1390.0970603103374 3110.584509553422 -1914.5086328093505
    vertex 1391.1322684402203 3110.584509553422 -1914.264219433496
  endloop
endfacet
facet normal 3.469446951953614e-16 1.0 -2.2204460492503136e-16
  outer loop
    vertex 1428.6322081680034 3110.584509553422 -1928.6721578185059
    vertex 1389.1322936172223 3110.584509553422 -1915.0103948180176
    vertex 1390.0970603103374 3110.584509553422 -1914.5086328093505
  endloop
endfacet
facet normal 3.469446951953614e-16 1.0 -2.2204460492503136e-16
  outer loop
    vertex 1428.6322081680034 3110.584509553422 -1928.6721578185059
    vertex 1388.303952705357 3110.584509553422 -1915.7354474608399
    vertex 1389.1322936172223 3110.584509553422 -1915.0103948180176
  endloop
endfacet
facet normal 3.469446951953614e-16 1.0 -2.2204460492503136e-16
  outer loop
    vertex 1428.6322081680034 3110.584509553422 -1928.6721578185059
    vertex 1387.668235694859 3110.584509553422 -1916.6343267027833
    vertex 1388.303952705357 3110.584509553422 -1915.7354474608399
  endloop
endfacet
facet normal 3.469446951953614e-16 1.0 -2.2204460492503136e-16
  outer loop
    vertex 1428.6322081680034 3110.584509553422 -1928.6721578185059
    vertex 1387.2686476821636 3110.584509553422 -1917.6456506316163
    vertex 1387.668235694859 3110.584509553422 -1916.6343267027833
  endloop
endfacet
facet normal 3.469446951953614e-16 1.0 -2.2204460492503136e-16
  outer loop
    vertex 1428.6322081680034 3110.584509553422 -1928.6721578185059
    vertex 1387.1323187942241 3110.584509553422 -1918.7005765501954
    vertex 1387.2686476821636 3110.584509553422 -1917.6456506316163
  endloop
endfacet
facet normal 3.469446951953614e-16 1.0 -2.2204460492503136e-16
  outer loop
    vertex 1387.1323187942241 3110.584509553422 -1928.6721578185059
    vertex 1387.1323187942241 3110.584509553422 -1918.7005765501954
    vertex 1428.6322081680034 3110.584509553422 -1928.6721578185059
  endloop
endfacet
facet normal -2.951487639773439e-31 -2.2204460492503136e-16 -1.0
  outer loop
    vertex 1428.6322081680034 3110.584509553422 -1928.6721578185059
    vertex 1387.1323187942241 3110.584509553422 -1928.6721578185059
    vertex 1424.1322890395854 3114.0846835036173 -1928.6721578185059
  endloop
endfacet
facet normal -2.951487639773439e-31 -2.2204460492503136e-16 -1.0
  outer loop
    vertex 1428.6322081680034 3110.584509553422 -1928.6721578185059
    vertex 1424.1322890395854 3114.0846835036173 -1928.6721578185059
    vertex 1428.6322081680034 3123.584685029496 -1928.6721578185059
  endloop
endfacet
facet normal -2.951487639773439e-31 -2.2204460492503136e-16 -1.0
  outer loop
    vertex 1428.6322081680034 3123.584685029496 -1928.6721578185059
    vertex 1424.1322890395854 3114.0846835036173 -1928.6721578185059
    vertex 1424.1322890395854 3120.0845110793007 -1928.6721578185059
  endloop
endfacet
facet normal 1.0 -3.469446951953614e-16 -2.1811156620185446e-31
  outer loop
    vertex 1424.1322890395854 3114.0846835036173 -1928.6721578185059
    vertex 1424.1322890395854 3120.0845110793007 -1928.6721578185059
    vertex 1424.1322890395854 3120.0845110793007 -1918.373997646997
  endloop
endfacet
facet normal 1.0 -3.469446951953614e-16 -2.1811156620185446e-31
  outer loop
    vertex 1424.1322890395854 3114.0846835036173 -1928.6721578185059
    vertex 1424.1322890395854 3120.0845110793007 -1918.373997646997
    vertex 1424.1322890395854 3114.0846835036173 -1918.373997646997
  endloop
endfacet
facet normal -2.951487639773439e-31 -2.2204460492503136e-16 -1.0
  outer loop
    vertex 1427.1322997207378 3121.984588899125 -1918.373997646997
    vertex 1424.1322890395854 3114.0846835036173 -1918.373997646997
    vertex 1424.1322890395854 3120.0845110793007 -1918.373997646997
  endloop
endfacet
facet normal -2.951487639773439e-31 -2.2204460492503136e-16 -1.0
  outer loop
    vertex 1427.1322997207378 3112.184605683793 -1918.373997646997
    vertex 1424.1322890395854 3114.0846835036173 -1918.373997646997
    vertex 1427.1322997207378 3121.984588899125 -1918.373997646997
  endloop
endfacet
facet normal -2.951487639773439e-31 -2.2204460492503136e-16 -1.0
  outer loop
    vertex 1427.1322997207378 3112.184605683793 -1918.373997646997
    vertex 1389.1322936172223 3114.0846835036173 -1918.373997646997
    vertex 1424.1322890395854 3114.0846835036173 -1918.373997646997
  endloop
endfacet
facet normal -2.951487639773439e-31 -2.2204460492503136e-16 -1.0
  outer loop
    vertex 1427.1322997207378 3112.184605683793 -1918.373997646997
    vertex 1387.1745642776227 3112.184605683793 -1918.373997646997
    vertex 1389.1322936172223 3114.0846835036173 -1918.373997646997
  endloop
endfacet
facet normal -3.469446951953614e-16 -1.0 2.2204460492503136e-16
  outer loop
    vertex 1424.1322890395854 3114.0846835036173 -1928.6721578185059
    vertex 1424.1322890395854 3114.0846835036173 -1918.373997646997
    vertex 1389.1322936172223 3114.0846835036173 -1918.373997646997
  endloop
endfacet
facet normal -3.469446951953614e-16 -1.0 2.2204460492503136e-16
  outer loop
    vertex 1424.1322890395854 3114.0846835036173 -1928.6721578185059
    vertex 1389.1322936172223 3114.0846835036173 -1918.373997646997
    vertex 1389.1322936172223 3114.0846835036173 -1928.6721578185059
  endloop
endfacet
facet normal -1.0 3.469446951953614e-16 2.1811156620185446e-31
  outer loop
    vertex 1389.1322936172223 3114.0846835036173 -1918.373997646997
    vertex 1389.1322936172223 3117.0846941847694 -1928.6721578185059
    vertex 1389.1322936172223 3114.0846835036173 -1928.6721578185059
  endloop
endfacet
facet normal -1.0 3.469446951953614e-16 2.1811156620185446e-31
  outer loop
    vertex 1389.1322936172223 3114.0846835036173 -1918.373997646997
    vertex 1389.1322936172223 3117.0846941847694 -1918.373997646997
    vertex 1389.1322936172223 3117.0846941847694 -1928.6721578185059
  endloop
endfacet
facet normal -1.0 3.469446951953614e-16 2.1811156620185446e-31
  outer loop
    vertex 1389.1322936172223 3117.0846941847694 -1918.373997646997
    vertex 1389.1322936172223 3120.0845110793007 -1928.6721578185059
    vertex 1389.1322936172223 3117.0846941847694 -1928.6721578185059
  endloop
endfacet
facet normal -1.0 3.469446951953614e-16 2.1811156620185446e-31
  outer loop
    vertex 1389.1322936172223 3117.0846941847694 -1918.373997646997
    vertex 1389.1322936172223 3120.0845110793007 -1918.373997646997
    vertex 1389.1322936172223 3120.0845110793007 -1928.6721578185059
  endloop
endfacet
facet normal -2.951487639773439e-31 -2.2204460492503136e-16 -1.0
  outer loop
    vertex 1389.1322936172223 3117.0846941847694 -1918.373997646997
    vertex 1387.1745642776227 3121.984588899125 -1918.373997646997
    vertex 1389.1322936172223 3120.0845110793007 -1918.373997646997
  endloop
endfacet
facet normal -2.951487639773439e-31 -2.2204460492503136e-16 -1.0
  outer loop
    vertex 1424.1322890395854 3120.0845110793007 -1918.373997646997
    vertex 1389.1322936172223 3120.0845110793007 -1918.373997646997
    vertex 1387.1745642776227 3121.984588899125 -1918.373997646997
  endloop
endfacet
facet normal -2.951487639773439e-31 -2.2204460492503136e-16 -1.0
  outer loop
    vertex 1427.1322997207378 3121.984588899125 -1918.373997646997
    vertex 1424.1322890395854 3120.0845110793007 -1918.373997646997
    vertex 1387.1745642776227 3121.984588899125 -1918.373997646997
  endloop
endfacet
facet normal 3.469446951953614e-16 1.0 -2.2204460492503136e-16
  outer loop
    vertex 1387.1745642776227 3121.984588899125 -1918.373997646997
    vertex 1387.2686476821636 3121.984588899125 -1917.6456506316163
    vertex 1427.1322997207378 3121.984588899125 -1918.373997646997
  endloop
endfacet
facet normal 3.469446951953614e-16 1.0 -2.2204460492503136e-16
  outer loop
    vertex 1427.1322997207378 3121.984588899125 -1918.373997646997
    vertex 1387.2686476821636 3121.984588899125 -1917.6456506316163
    vertex 1387.668235694859 3121.984588899125 -1916.6343267027833
  endloop
endfacet
facet normal 3.469446951953614e-16 1.0 -2.2204460492503136e-16
  outer loop
    vertex 1427.1322997207378 3121.984588899125 -1918.373997646997
    vertex 1387.668235694859 3121.984588899125 -1916.6343267027833
    vertex 1388.303952705357 3121.984588899125 -1915.7354474608399
  endloop
endfacet
facet normal 3.469446951953614e-16 1.0 -2.2204460492503136e-16
  outer loop
    vertex 1427.1322997207378 3121.984588899125 -1918.373997646997
    vertex 1388.303952705357 3121.984588899125 -1915.7354474608399
    vertex 1389.1322936172223 3121.984588899125 -1915.0103948180176
  endloop
endfacet
facet normal 3.469446951953614e-16 1.0 -2.2204460492503136e-16
  outer loop
    vertex 1427.1322997207378 3121.984588899125 -1918.373997646997
    vertex 1389.1322936172223 3121.984588899125 -1915.0103948180176
    vertex 1390.0970603103374 3121.984588899125 -1914.5086328093505
  endloop
endfacet
facet normal 3.469446951953614e-16 1.0 -2.2204460492503136e-16
  outer loop
    vertex 1427.1322997207378 3121.984588899125 -1918.373997646997
    vertex 1390.0970603103374 3121.984588899125 -1914.5086328093505
    vertex 1391.1322684402203 3121.984588899125 -1914.264219433496
  endloop
endfacet
facet normal 3.469446951953614e-16 1.0 -2.2204460492503136e-16
  outer loop
    vertex 1427.1322997207378 3121.984588899125 -1918.373997646997
    vertex 1391.1322684402203 3121.984588899125 -1914.264219433496
    vertex 1427.1322997207378 3121.984588899125 -1910.5296605650879
  endloop
endfacet
facet normal 1.0 -3.469446951953614e-16 -2.1811156620185446e-31
  outer loop
    vertex 1427.1322997207378 3118.2160204787147 -1913.5025411192871
    vertex 1427.1322997207378 3121.984588899125 -1918.373997646997
    vertex 1427.1322997207378 3121.984588899125 -1910.5296605650879
  endloop
endfacet
facet normal 1.0 -3.469446951953614e-16 -2.1811156620185446e-31
  outer loop
    vertex 1427.1322997207378 3117.8844515700234 -1913.2483415190673
    vertex 1427.1322997207378 3118.2160204787147 -1913.5025411192871
    vertex 1427.1322997207378 3121.984588899125 -1910.5296605650879
  endloop
endfacet
facet normal 1.0 -3.469446951953614e-16 -2.1811156620185446e-31
  outer loop
    vertex 1427.1322997207378 3117.4986224074255 -1913.088467556665
    vertex 1427.1322997207378 3117.8844515700234 -1913.2483415190673
    vertex 1427.1322997207378 3121.984588899125 -1910.5296605650879
  endloop
endfacet
facet normal 1.0 -3.469446951953614e-16 -2.1811156620185446e-31
  outer loop
    vertex 1427.1322997207378 3117.0846941847694 -1913.033916622827
    vertex 1427.1322997207378 3117.4986224074255 -1913.088467556665
    vertex 1427.1322997207378 3121.984588899125 -1910.5296605650879
  endloop
endfacet
facet normal 1.0 -3.469446951953614e-16 -2.1811156620185446e-31
  outer loop
    vertex 1427.1322997207378 3116.670378388871 -1913.088467556665
    vertex 1427.1322997207378 3117.0846941847694 -1913.033916622827
    vertex 1427.1322997207378 3121.984588899125 -1910.5296605650879
  endloop
endfacet
facet normal 1.0 -3.469446951953614e-16 -2.1811156620185446e-31
  outer loop
    vertex 1427.1322997207378 3116.284549226273 -1913.2483415190673
    vertex 1427.1322997207378 3116.670378388871 -1913.088467556665
    vertex 1427.1322997207378 3121.984588899125 -1910.5296605650879
  endloop
endfacet
facet normal 1.0 -3.469446951953614e-16 -2.1811156620185446e-31
  outer loop
    vertex 1427.1322997207378 3112.184605683793 -1910.5296605650879
    vertex 1427.1322997207378 3116.284549226273 -1913.2483415190673
    vertex 1427.1322997207378 3121.984588899125 -1910.5296605650879
  endloop
endfacet
facet normal 1.0 -3.469446951953614e-16 -2.1811156620185446e-31
  outer loop
    vertex 1427.1322997207378 3112.184605683793 -1910.5296605650879
    vertex 1427.1322997207378 3115.953174104203 -1913.5025411192871
    vertex 1427.1322997207378 3116.284549226273 -1913.2483415190673
  endloop
endfacet
facet normal 1.0 -3.469446951953614e-16 -2.1811156620185446e-31
  outer loop
    vertex 1427.1322997207378 3112.184605683793 -1918.373997646997
    vertex 1427.1322997207378 3115.953174104203 -1913.5025411192871
    vertex 1427.1322997207378 3112.184605683793 -1910.5296605650879
  endloop
endfacet
facet normal -3.469446951953614e-16 -1.0 2.2204460492503136e-16
  outer loop
    vertex 1427.1322997207378 3112.184605683793 -1918.373997646997
    vertex 1427.1322997207378 3112.184605683793 -1910.5296605650879
    vertex 1391.1322684402203 3112.184605683793 -1914.264219433496
  endloop
endfacet
facet normal -3.469446951953614e-16 -1.0 2.2204460492503136e-16
  outer loop
    vertex 1427.1322997207378 3112.184605683793 -1918.373997646997
    vertex 1391.1322684402203 3112.184605683793 -1914.264219433496
    vertex 1390.0970603103374 3112.184605683793 -1914.5086328093505
  endloop
endfacet
facet normal 0.2297830967180756 -2.95825131939208e-16 -0.9732418653462517
  outer loop
    vertex 1391.1322684402203 3110.584509553422 -1914.264219433496
    vertex 1390.0970603103374 3112.184605683793 -1914.5086328093505
    vertex 1391.1322684402203 3112.184605683793 -1914.264219433496
  endloop
endfacet
facet normal 0.22978309671807565 -2.841010260844351e-16 -0.9732418653462517
  outer loop
    vertex 1391.1322684402203 3110.584509553422 -1914.264219433496
    vertex 1390.0970603103374 3110.584509553422 -1914.5086328093505
    vertex 1390.0970603103374 3112.184605683793 -1914.5086328093505
  endloop
endfacet
facet normal 1.0 -3.469446951953614e-16 -2.1811156620185446e-31
  outer loop
    vertex 1427.1322997207378 3112.184605683793 -1918.373997646997
    vertex 1427.1322997207378 3115.539052094926 -1914.2198422972656
    vertex 1427.1322997207378 3115.698926057328 -1913.8339646880127
  endloop
endfacet
facet normal 1.0 -3.469446951953614e-16 -2.1811156620185446e-31
  outer loop
    vertex 1427.1322997207378 3112.184605683793 -1918.373997646997
    vertex 1427.1322997207378 3115.4845980543982 -1914.633964306543
    vertex 1427.1322997207378 3115.539052094926 -1914.2198422972656
  endloop
endfacet
facet normal 1.0 -3.469446951953614e-16 -2.1811156620185446e-31
  outer loop
    vertex 1427.1322997207378 3112.184605683793 -1918.373997646997
    vertex 1427.1322997207378 3115.539052094926 -1915.0480863158202
    vertex 1427.1322997207378 3115.4845980543982 -1914.633964306543
  endloop
endfacet
facet normal 1.0 -3.469446951953614e-16 -2.1811156620185446e-31
  outer loop
    vertex 1427.1322997207378 3112.184605683793 -1918.373997646997
    vertex 1427.1322997207378 3115.698926057328 -1915.433915478418
    vertex 1427.1322997207378 3115.539052094926 -1915.0480863158202
  endloop
endfacet
facet normal 1.0 -3.469446951953614e-16 -2.1811156620185446e-31
  outer loop
    vertex 1427.1322997207378 3112.184605683793 -1918.373997646997
    vertex 1427.1322997207378 3115.953174104203 -1915.7652906004882
    vertex 1427.1322997207378 3115.698926057328 -1915.433915478418
  endloop
endfacet
facet normal 1.0 -3.469446951953614e-16 -2.1811156620185446e-31
  outer loop
    vertex 1427.1322997207378 3112.184605683793 -1918.373997646997
    vertex 1427.1322997207378 3116.284549226273 -1916.0195870940186
    vertex 1427.1322997207378 3115.953174104203 -1915.7652906004882
  endloop
endfacet
facet normal 1.0 -3.469446951953614e-16 -2.1811156620185446e-31
  outer loop
    vertex 1427.1322997207378 3112.184605683793 -1918.373997646997
    vertex 1427.1322997207378 3116.670378388871 -1916.1794126097657
    vertex 1427.1322997207378 3116.284549226273 -1916.0195870940186
  endloop
endfacet
facet normal 1.0 -3.469446951953614e-16 -2.1811156620185446e-31
  outer loop
    vertex 1427.1322997207378 3112.184605683793 -1918.373997646997
    vertex 1427.1322997207378 3117.0846941847694 -1916.2339150969483
    vertex 1427.1322997207378 3116.670378388871 -1916.1794126097657
  endloop
endfacet
facet normal 1.0 -3.469446951953614e-16 -2.1811156620185446e-31
  outer loop
    vertex 1427.1322997207378 3112.184605683793 -1918.373997646997
    vertex 1427.1322997207378 3121.984588899125 -1918.373997646997
    vertex 1427.1322997207378 3117.0846941847694 -1916.2339150969483
  endloop
endfacet
facet normal 1.0 -3.469446951953614e-16 -2.1811156620185446e-31
  outer loop
    vertex 1427.1322997207378 3117.0846941847694 -1916.2339150969483
    vertex 1427.1322997207378 3121.984588899125 -1918.373997646997
    vertex 1427.1322997207378 3117.4986224074255 -1916.1794126097657
  endloop
endfacet
facet normal 1.0 -3.469446951953614e-16 -2.1811156620185446e-31
  outer loop
    vertex 1427.1322997207378 3117.4986224074255 -1916.1794126097657
    vertex 1427.1322997207378 3121.984588899125 -1918.373997646997
    vertex 1427.1322997207378 3117.8844515700234 -1916.0195870940186
  endloop
endfacet
facet normal 1.0 -3.469446951953614e-16 -2.1811156620185446e-31
  outer loop
    vertex 1427.1322997207378 3117.8844515700234 -1916.0195870940186
    vertex 1427.1322997207378 3121.984588899125 -1918.373997646997
    vertex 1427.1322997207378 3118.2160204787147 -1915.7652906004882
  endloop
endfacet
facet normal 1.0 -3.469446951953614e-16 -2.1811156620185446e-31
  outer loop
    vertex 1427.1322997207378 3118.2160204787147 -1915.7652906004882
    vertex 1427.1322997207378 3121.984588899125 -1918.373997646997
    vertex 1427.1322997207378 3118.4702685255897 -1915.433915478418
  endloop
endfacet
facet normal 1.0 -3.469446951953614e-16 -2.1811156620185446e-31
  outer loop
    vertex 1427.1322997207378 3118.4702685255897 -1915.433915478418
    vertex 1427.1322997207378 3121.984588899125 -1918.373997646997
    vertex 1427.1322997207378 3118.629948701371 -1915.0480863158202
  endloop
endfacet
facet normal 1.0 -3.469446951953614e-16 -2.1811156620185446e-31
  outer loop
    vertex 1427.1322997207378 3118.629948701371 -1915.0480863158202
    vertex 1427.1322997207378 3121.984588899125 -1918.373997646997
    vertex 1427.1322997207378 3118.6845965285193 -1914.633964306543
  endloop
endfacet
facet normal 1.0 -3.469446951953614e-16 -2.1811156620185446e-31
  outer loop
    vertex 1427.1322997207378 3118.629948701371 -1914.2198422972656
    vertex 1427.1322997207378 3118.6845965285193 -1914.633964306543
    vertex 1427.1322997207378 3121.984588899125 -1918.373997646997
  endloop
endfacet
facet normal 1.0 -3.469446951953614e-16 -2.1811156620185446e-31
  outer loop
    vertex 1427.1322997207378 3118.4702685255897 -1913.8339646880127
    vertex 1427.1322997207378 3118.629948701371 -1914.2198422972656
    vertex 1427.1322997207378 3121.984588899125 -1918.373997646997
  endloop
endfacet
facet normal 3.1446729613167457e-16 0.7934252531167696 0.6086676989265901
  outer loop
    vertex 1427.1322997207378 3118.4702685255897 -1913.8339646880127
    vertex 1427.1322997207378 3118.2160204787147 -1913.5025411192871
    vertex 1428.004920875523 3118.2160204787147 -1913.5025411192871
  endloop
endfacet
facet normal 2.948709893672874e-16 0.7934252531167697 0.6086676989265902
  outer loop
    vertex 1427.1322997207378 3118.4702685255897 -1913.8339646880127
    vertex 1428.004920875523 3118.2160204787147 -1913.5025411192871
    vertex 1428.004920875523 3118.4702685255897 -1913.8339646880127
  endloop
endfacet
facet normal 3.205807768877115e-16 0.9240111790935305 0.38236545465063076
  outer loop
    vertex 1427.1322997207378 3118.629948701371 -1914.2198422972656
    vertex 1427.1322997207378 3118.4702685255897 -1913.8339646880127
    vertex 1428.004920875523 3118.4702685255897 -1913.8339646880127
  endloop
endfacet
facet normal 3.205807768877115e-16 0.9240111790935305 0.38236545465063076
  outer loop
    vertex 1427.1322997207378 3118.629948701371 -1914.2198422972656
    vertex 1428.004920875523 3118.4702685255897 -1913.8339646880127
    vertex 1428.004920875523 3118.629948701371 -1914.2198422972656
  endloop
endfacet
facet normal -1.0 3.469446951953614e-16 2.1811156620185446e-31
  outer loop
    vertex 1428.004920875523 3118.4702685255897 -1913.8339646880127
    vertex 1428.004920875523 3120.5846743483435 -1914.633964306543
    vertex 1428.004920875523 3118.629948701371 -1914.2198422972656
  endloop
endfacet
facet normal -1.0 3.469446951953614e-16 2.1811156620185446e-31
  outer loop
    vertex 1428.004920875523 3118.629948701371 -1914.2198422972656
    vertex 1428.004920875523 3120.5846743483435 -1914.633964306543
    vertex 1428.004920875523 3118.6845965285193 -1914.633964306543
  endloop
endfacet
facet normal -1.0 3.469446951953614e-16 2.1811156620185446e-31
  outer loop
    vertex 1428.004920875523 3118.6845965285193 -1914.633964306543
    vertex 1428.004920875523 3120.5846743483435 -1914.633964306543
    vertex 1428.004920875523 3120.46530178975 -1915.5398198668456
  endloop
endfacet
facet normal 3.18598774442749e-16 0.9914286491113374 -0.13064927753825759
  outer loop
    vertex 1428.004920875523 3120.46530178975 -1915.5398198668456
    vertex 1428.004920875523 3120.5846743483435 -1914.633964306543
    vertex 1428.6322081680034 3120.46530178975 -1915.5398198668456
  endloop
endfacet
facet normal 3.6934304650501467e-16 0.9914286491113374 -0.1306492775382575
  outer loop
    vertex 1428.6322081680034 3120.46530178975 -1915.5398198668456
    vertex 1428.004920875523 3120.5846743483435 -1914.633964306543
    vertex 1428.6322081680034 3120.5846743483435 -1914.633964306543
  endloop
endfacet
facet normal -1.0 3.469446951953614e-16 2.1811156620185446e-31
  outer loop
    vertex 1428.6322081680034 3120.46530178975 -1915.5398198668456
    vertex 1428.6322081680034 3120.5846743483435 -1914.633964306543
    vertex 1428.6322081680034 3123.584685029496 -1928.6721578185059
  endloop
endfacet
facet normal -1.0 3.469446951953614e-16 2.1811156620185446e-31
  outer loop
    vertex 1428.6322081680034 3120.1155169386757 -1916.38395438833
    vertex 1428.6322081680034 3120.46530178975 -1915.5398198668456
    vertex 1428.6322081680034 3123.584685029496 -1928.6721578185059
  endloop
endfacet
facet normal -1.0 3.469446951953614e-16 2.1811156620185446e-31
  outer loop
    vertex 1428.6322081680034 3119.5595431227575 -1917.1088132445311
    vertex 1428.6322081680034 3120.1155169386757 -1916.38395438833
    vertex 1428.6322081680034 3123.584685029496 -1928.6721578185059
  endloop
endfacet
facet normal -1.0 3.469446951953614e-16 2.1811156620185446e-31
  outer loop
    vertex 1428.6322081680034 3118.834587373246 -1917.6650292937256
    vertex 1428.6322081680034 3119.5595431227575 -1917.1088132445311
    vertex 1428.6322081680034 3123.584685029496 -1928.6721578185059
  endloop
endfacet
facet normal -1.0 3.469446951953614e-16 2.1811156620185446e-31
  outer loop
    vertex 1428.6322081680034 3117.990452851762 -1918.014668804834
    vertex 1428.6322081680034 3118.834587373246 -1917.6650292937256
    vertex 1428.6322081680034 3123.584685029496 -1928.6721578185059
  endloop
endfacet
facet normal -1.0 3.469446951953614e-16 2.1811156620185446e-31
  outer loop
    vertex 1428.6322081680034 3117.0846941847694 -1918.133944470117
    vertex 1428.6322081680034 3117.990452851762 -1918.014668804834
    vertex 1428.6322081680034 3123.584685029496 -1928.6721578185059
  endloop
endfacet
facet normal -1.0 3.469446951953614e-16 2.1811156620185446e-31
  outer loop
    vertex 1428.6322081680034 3110.584509553422 -1928.6721578185059
    vertex 1428.6322081680034 3117.0846941847694 -1918.133944470117
    vertex 1428.6322081680034 3123.584685029496 -1928.6721578185059
  endloop
endfacet
facet normal -1.0 3.469446951953614e-16 2.1811156620185446e-31
  outer loop
    vertex 1428.6322081680034 3110.584509553422 -1928.6721578185059
    vertex 1428.6322081680034 3116.178741731156 -1918.014668804834
    vertex 1428.6322081680034 3117.0846941847694 -1918.133944470117
  endloop
endfacet
facet normal -1.0 3.469446951953614e-16 2.1811156620185446e-31
  outer loop
    vertex 1428.6322081680034 3110.584509553422 -1928.6721578185059
    vertex 1428.6322081680034 3115.334607209672 -1917.6650292937256
    vertex 1428.6322081680034 3116.178741731156 -1918.014668804834
  endloop
endfacet
facet normal -1.0 3.469446951953614e-16 2.1811156620185446e-31
  outer loop
    vertex 1428.6322081680034 3110.584509553422 -1928.6721578185059
    vertex 1428.6322081680034 3114.6098452467813 -1917.1088132445311
    vertex 1428.6322081680034 3115.334607209672 -1917.6650292937256
  endloop
endfacet
facet normal -1.0 3.469446951953614e-16 2.1811156620185446e-31
  outer loop
    vertex 1428.6322081680034 3110.584509553422 -1928.6721578185059
    vertex 1428.6322081680034 3114.053483857621 -1916.38395438833
    vertex 1428.6322081680034 3114.6098452467813 -1917.1088132445311
  endloop
endfacet
facet normal -1.0 3.469446951953614e-16 2.1811156620185446e-31
  outer loop
    vertex 1428.6322081680034 3110.584509553422 -1928.6721578185059
    vertex 1428.6322081680034 3113.703892793168 -1915.5398198668456
    vertex 1428.6322081680034 3114.053483857621 -1916.38395438833
  endloop
endfacet
facet normal -1.0 3.469446951953614e-16 2.1811156620185446e-31
  outer loop
    vertex 1428.6322081680034 3110.584509553422 -1928.6721578185059
    vertex 1428.6322081680034 3113.584520234574 -1914.633964306543
    vertex 1428.6322081680034 3113.703892793168 -1915.5398198668456
  endloop
endfacet
facet normal -3.185987744427491e-16 -0.9914286491113374 -0.13064927753825709
  outer loop
    vertex 1428.6322081680034 3113.703892793168 -1915.5398198668456
    vertex 1428.6322081680034 3113.584520234574 -1914.633964306543
    vertex 1428.004920875523 3113.584520234574 -1914.633964306543
  endloop
endfacet
facet normal -3.4397091047388194e-16 -0.9914286491113374 -0.1306492775382571
  outer loop
    vertex 1428.6322081680034 3113.703892793168 -1915.5398198668456
    vertex 1428.004920875523 3113.584520234574 -1914.633964306543
    vertex 1428.004920875523 3113.703892793168 -1915.5398198668456
  endloop
endfacet
facet normal -1.0 3.469446951953614e-16 2.1811156620185446e-31
  outer loop
    vertex 1428.004920875523 3113.584520234574 -1914.633964306543
    vertex 1428.004920875523 3115.539052094926 -1915.0480863158202
    vertex 1428.004920875523 3113.703892793168 -1915.5398198668456
  endloop
endfacet
facet normal -1.0 3.469446951953614e-16 2.1811156620185446e-31
  outer loop
    vertex 1428.004920875523 3113.584520234574 -1914.633964306543
    vertex 1428.004920875523 3115.4845980543982 -1914.633964306543
    vertex 1428.004920875523 3115.539052094926 -1915.0480863158202
  endloop
endfacet
facet normal -1.0 3.469446951953614e-16 2.1811156620185446e-31
  outer loop
    vertex 1428.004920875523 3113.584520234574 -1914.633964306543
    vertex 1428.004920875523 3115.539052094926 -1914.2198422972656
    vertex 1428.004920875523 3115.4845980543982 -1914.633964306543
  endloop
endfacet
facet normal -1.0 3.469446951953614e-16 2.1811156620185446e-31
  outer loop
    vertex 1428.004920875523 3113.584520234574 -1914.633964306543
    vertex 1428.004920875523 3115.698926057328 -1913.8339646880127
    vertex 1428.004920875523 3115.539052094926 -1914.2198422972656
  endloop
endfacet
facet normal -3.205238764806872e-16 -0.9238471748363328 0.3827615413634527
  outer loop
    vertex 1428.004920875523 3115.539052094926 -1914.2198422972656
    vertex 1428.004920875523 3115.698926057328 -1913.8339646880127
    vertex 1427.1322997207378 3115.539052094926 -1914.2198422972656
  endloop
endfacet
facet normal -3.205238764806872e-16 -0.9238471748363328 0.3827615413634527
  outer loop
    vertex 1427.1322997207378 3115.539052094926 -1914.2198422972656
    vertex 1428.004920875523 3115.698926057328 -1913.8339646880127
    vertex 1427.1322997207378 3115.698926057328 -1913.8339646880127
  endloop
endfacet
facet normal -2.7527468260289983e-16 -0.7934252531167693 0.6086676989265907
  outer loop
    vertex 1428.004920875523 3115.698926057328 -1913.8339646880127
    vertex 1427.1322997207378 3115.953174104203 -1913.5025411192871
    vertex 1427.1322997207378 3115.698926057328 -1913.8339646880127
  endloop
endfacet
facet normal -2.9487098936728703e-16 -0.7934252531167693 0.6086676989265906
  outer loop
    vertex 1428.004920875523 3115.698926057328 -1913.8339646880127
    vertex 1428.004920875523 3115.953174104203 -1913.5025411192871
    vertex 1427.1322997207378 3115.953174104203 -1913.5025411192871
  endloop
endfacet
facet normal -2.1116812959056374e-16 -0.6086506942314164 0.7934382977973872
  outer loop
    vertex 1428.004920875523 3116.284549226273 -1913.2483415190673
    vertex 1427.1322997207378 3115.953174104203 -1913.5025411192871
    vertex 1428.004920875523 3115.953174104203 -1913.5025411192871
  endloop
endfacet
facet normal -2.1116812959056374e-16 -0.6086506942314164 0.7934382977973872
  outer loop
    vertex 1428.004920875523 3116.284549226273 -1913.2483415190673
    vertex 1427.1322997207378 3116.284549226273 -1913.2483415190673
    vertex 1427.1322997207378 3115.953174104203 -1913.5025411192871
  endloop
endfacet
facet normal -1.3281131763384656e-16 -0.38280256038808114 0.9238301790699032
  outer loop
    vertex 1428.004920875523 3116.670378388871 -1913.088467556665
    vertex 1427.1322997207378 3116.284549226273 -1913.2483415190673
    vertex 1428.004920875523 3116.284549226273 -1913.2483415190673
  endloop
endfacet
facet normal -1.496472446271251e-16 -0.38280256038808114 0.9238301790699034
  outer loop
    vertex 1428.004920875523 3116.670378388871 -1913.088467556665
    vertex 1427.1322997207378 3116.670378388871 -1913.088467556665
    vertex 1427.1322997207378 3116.284549226273 -1913.2483415190673
  endloop
endfacet
facet normal -3.745515915661413e-17 -0.13053848130001133 0.9914432434082582
  outer loop
    vertex 1428.004920875523 3117.0846941847694 -1913.033916622827
    vertex 1427.1322997207378 3116.670378388871 -1913.088467556665
    vertex 1428.004920875523 3116.670378388871 -1913.088467556665
  endloop
endfacet
facet normal -5.312410805518105e-17 -0.13053848130001128 0.9914432434082582
  outer loop
    vertex 1428.004920875523 3117.0846941847694 -1913.033916622827
    vertex 1427.1322997207378 3117.0846941847694 -1913.033916622827
    vertex 1427.1322997207378 3116.670378388871 -1913.088467556665
  endloop
endfacet
facet normal 4.533131602081729e-17 0.13065862268132222 0.9914274175747916
  outer loop
    vertex 1428.004920875523 3117.4986224074255 -1913.088467556665
    vertex 1427.1322997207378 3117.0846941847694 -1913.033916622827
    vertex 1428.004920875523 3117.0846941847694 -1913.033916622827
  endloop
endfacet
facet normal 4.533131602081729e-17 0.13065862268132222 0.9914274175747916
  outer loop
    vertex 1428.004920875523 3117.4986224074255 -1913.088467556665
    vertex 1427.1322997207378 3117.4986224074255 -1913.088467556665
    vertex 1427.1322997207378 3117.0846941847694 -1913.033916622827
  endloop
endfacet
facet normal 1.3281131763384713e-16 0.3828025603880817 0.9238301790699032
  outer loop
    vertex 1428.004920875523 3117.8844515700234 -1913.2483415190673
    vertex 1427.1322997207378 3117.4986224074255 -1913.088467556665
    vertex 1428.004920875523 3117.4986224074255 -1913.088467556665
  endloop
endfacet
facet normal 1.4964724462712564e-16 0.3828025603880816 0.9238301790699032
  outer loop
    vertex 1428.004920875523 3117.8844515700234 -1913.2483415190673
    vertex 1427.1322997207378 3117.8844515700234 -1913.2483415190673
    vertex 1427.1322997207378 3117.4986224074255 -1913.088467556665
  endloop
endfacet
facet normal 2.1109040727535585e-16 0.608426674909938 0.7936100939743879
  outer loop
    vertex 1428.004920875523 3118.2160204787147 -1913.5025411192871
    vertex 1427.1322997207378 3117.8844515700234 -1913.2483415190673
    vertex 1428.004920875523 3117.8844515700234 -1913.2483415190673
  endloop
endfacet
facet normal 1.9150671517623614e-16 0.6084266749099381 0.7936100939743879
  outer loop
    vertex 1428.004920875523 3118.2160204787147 -1913.5025411192871
    vertex 1427.1322997207378 3118.2160204787147 -1913.5025411192871
    vertex 1427.1322997207378 3117.8844515700234 -1913.2483415190673
  endloop
endfacet
facet normal -3.518256254595877e-16 -0.9914653459783025 0.13037050174071285
  outer loop
    vertex 1428.004920875523 3115.4845980543982 -1914.633964306543
    vertex 1428.004920875523 3115.539052094926 -1914.2198422972656
    vertex 1427.1322997207378 3115.539052094926 -1914.2198422972656
  endloop
endfacet
facet normal -3.3614165905482357e-16 -0.9914653459783023 0.13037050174071288
  outer loop
    vertex 1428.004920875523 3115.4845980543982 -1914.633964306543
    vertex 1427.1322997207378 3115.539052094926 -1914.2198422972656
    vertex 1427.1322997207378 3115.4845980543982 -1914.633964306543
  endloop
endfacet
facet normal -3.2829967585244175e-16 -0.9914653459783025 -0.13037050174071238
  outer loop
    vertex 1428.004920875523 3115.539052094926 -1915.0480863158202
    vertex 1428.004920875523 3115.4845980543982 -1914.633964306543
    vertex 1427.1322997207378 3115.4845980543982 -1914.633964306543
  endloop
endfacet
facet normal -3.3614165905482376e-16 -0.9914653459783025 -0.1303705017407124
  outer loop
    vertex 1428.004920875523 3115.539052094926 -1915.0480863158202
    vertex 1427.1322997207378 3115.4845980543982 -1914.633964306543
    vertex 1427.1322997207378 3115.539052094926 -1915.0480863158202
  endloop
endfacet
facet normal -3.0368205289640533e-16 -0.9238301790699034 -0.38280256038808114
  outer loop
    vertex 1428.004920875523 3115.698926057328 -1915.433915478418
    vertex 1428.004920875523 3115.539052094926 -1915.0480863158202
    vertex 1427.1322997207378 3115.539052094926 -1915.0480863158202
  endloop
endfacet
facet normal -3.0368205289640533e-16 -0.9238301790699034 -0.38280256038808114
  outer loop
    vertex 1428.004920875523 3115.698926057328 -1915.433915478418
    vertex 1427.1322997207378 3115.539052094926 -1915.0480863158202
    vertex 1427.1322997207378 3115.698926057328 -1915.433915478418
  endloop
endfacet
facet normal -2.7525977296351707e-16 -0.7933822790070926 -0.6087237134838039
  outer loop
    vertex 1428.004920875523 3115.953174104203 -1915.7652906004882
    vertex 1428.004920875523 3115.698926057328 -1915.433915478418
    vertex 1427.1322997207378 3115.698926057328 -1915.433915478418
  endloop
endfacet
facet normal -2.7525977296351707e-16 -0.7933822790070926 -0.6087237134838039
  outer loop
    vertex 1428.004920875523 3115.953174104203 -1915.7652906004882
    vertex 1427.1322997207378 3115.698926057328 -1915.433915478418
    vertex 1427.1322997207378 3115.953174104203 -1915.7652906004882
  endloop
endfacet
facet normal -2.112187915094752e-16 -0.6087967172708597 -0.7933262614083975
  outer loop
    vertex 1428.004920875523 3115.953174104203 -1915.7652906004882
    vertex 1427.1322997207378 3115.953174104203 -1915.7652906004882
    vertex 1427.1322997207378 3116.284549226273 -1916.0195870940186
  endloop
endfacet
facet normal -2.112187915094752e-16 -0.6087967172708597 -0.7933262614083975
  outer loop
    vertex 1428.004920875523 3115.953174104203 -1915.7652906004882
    vertex 1427.1322997207378 3116.284549226273 -1916.0195870940186
    vertex 1428.004920875523 3116.284549226273 -1916.0195870940186
  endloop
endfacet
facet normal -1.3277696703109355e-16 -0.3827035515165547 -0.9238711986292332
  outer loop
    vertex 1428.004920875523 3116.284549226273 -1916.0195870940186
    vertex 1427.1322997207378 3116.284549226273 -1916.0195870940186
    vertex 1427.1322997207378 3116.670378388871 -1916.1794126097657
  endloop
endfacet
facet normal -1.1594029249533168e-16 -0.3827035515165546 -0.9238711986292332
  outer loop
    vertex 1428.004920875523 3116.284549226273 -1916.0195870940186
    vertex 1427.1322997207378 3116.670378388871 -1916.1794126097657
    vertex 1428.004920875523 3116.670378388871 -1916.1794126097657
  endloop
endfacet
facet normal -4.525009639881454e-17 -0.1304245230593147 -0.9914582410695623
  outer loop
    vertex 1428.004920875523 3116.670378388871 -1916.1794126097657
    vertex 1427.1322997207378 3116.670378388871 -1916.1794126097657
    vertex 1427.1322997207378 3117.0846941847694 -1916.2339150969483
  endloop
endfacet
facet normal -3.741550343665091e-17 -0.13042452305931468 -0.9914582410695623
  outer loop
    vertex 1428.004920875523 3116.670378388871 -1916.1794126097657
    vertex 1427.1322997207378 3117.0846941847694 -1916.2339150969483
    vertex 1428.004920875523 3117.0846941847694 -1916.2339150969483
  endloop
endfacet
facet normal 4.529174368729349e-17 0.1305445631955558 -0.9914424426158494
  outer loop
    vertex 1428.004920875523 3117.0846941847694 -1916.2339150969483
    vertex 1427.1322997207378 3117.0846941847694 -1916.2339150969483
    vertex 1427.1322997207378 3117.4986224074255 -1916.1794126097657
  endloop
endfacet
facet normal 4.529174368729349e-17 0.1305445631955558 -0.9914424426158494
  outer loop
    vertex 1428.004920875523 3117.0846941847694 -1916.2339150969483
    vertex 1427.1322997207378 3117.4986224074255 -1916.1794126097657
    vertex 1428.004920875523 3117.4986224074255 -1916.1794126097657
  endloop
endfacet
facet normal 1.496136415668549e-16 0.38270355151655433 -0.9238711986292332
  outer loop
    vertex 1428.004920875523 3117.4986224074255 -1916.1794126097657
    vertex 1427.1322997207378 3117.4986224074255 -1916.1794126097657
    vertex 1427.1322997207378 3117.8844515700234 -1916.0195870940186
  endloop
endfacet
facet normal 1.32776967031093e-16 0.3827035515165543 -0.9238711986292334
  outer loop
    vertex 1428.004920875523 3117.4986224074255 -1916.1794126097657
    vertex 1427.1322997207378 3117.8844515700234 -1916.0195870940186
    vertex 1428.004920875523 3117.8844515700234 -1916.0195870940186
  endloop
endfacet
facet normal 2.1114107248864592e-16 0.608572707444783 -0.7934981157843581
  outer loop
    vertex 1428.004920875523 3117.8844515700234 -1916.0195870940186
    vertex 1427.1322997207378 3117.8844515700234 -1916.0195870940186
    vertex 1427.1322997207378 3118.2160204787147 -1915.7652906004882
  endloop
endfacet
facet normal 2.3072200133360344e-16 0.6085727074447831 -0.793498115784358
  outer loop
    vertex 1428.004920875523 3117.8844515700234 -1916.0195870940186
    vertex 1427.1322997207378 3118.2160204787147 -1915.7652906004882
    vertex 1428.004920875523 3118.2160204787147 -1915.7652906004882
  endloop
endfacet
facet normal 2.752597729635166e-16 0.7933822790070921 -0.6087237134838043
  outer loop
    vertex 1427.1322997207378 3118.2160204787147 -1915.7652906004882
    vertex 1428.004920875523 3118.4702685255897 -1915.433915478418
    vertex 1428.004920875523 3118.2160204787147 -1915.7652906004882
  endloop
endfacet
facet normal 2.752597729635166e-16 0.7933822790070921 -0.6087237134838043
  outer loop
    vertex 1427.1322997207378 3118.2160204787147 -1915.7652906004882
    vertex 1427.1322997207378 3118.4702685255897 -1915.433915478418
    vertex 1428.004920875523 3118.4702685255897 -1915.433915478418
  endloop
endfacet
facet normal 3.2057489144918236e-16 0.92399421547192 -0.38240644578044325
  outer loop
    vertex 1427.1322997207378 3118.4702685255897 -1915.433915478418
    vertex 1427.1322997207378 3118.629948701371 -1915.0480863158202
    vertex 1428.004920875523 3118.4702685255897 -1915.433915478418
  endloop
endfacet
facet normal 3.2057489144918236e-16 0.92399421547192 -0.38240644578044325
  outer loop
    vertex 1428.004920875523 3118.4702685255897 -1915.433915478418
    vertex 1427.1322997207378 3118.629948701371 -1915.0480863158202
    vertex 1428.004920875523 3118.629948701371 -1915.0480863158202
  endloop
endfacet
facet normal 3.4396280105567497e-16 0.9914052753047361 -0.1308265267365166
  outer loop
    vertex 1427.1322997207378 3118.629948701371 -1915.0480863158202
    vertex 1428.004920875523 3118.6845965285193 -1914.633964306543
    vertex 1428.004920875523 3118.629948701371 -1915.0480863158202
  endloop
endfacet
facet normal 3.361212929815614e-16 0.9914052753047361 -0.1308265267365166
  outer loop
    vertex 1427.1322997207378 3118.629948701371 -1915.0480863158202
    vertex 1427.1322997207378 3118.6845965285193 -1914.633964306543
    vertex 1428.004920875523 3118.6845965285193 -1914.633964306543
  endloop
endfacet
facet normal 3.4396280105567517e-16 0.9914052753047363 0.13082652673651618
  outer loop
    vertex 1427.1322997207378 3118.6845965285193 -1914.633964306543
    vertex 1427.1322997207378 3118.629948701371 -1914.2198422972656
    vertex 1428.004920875523 3118.6845965285193 -1914.633964306543
  endloop
endfacet
facet normal 3.361212929815616e-16 0.9914052753047363 0.13082652673651618
  outer loop
    vertex 1428.004920875523 3118.6845965285193 -1914.633964306543
    vertex 1427.1322997207378 3118.629948701371 -1914.2198422972656
    vertex 1428.004920875523 3118.629948701371 -1914.2198422972656
  endloop
endfacet
facet normal -1.0 3.469446951953614e-16 2.1811156620185446e-31
  outer loop
    vertex 1428.004920875523 3118.629948701371 -1915.0480863158202
    vertex 1428.004920875523 3118.6845965285193 -1914.633964306543
    vertex 1428.004920875523 3120.46530178975 -1915.5398198668456
  endloop
endfacet
facet normal -1.0 3.469446951953614e-16 2.1811156620185446e-31
  outer loop
    vertex 1428.004920875523 3118.4702685255897 -1915.433915478418
    vertex 1428.004920875523 3118.629948701371 -1915.0480863158202
    vertex 1428.004920875523 3120.46530178975 -1915.5398198668456
  endloop
endfacet
facet normal -1.0 3.469446951953614e-16 2.1811156620185446e-31
  outer loop
    vertex 1428.004920875523 3118.2160204787147 -1915.7652906004882
    vertex 1428.004920875523 3118.4702685255897 -1915.433915478418
    vertex 1428.004920875523 3120.46530178975 -1915.5398198668456
  endloop
endfacet
facet normal -1.0 3.469446951953614e-16 2.1811156620185446e-31
  outer loop
    vertex 1428.004920875523 3118.2160204787147 -1915.7652906004882
    vertex 1428.004920875523 3120.46530178975 -1915.5398198668456
    vertex 1428.004920875523 3120.1155169386757 -1916.38395438833
  endloop
endfacet
facet normal 3.2051726106199584e-16 0.9238281071901547 -0.3828075604862788
  outer loop
    vertex 1428.004920875523 3120.1155169386757 -1916.38395438833
    vertex 1428.004920875523 3120.46530178975 -1915.5398198668456
    vertex 1428.6322081680034 3120.46530178975 -1915.5398198668456
  endloop
endfacet
facet normal 3.2051726106199584e-16 0.9238281071901547 -0.3828075604862788
  outer loop
    vertex 1428.004920875523 3120.1155169386757 -1916.38395438833
    vertex 1428.6322081680034 3120.46530178975 -1915.5398198668456
    vertex 1428.6322081680034 3120.1155169386757 -1916.38395438833
  endloop
endfacet
facet normal 2.1186554874097007e-16 0.793474892989559 -0.6086029856936359
  outer loop
    vertex 1428.004920875523 3119.5595431227575 -1917.1088132445311
    vertex 1428.004920875523 3120.1155169386757 -1916.38395438833
    vertex 1428.6322081680034 3120.1155169386757 -1916.38395438833
  endloop
endfacet
facet normal 2.7529190489343434e-16 0.7934748929895589 -0.608602985693636
  outer loop
    vertex 1428.004920875523 3119.5595431227575 -1917.1088132445311
    vertex 1428.6322081680034 3120.1155169386757 -1916.38395438833
    vertex 1428.6322081680034 3119.5595431227575 -1917.1088132445311
  endloop
endfacet
facet normal 2.1119171625735553e-16 0.608718678169832 -0.7933861423337141
  outer loop
    vertex 1428.6322081680034 3118.834587373246 -1917.6650292937256
    vertex 1428.004920875523 3119.5595431227575 -1917.1088132445311
    vertex 1428.6322081680034 3119.5595431227575 -1917.1088132445311
  endloop
endfacet
facet normal 2.1119171625735553e-16 0.608718678169832 -0.7933861423337141
  outer loop
    vertex 1428.6322081680034 3118.834587373246 -1917.6650292937256
    vertex 1428.004920875523 3118.834587373246 -1917.6650292937256
    vertex 1428.004920875523 3119.5595431227575 -1917.1088132445311
  endloop
endfacet
facet normal 1.3276594958091483e-16 0.38267179587846334 -0.9238843524160107
  outer loop
    vertex 1428.6322081680034 3117.990452851762 -1918.014668804834
    vertex 1428.004920875523 3118.834587373246 -1917.6650292937256
    vertex 1428.6322081680034 3118.834587373246 -1917.6650292937256
  endloop
endfacet
facet normal 1.3276594958091483e-16 0.38267179587846334 -0.9238843524160107
  outer loop
    vertex 1428.6322081680034 3117.990452851762 -1918.014668804834
    vertex 1428.004920875523 3117.990452851762 -1918.014668804834
    vertex 1428.004920875523 3118.834587373246 -1917.6650292937256
  endloop
endfacet
facet normal 4.5296671277456365e-17 0.13055876600721747 -0.9914405724089935
  outer loop
    vertex 1428.6322081680034 3117.0846941847694 -1918.133944470117
    vertex 1428.004920875523 3117.990452851762 -1918.014668804834
    vertex 1428.6322081680034 3117.990452851762 -1918.014668804834
  endloop
endfacet
facet normal 4.5296671277456365e-17 0.13055876600721747 -0.9914405724089935
  outer loop
    vertex 1428.6322081680034 3117.0846941847694 -1918.133944470117
    vertex 1428.004920875523 3117.0846941847694 -1918.133944470117
    vertex 1428.004920875523 3117.990452851762 -1918.014668804834
  endloop
endfacet
facet normal -1.9920040576883165e-17 -0.13053131488070194 -0.991444186949278
  outer loop
    vertex 1428.6322081680034 3116.178741731156 -1918.014668804834
    vertex 1428.004920875523 3117.0846941847694 -1918.133944470117
    vertex 1428.6322081680034 3117.0846941847694 -1918.133944470117
  endloop
endfacet
facet normal -4.5287147254735096e-17 -0.13053131488070197 -0.991444186949278
  outer loop
    vertex 1428.6322081680034 3116.178741731156 -1918.014668804834
    vertex 1428.004920875523 3116.178741731156 -1918.014668804834
    vertex 1428.004920875523 3117.0846941847694 -1918.133944470117
  endloop
endfacet
facet normal -1.327659495809154e-16 -0.3826717958784639 -0.9238843524160107
  outer loop
    vertex 1428.6322081680034 3115.334607209672 -1917.6650292937256
    vertex 1428.004920875523 3116.178741731156 -1918.014668804834
    vertex 1428.6322081680034 3116.178741731156 -1918.014668804834
  endloop
endfacet
facet normal -1.327659495809154e-16 -0.3826717958784639 -0.9238843524160107
  outer loop
    vertex 1428.6322081680034 3115.334607209672 -1917.6650292937256
    vertex 1428.004920875523 3115.334607209672 -1917.6650292937256
    vertex 1428.004920875523 3116.178741731156 -1918.014668804834
  endloop
endfacet
facet normal -2.1122725564638457e-16 -0.6088211134845116 -0.7933075392150759
  outer loop
    vertex 1428.6322081680034 3114.6098452467813 -1917.1088132445311
    vertex 1428.004920875523 3115.334607209672 -1917.6650292937256
    vertex 1428.6322081680034 3115.334607209672 -1917.6650292937256
  endloop
endfacet
facet normal -1.4779732043006352e-16 -0.6088211134845115 -0.7933075392150761
  outer loop
    vertex 1428.6322081680034 3114.6098452467813 -1917.1088132445311
    vertex 1428.004920875523 3114.6098452467813 -1917.1088132445311
    vertex 1428.004920875523 3115.334607209672 -1917.6650292937256
  endloop
endfacet
facet normal -2.1181084575035666e-16 -0.7932700203716114 -0.6088699982587609
  outer loop
    vertex 1428.6322081680034 3114.6098452467813 -1917.1088132445311
    vertex 1428.004920875523 3114.053483857621 -1916.38395438833
    vertex 1428.004920875523 3114.6098452467813 -1917.1088132445311
  endloop
endfacet
facet normal -2.1181084575035663e-16 -0.7932700203716113 -0.6088699982587608
  outer loop
    vertex 1428.6322081680034 3114.6098452467813 -1917.1088132445311
    vertex 1428.6322081680034 3114.053483857621 -1916.38395438833
    vertex 1428.004920875523 3114.053483857621 -1916.38395438833
  endloop
endfacet
facet normal -3.205432786952431e-16 -0.9239030979123288 -0.38262653549904496
  outer loop
    vertex 1428.6322081680034 3114.053483857621 -1916.38395438833
    vertex 1428.004920875523 3113.703892793168 -1915.5398198668456
    vertex 1428.004920875523 3114.053483857621 -1916.38395438833
  endloop
endfacet
facet normal -3.205432786952431e-16 -0.9239030979123288 -0.38262653549904496
  outer loop
    vertex 1428.6322081680034 3114.053483857621 -1916.38395438833
    vertex 1428.6322081680034 3113.703892793168 -1915.5398198668456
    vertex 1428.004920875523 3113.703892793168 -1915.5398198668456
  endloop
endfacet
facet normal -1.0 3.469446951953614e-16 2.1811156620185446e-31
  outer loop
    vertex 1428.004920875523 3113.703892793168 -1915.5398198668456
    vertex 1428.004920875523 3115.953174104203 -1915.7652906004882
    vertex 1428.004920875523 3114.053483857621 -1916.38395438833
  endloop
endfacet
facet normal -1.0 3.469446951953614e-16 2.1811156620185446e-31
  outer loop
    vertex 1428.004920875523 3113.703892793168 -1915.5398198668456
    vertex 1428.004920875523 3115.698926057328 -1915.433915478418
    vertex 1428.004920875523 3115.953174104203 -1915.7652906004882
  endloop
endfacet
facet normal -1.0 3.469446951953614e-16 2.1811156620185446e-31
  outer loop
    vertex 1428.004920875523 3113.703892793168 -1915.5398198668456
    vertex 1428.004920875523 3115.539052094926 -1915.0480863158202
    vertex 1428.004920875523 3115.698926057328 -1915.433915478418
  endloop
endfacet
facet normal -1.0 3.469446951953614e-16 2.1811156620185446e-31
  outer loop
    vertex 1428.004920875523 3114.053483857621 -1916.38395438833
    vertex 1428.004920875523 3115.953174104203 -1915.7652906004882
    vertex 1428.004920875523 3116.284549226273 -1916.0195870940186
  endloop
endfacet
facet normal -1.0 3.469446951953614e-16 2.1811156620185446e-31
  outer loop
    vertex 1428.004920875523 3114.053483857621 -1916.38395438833
    vertex 1428.004920875523 3116.284549226273 -1916.0195870940186
    vertex 1428.004920875523 3116.670378388871 -1916.1794126097657
  endloop
endfacet
facet normal -1.0 3.469446951953614e-16 2.1811156620185446e-31
  outer loop
    vertex 1428.004920875523 3114.053483857621 -1916.38395438833
    vertex 1428.004920875523 3116.670378388871 -1916.1794126097657
    vertex 1428.004920875523 3117.0846941847694 -1916.2339150969483
  endloop
endfacet
facet normal -1.0 3.469446951953614e-16 2.1811156620185446e-31
  outer loop
    vertex 1428.004920875523 3114.053483857621 -1916.38395438833
    vertex 1428.004920875523 3117.0846941847694 -1916.2339150969483
    vertex 1428.004920875523 3120.1155169386757 -1916.38395438833
  endloop
endfacet
facet normal -1.0 3.469446951953614e-16 2.1811156620185446e-31
  outer loop
    vertex 1428.004920875523 3117.0846941847694 -1916.2339150969483
    vertex 1428.004920875523 3117.4986224074255 -1916.1794126097657
    vertex 1428.004920875523 3120.1155169386757 -1916.38395438833
  endloop
endfacet
facet normal -1.0 3.469446951953614e-16 2.1811156620185446e-31
  outer loop
    vertex 1428.004920875523 3117.4986224074255 -1916.1794126097657
    vertex 1428.004920875523 3117.8844515700234 -1916.0195870940186
    vertex 1428.004920875523 3120.1155169386757 -1916.38395438833
  endloop
endfacet
facet normal -1.0 3.469446951953614e-16 2.1811156620185446e-31
  outer loop
    vertex 1428.004920875523 3117.8844515700234 -1916.0195870940186
    vertex 1428.004920875523 3118.2160204787147 -1915.7652906004882
    vertex 1428.004920875523 3120.1155169386757 -1916.38395438833
  endloop
endfacet
facet normal -1.0 3.469446951953614e-16 2.1811156620185446e-31
  outer loop
    vertex 1428.004920875523 3114.053483857621 -1916.38395438833
    vertex 1428.004920875523 3120.1155169386757 -1916.38395438833
    vertex 1428.004920875523 3119.5595431227575 -1917.1088132445311
  endloop
endfacet
facet normal -1.0 3.469446951953614e-16 2.1811156620185446e-31
  outer loop
    vertex 1428.004920875523 3114.053483857621 -1916.38395438833
    vertex 1428.004920875523 3119.5595431227575 -1917.1088132445311
    vertex 1428.004920875523 3114.6098452467813 -1917.1088132445311
  endloop
endfacet
facet normal -1.0 3.469446951953614e-16 2.1811156620185446e-31
  outer loop
    vertex 1428.004920875523 3114.6098452467813 -1917.1088132445311
    vertex 1428.004920875523 3119.5595431227575 -1917.1088132445311
    vertex 1428.004920875523 3118.834587373246 -1917.6650292937256
  endloop
endfacet
facet normal -1.0 3.469446951953614e-16 2.1811156620185446e-31
  outer loop
    vertex 1428.004920875523 3114.6098452467813 -1917.1088132445311
    vertex 1428.004920875523 3118.834587373246 -1917.6650292937256
    vertex 1428.004920875523 3115.334607209672 -1917.6650292937256
  endloop
endfacet
facet normal -1.0 3.469446951953614e-16 2.1811156620185446e-31
  outer loop
    vertex 1428.004920875523 3115.334607209672 -1917.6650292937256
    vertex 1428.004920875523 3118.834587373246 -1917.6650292937256
    vertex 1428.004920875523 3117.990452851762 -1918.014668804834
  endloop
endfacet
facet normal -1.0 3.469446951953614e-16 2.1811156620185446e-31
  outer loop
    vertex 1428.004920875523 3115.334607209672 -1917.6650292937256
    vertex 1428.004920875523 3117.990452851762 -1918.014668804834
    vertex 1428.004920875523 3116.178741731156 -1918.014668804834
  endloop
endfacet
facet normal -1.0 3.469446951953614e-16 2.1811156620185446e-31
  outer loop
    vertex 1428.004920875523 3116.178741731156 -1918.014668804834
    vertex 1428.004920875523 3117.990452851762 -1918.014668804834
    vertex 1428.004920875523 3117.0846941847694 -1918.133944470117
  endloop
endfacet
facet normal 3.469446951953614e-16 1.0 -2.2204460492503136e-16
  outer loop
    vertex 1424.1322890395854 3120.0845110793007 -1928.6721578185059
    vertex 1389.1322936172223 3120.0845110793007 -1918.373997646997
    vertex 1424.1322890395854 3120.0845110793007 -1918.373997646997
  endloop
endfacet
facet normal 3.469446951953614e-16 1.0 -2.2204460492503136e-16
  outer loop
    vertex 1389.1322936172223 3120.0845110793007 -1928.6721578185059
    vertex 1389.1322936172223 3120.0845110793007 -1918.373997646997
    vertex 1424.1322890395854 3120.0845110793007 -1928.6721578185059
  endloop
endfacet
facet normal -2.951487639773439e-31 -2.2204460492503136e-16 -1.0
  outer loop
    vertex 1424.1322890395854 3120.0845110793007 -1928.6721578185059
    vertex 1389.1322936172223 3120.0845110793007 -1928.6721578185059
    vertex 1387.1323187942241 3123.584685029496 -1928.6721578185059
  endloop
endfacet
facet normal -2.951487639773439e-31 -2.2204460492503136e-16 -1.0
  outer loop
    vertex 1389.1322936172223 3117.0846941847694 -1928.6721578185059
    vertex 1387.1323187942241 3123.584685029496 -1928.6721578185059
    vertex 1389.1322936172223 3120.0845110793007 -1928.6721578185059
  endloop
endfacet
facet normal -2.951487639773439e-31 -2.2204460492503136e-16 -1.0
  outer loop
    vertex 1389.1322936172223 3114.0846835036173 -1928.6721578185059
    vertex 1387.1323187942241 3123.584685029496 -1928.6721578185059
    vertex 1389.1322936172223 3117.0846941847694 -1928.6721578185059
  endloop
endfacet
facet normal -2.951487639773439e-31 -2.2204460492503136e-16 -1.0
  outer loop
    vertex 1389.1322936172223 3114.0846835036173 -1928.6721578185059
    vertex 1387.1323187942241 3110.584509553422 -1928.6721578185059
    vertex 1387.1323187942241 3123.584685029496 -1928.6721578185059
  endloop
endfacet
facet normal -2.951487639773439e-31 -2.2204460492503136e-16 -1.0
  outer loop
    vertex 1424.1322890395854 3114.0846835036173 -1928.6721578185059
    vertex 1387.1323187942241 3110.584509553422 -1928.6721578185059
    vertex 1389.1322936172223 3114.0846835036173 -1928.6721578185059
  endloop
endfacet
facet normal -2.951487639773439e-31 -2.2204460492503136e-16 -1.0
  outer loop
    vertex 1428.6322081680034 3123.584685029496 -1928.6721578185059
    vertex 1424.1322890395854 3120.0845110793007 -1928.6721578185059
    vertex 1387.1323187942241 3123.584685029496 -1928.6721578185059
  endloop
endfacet
facet normal 0.9917528602752617 2.7397304577301943e-05 -0.1281649850201876
  outer loop
    vertex 1387.1745642776227 3122.084582795609 -1918.373997646997
    vertex 1387.1323187942241 3123.584685029496 -1918.7005765501954
    vertex 1387.2686476821636 3123.584685029496 -1917.6456506316163
  endloop
endfacet
facet normal 0.9917368571068326 -3.746977207117339e-16 -0.12828876122194896
  outer loop
    vertex 1387.1323187942241 3122.084582795609 -1918.7005765501954
    vertex 1387.1323187942241 3123.584685029496 -1918.7005765501954
    vertex 1387.1745642776227 3122.084582795609 -1918.373997646997
  endloop
endfacet
endsolid piezas SET COMPLETO 13mm
